<svg width="48" height="34" viewBox="0 0 48 34" fill="none" xmlns="http://www.w3.org/2000/svg">
<g clip-path="url(#clip0_22_7732)">
<rect x="0.970093" width="46.4924" height="33.2088" rx="6.64177" fill="white"/>
<path d="M43.0346 0H5.39794C2.95251 0 0.970093 1.98241 0.970093 4.42784V28.781C0.970093 31.2264 2.95251 33.2088 5.39794 33.2088H43.0346C45.48 33.2088 47.4625 31.2264 47.4625 28.781V4.42784C47.4625 1.98241 45.48 0 43.0346 0Z" fill="white"/>
<path fill-rule="evenodd" clip-rule="evenodd" d="M0.970093 0H23.1093V33.2088H0.970093V0Z" fill="#249F58"/>
<path fill-rule="evenodd" clip-rule="evenodd" d="M29.8663 22.7213C28.0464 25.0614 25.1993 26.5669 22.0024 26.5669C16.5008 26.5669 12.0398 22.1058 12.0398 16.6042C12.0398 11.1027 16.5008 6.6416 22.0024 6.6416C25.1993 6.6416 28.0464 8.14707 29.8663 10.4872C28.4604 9.46435 26.6915 8.85552 24.7698 8.85552C20.187 8.85552 16.4676 12.3247 16.4676 16.6042C16.4676 20.8838 20.187 24.353 24.7698 24.353C26.6915 24.353 28.4604 23.7441 29.8663 22.7213Z" fill="#F93939"/>
<path fill-rule="evenodd" clip-rule="evenodd" d="M29.7511 16.6046L31.9651 15.4976L33.072 13.2837L34.179 15.4976L36.3929 16.6046L34.179 17.7115L33.072 19.9255L31.9651 17.7115L29.7511 16.6046Z" fill="#F93939"/>
</g>
<defs>
<clipPath id="clip0_22_7732">
<rect x="0.970093" width="46.4924" height="33.2088" rx="6.64177" fill="white"/>
</clipPath>
</defs>
</svg>
