<svg width="47" height="34" viewBox="0 0 47 34" fill="none" xmlns="http://www.w3.org/2000/svg">
<g clip-path="url(#clip0_22_7832)">
<rect x="0.492493" width="46.4925" height="33.2089" rx="6.64179" fill="#1A47B8"/>
<path d="M42.5571 0H4.92035C2.47491 0 0.492493 1.98242 0.492493 4.42786V28.7811C0.492493 31.2265 2.47491 33.2089 4.92035 33.2089H42.5571C45.0026 33.2089 46.985 31.2265 46.985 28.7811V4.42786C46.985 1.98242 45.0026 0 42.5571 0Z" fill="#1A47B8"/>
<path fill-rule="evenodd" clip-rule="evenodd" d="M33.7014 8.85547V11.0694H35.9153V8.85547H33.7014ZM38.1293 13.2833V15.4973H40.3432V13.2833H38.1293ZM29.2736 15.4973V17.7112H31.4875V15.4973H29.2736ZM33.7014 24.353V26.5669H35.9153V24.353H33.7014Z" fill="#F93939"/>
<path d="M20.4178 2.21387H4.92035C3.69763 2.21387 2.70642 3.20508 2.70642 4.4278V15.4974C2.70642 16.7202 3.69763 17.7114 4.92035 17.7114H20.4178C21.6406 17.7114 22.6318 16.7202 22.6318 15.4974V4.4278C22.6318 3.20508 21.6406 2.21387 20.4178 2.21387Z" fill="white"/>
<path fill-rule="evenodd" clip-rule="evenodd" d="M11.5621 11.0695H4.92035V8.85559H11.5621V4.42773H13.7761V8.85559H20.4178V11.0695H13.7761V15.4974H11.5621V11.0695ZM17.097 13.2834V15.4974H20.4178V13.2834H17.097ZM17.097 4.42773V6.64166H20.4178V4.42773H17.097ZM4.92035 13.2834V15.4974H8.24124V13.2834H4.92035ZM4.92035 4.42773V6.64166H8.24124V4.42773H4.92035Z" fill="#F93939"/>
</g>
<defs>
<clipPath id="clip0_22_7832">
<rect x="0.492493" width="46.4925" height="33.2089" rx="6.64179" fill="white"/>
</clipPath>
</defs>
</svg>
