<svg width="47" height="34" viewBox="0 0 47 34" fill="none" xmlns="http://www.w3.org/2000/svg">
<g clip-path="url(#clip0_22_7827)">
<rect width="46.4925" height="33.2089" rx="6.64179" fill="#1A47B8"/>
<path d="M42.0646 0H4.42786C1.98242 0 0 1.98242 0 4.42786V28.7811C0 31.2265 1.98242 33.2089 4.42786 33.2089H42.0646C44.5101 33.2089 46.4925 31.2265 46.4925 28.7811V4.42786C46.4925 1.98242 44.5101 0 42.0646 0Z" fill="#1A47B8"/>
<path opacity="0.5" fill-rule="evenodd" clip-rule="evenodd" d="M8.85571 25.46L11.0696 24.353L12.1766 22.1391L13.2836 24.353L15.4975 25.46L13.2836 26.567L12.1766 28.7809L11.0696 26.567L8.85571 25.46ZM30.995 6.6416V8.85553H33.2089V6.6416H30.995ZM37.6368 8.85553V11.0695H39.8507V8.85553H37.6368ZM28.7811 13.2834V15.4973H30.995V13.2834H28.7811ZM35.4229 15.4973V17.7112H37.6368V15.4973H35.4229ZM33.2089 22.1391V24.353H35.4229V22.1391H33.2089Z" fill="white"/>
<path d="M19.9254 2.21387H4.42786C3.20514 2.21387 2.21393 3.20508 2.21393 4.4278V15.4974C2.21393 16.7202 3.20514 17.7114 4.42786 17.7114H19.9254C21.1481 17.7114 22.1393 16.7202 22.1393 15.4974V4.4278C22.1393 3.20508 21.1481 2.21387 19.9254 2.21387Z" fill="white"/>
<path fill-rule="evenodd" clip-rule="evenodd" d="M11.0696 11.0695H4.42786V8.85559H11.0696V4.42773H13.2836V8.85559H19.9254V11.0695H13.2836V15.4974H11.0696V11.0695ZM16.6045 13.2834V15.4974H19.9254V13.2834H16.6045ZM16.6045 4.42773V6.64166H19.9254V4.42773H16.6045ZM4.42786 13.2834V15.4974H7.74875V13.2834H4.42786ZM4.42786 4.42773V6.64166H7.74875V4.42773H4.42786Z" fill="#F93939"/>
</g>
<defs>
<clipPath id="clip0_22_7827">
<rect width="46.4925" height="33.2089" rx="6.64179" fill="white"/>
</clipPath>
</defs>
</svg>
