<svg width="358" height="432" viewBox="0 0 358 432" fill="none" xmlns="http://www.w3.org/2000/svg">
<path d="M0.597656 78.1089C0.597656 40.9741 38.3996 15.8079 72.6594 30.1347L179.098 74.6448L285.536 30.1347C319.796 15.8079 357.598 40.9741 357.598 78.1089V179.5C357.598 278.083 277.68 359 179.098 359C80.5148 359 0.597656 278.083 0.597656 179.5V78.1089Z" fill="#2268EF"/>
<path fill-rule="evenodd" clip-rule="evenodd" d="M179.098 417C80.5148 417 0.597656 337.083 0.597656 238.5V179.5C0.597656 144.548 36.2977 74.6448 179.098 74.6448C321.898 74.6448 357.598 144.548 357.598 179.5V238.5C357.598 337.083 277.68 417 179.098 417Z" fill="#699CFF"/>
<circle cx="179.598" cy="215" r="101" fill="white"/>
<circle cx="179.598" cy="215" r="64" fill="#1A1A1A"/>
<circle cx="233.598" cy="182" r="10" fill="white"/>
<circle cx="223.098" cy="208.5" r="6.5" fill="white"/>
<circle cx="200.098" cy="185.5" r="13.5" fill="white"/>
</svg>
