<svg width="358" height="432" viewBox="0 0 358 432" fill="none" xmlns="http://www.w3.org/2000/svg">
<path d="M0.597656 78.1089C0.597656 40.9741 38.3996 15.8079 72.6594 30.1347L179.098 74.6448L285.536 30.1347C319.796 15.8079 357.598 40.9741 357.598 78.1089V179.5C357.598 278.083 277.68 359 179.098 359C80.5148 359 0.597656 278.083 0.597656 179.5V78.1089Z" fill="#2268EF"/>
<path fill-rule="evenodd" clip-rule="evenodd" d="M179.098 417C80.5148 417 0.597656 337.083 0.597656 238.5V179.5C0.597656 144.548 36.2977 74.6448 179.098 74.6448C321.898 74.6448 357.598 144.548 357.598 179.5V238.5C357.598 337.083 277.68 417 179.098 417Z" fill="#699CFF"/>
<path d="M89.5977 253C89.5977 229.396 98.9744 206.758 115.665 190.067C132.356 173.377 154.993 164 178.598 164C202.202 164 224.839 173.377 241.53 190.067C258.221 206.758 267.598 229.396 267.598 253L239.964 253C239.964 236.725 233.499 221.116 221.99 209.607C210.482 198.099 194.873 191.634 178.598 191.634C162.322 191.634 146.714 198.099 135.205 209.607C123.697 221.116 117.231 236.725 117.231 253H89.5977Z" fill="#191919"/>
<path d="M145.598 343V343C145.598 356.255 156.343 367 169.598 367H189.598C202.852 367 213.598 356.255 213.598 343V343" stroke="#191919" stroke-width="24"/>
</svg>
