<svg width="410" height="295" viewBox="0 0 410 295" fill="none" xmlns="http://www.w3.org/2000/svg">
<circle cx="205.5" cy="147.5" r="147.5" fill="url(#paint0_linear_38_1142)"/>
<rect x="293" y="67" width="91" height="40" rx="20" fill="#4683F8"/>
<rect width="91" height="40" rx="20" transform="matrix(-1 0 0 1 117 67)" fill="url(#paint1_linear_38_1142)"/>
<rect x="199" y="5" width="130" height="40" rx="20" fill="url(#paint2_linear_38_1142)"/>
<rect x="199" y="250" width="130" height="40" rx="20" fill="url(#paint3_linear_38_1142)"/>
<rect x="82" y="5" width="130" height="40" rx="20" fill="url(#paint4_linear_38_1142)"/>
<rect x="82" y="250" width="130" height="40" rx="20" fill="url(#paint5_linear_38_1142)"/>
<rect x="319" y="128" width="91" height="40" rx="20" fill="#548DFB"/>
<rect width="91" height="40" rx="20" transform="matrix(-1 0 0 1 91 128)" fill="url(#paint6_linear_38_1142)"/>
<rect x="293" y="189" width="91" height="40" rx="20" fill="#5991FC"/>
<rect width="91" height="40" rx="20" transform="matrix(-1 0 0 1 117 189)" fill="url(#paint7_linear_38_1142)"/>
<rect x="161" y="28" width="88" height="26" rx="13" fill="url(#paint8_linear_38_1142)"/>
<rect x="161" y="241" width="88" height="26" rx="13" fill="url(#paint9_linear_38_1142)"/>
<rect x="188" y="83" width="79" height="26" rx="13" fill="url(#paint10_linear_38_1142)"/>
<rect x="143" y="83" width="86" height="26" rx="13" fill="url(#paint11_linear_38_1142)"/>
<rect x="188" y="186" width="79" height="26" rx="13" fill="url(#paint12_linear_38_1142)"/>
<rect x="143" y="186" width="86" height="26" rx="13" fill="url(#paint13_linear_38_1142)"/>
<rect x="185" y="135" width="114" height="26" rx="13" fill="url(#paint14_linear_38_1142)"/>
<rect x="112" y="135" width="114" height="26" rx="13" fill="url(#paint15_linear_38_1142)"/>
<path d="M204.39 61C171.654 127.907 174.792 165.843 204.39 234C236.529 165.828 237.871 127.925 204.39 61Z" fill="#191919"/>
<defs>
<linearGradient id="paint0_linear_38_1142" x1="100.607" y1="19.1062" x2="316.125" y2="285.829" gradientUnits="userSpaceOnUse">
<stop stop-color="#2268EF"/>
<stop offset="1" stop-color="#699CFF"/>
</linearGradient>
<linearGradient id="paint1_linear_38_1142" x1="24" y1="2" x2="25.5" y2="40" gradientUnits="userSpaceOnUse">
<stop stop-color="#2B6FF1"/>
<stop offset="1" stop-color="#3274F3"/>
</linearGradient>
<linearGradient id="paint2_linear_38_1142" x1="200" y1="9" x2="279.5" y2="48.5" gradientUnits="userSpaceOnUse">
<stop stop-color="#2D70F2"/>
<stop offset="1" stop-color="#3D7CF6"/>
</linearGradient>
<linearGradient id="paint3_linear_38_1142" x1="200" y1="254" x2="323.5" y2="276" gradientUnits="userSpaceOnUse">
<stop stop-color="#568FFB"/>
<stop offset="1" stop-color="#6398FE"/>
</linearGradient>
<linearGradient id="paint4_linear_38_1142" x1="83" y1="9" x2="202.5" y2="45" gradientUnits="userSpaceOnUse">
<stop stop-color="#276CF0"/>
<stop offset="1" stop-color="#3374F3"/>
</linearGradient>
<linearGradient id="paint5_linear_38_1142" x1="79" y1="263.5" x2="201.5" y2="256" gradientUnits="userSpaceOnUse">
<stop stop-color="#4984F8"/>
<stop offset="1" stop-color="#568EFB"/>
</linearGradient>
<linearGradient id="paint6_linear_38_1142" x1="31.5" y1="1.07334e-06" x2="32.5" y2="37.5" gradientUnits="userSpaceOnUse">
<stop stop-color="#2F71F2"/>
<stop offset="1" stop-color="#3677F4"/>
</linearGradient>
<linearGradient id="paint7_linear_38_1142" x1="52" y1="-1.0963e-06" x2="37" y2="38" gradientUnits="userSpaceOnUse">
<stop stop-color="#3979F5"/>
<stop offset="1" stop-color="#4380F7"/>
</linearGradient>
<linearGradient id="paint8_linear_38_1142" x1="161" y1="41.4194" x2="248.227" y2="33.2089" gradientUnits="userSpaceOnUse">
<stop stop-color="#6398FE" stop-opacity="0"/>
<stop offset="0.505812" stop-color="#6398FE"/>
<stop offset="1" stop-color="#3D7CF6" stop-opacity="0"/>
</linearGradient>
<linearGradient id="paint9_linear_38_1142" x1="161" y1="254.419" x2="248.227" y2="246.209" gradientUnits="userSpaceOnUse">
<stop stop-color="#6398FE" stop-opacity="0"/>
<stop offset="0.505812" stop-color="#6398FE"/>
<stop offset="1" stop-color="#3D7CF6" stop-opacity="0"/>
</linearGradient>
<linearGradient id="paint10_linear_38_1142" x1="188" y1="96.4194" x2="266.44" y2="89.7911" gradientUnits="userSpaceOnUse">
<stop stop-color="#6398FE" stop-opacity="0"/>
<stop offset="0.505812" stop-color="#6398FE"/>
<stop offset="1" stop-color="#3D7CF6" stop-opacity="0"/>
</linearGradient>
<linearGradient id="paint11_linear_38_1142" x1="143" y1="96.4194" x2="228.278" y2="88.5747" gradientUnits="userSpaceOnUse">
<stop stop-color="#6398FE" stop-opacity="0"/>
<stop offset="0.505812" stop-color="#6398FE"/>
<stop offset="1" stop-color="#3D7CF6" stop-opacity="0"/>
</linearGradient>
<linearGradient id="paint12_linear_38_1142" x1="188" y1="199.419" x2="266.44" y2="192.791" gradientUnits="userSpaceOnUse">
<stop stop-color="#6398FE" stop-opacity="0"/>
<stop offset="0.505812" stop-color="#6398FE"/>
<stop offset="1" stop-color="#3D7CF6" stop-opacity="0"/>
</linearGradient>
<linearGradient id="paint13_linear_38_1142" x1="143" y1="199.419" x2="228.278" y2="191.575" gradientUnits="userSpaceOnUse">
<stop stop-color="#6398FE" stop-opacity="0"/>
<stop offset="0.505812" stop-color="#6398FE"/>
<stop offset="1" stop-color="#3D7CF6" stop-opacity="0"/>
</linearGradient>
<linearGradient id="paint14_linear_38_1142" x1="185" y1="148.419" x2="297.33" y2="134.722" gradientUnits="userSpaceOnUse">
<stop stop-color="#6398FE" stop-opacity="0"/>
<stop offset="0.505812" stop-color="#6398FE"/>
<stop offset="1" stop-color="#3D7CF6" stop-opacity="0"/>
</linearGradient>
<linearGradient id="paint15_linear_38_1142" x1="112" y1="148.419" x2="224.33" y2="134.722" gradientUnits="userSpaceOnUse">
<stop stop-color="#6398FE" stop-opacity="0"/>
<stop offset="0.505812" stop-color="#6398FE"/>
<stop offset="1" stop-color="#3D7CF6" stop-opacity="0"/>
</linearGradient>
</defs>
</svg>
