<svg width="297" height="298" viewBox="0 0 297 298" fill="none" xmlns="http://www.w3.org/2000/svg">
<path d="M0.597656 64.6596C0.597656 33.9189 31.8906 13.086 60.2514 24.9459L148.362 61.792L236.473 24.9459C264.834 13.086 296.127 33.9189 296.127 64.6596V148.593C296.127 230.201 229.971 297.185 148.362 297.185C66.7542 297.185 0.597656 230.201 0.597656 148.593V64.6596Z" fill="#2268EF"/>
<path fill-rule="evenodd" clip-rule="evenodd" d="M148.362 297.185C66.7542 297.185 0.597656 230.201 0.597656 148.593C0.597656 119.659 30.1506 61.792 148.362 61.792C266.574 61.792 296.127 119.659 296.127 148.593C296.127 230.201 229.971 297.185 148.362 297.185Z" fill="#699CFF"/>
<circle cx="148.776" cy="177.981" r="83.6092" fill="white"/>
<circle cx="148.777" cy="177.981" r="52.9801" fill="#1A1A1A"/>
<circle cx="193.477" cy="150.661" r="8.27814" fill="white"/>
<circle cx="184.786" cy="172.599" r="5.38079" fill="white"/>
<circle cx="165.747" cy="153.559" r="11.1755" fill="white"/>
</svg>
