<svg width="413" height="701" viewBox="0 0 413 701" fill="none" xmlns="http://www.w3.org/2000/svg">
<path d="M49.222 75.7777C51.3207 39.7644 89.4031 17.4947 121.819 33.3248L222.527 82.5059L328.266 45.3552C362.301 33.3973 397.539 59.9397 395.44 95.953L389.71 194.282C384.139 289.888 302.063 363.845 206.457 358.273C110.851 352.702 37.9209 269.712 43.4921 174.107L49.222 75.7777Z" fill="#2268EF"/>
<path fill-rule="evenodd" clip-rule="evenodd" d="M203.179 414.522C107.574 408.95 34.5866 326.93 40.1578 231.325L43.4921 174.107C45.4673 140.211 84.0396 74.4358 222.527 82.5059C361.014 90.576 391.685 160.386 389.71 194.282L386.376 251.5C380.805 347.106 298.785 420.093 203.179 414.522Z" fill="#699CFF"/>
<circle cx="215.08" cy="218.651" r="98.1158" transform="rotate(3.33504 215.08 218.651)" fill="white"/>
<circle cx="215.08" cy="218.65" r="62.1724" transform="rotate(3.33504 215.08 218.65)" fill="black"/>
<circle cx="269.314" cy="189.699" r="9.71444" transform="rotate(3.33504 269.314 189.699)" fill="white"/>
<circle cx="257.633" cy="214.804" r="6.31391" transform="rotate(3.33504 257.633 214.804)" fill="white"/>
<circle cx="236.628" cy="191.199" r="13.1145" transform="rotate(3.33504 236.628 191.199)" fill="white"/>
<path d="M179.183 341.114V341.114C178.434 353.969 188.247 364.997 201.102 365.746L211.877 366.374C224.732 367.123 235.76 357.309 236.509 344.455V344.455" stroke="black" stroke-width="20.0192"/>
<path d="M197.041 620.859C189.683 614.987 184.768 606.956 183.756 597.722C183.613 596.424 183.666 595.087 184.14 593.751M268.5 613.027C274.412 605.701 277.471 596.796 276.459 587.562C276.317 586.264 275.929 585.052 275.187 583.772" stroke="#D9E3F7" stroke-width="8.18203"/>
<path d="M253.835 664.801C257.007 666.932 259.095 669.884 259.471 673.311C260.328 681.13 251.943 688.463 240.744 689.691C229.544 690.918 219.77 685.575 218.913 677.756C218.538 674.329 219.938 670.995 222.572 668.228" stroke="#D9E3F7" stroke-width="8.18203"/>
<path fill-rule="evenodd" clip-rule="evenodd" d="M118.253 470.621C117.629 464.927 135.762 451.416 213.283 442.92C290.805 434.424 311.433 443.687 312.057 449.38L315.078 476.94C320.943 530.458 282.314 578.597 228.796 584.462C175.279 590.328 127.139 551.698 121.274 498.181L118.253 470.621Z" fill="#699CFF"/>
<path d="M333.944 453.879C363.035 498.504 378.25 548.368 382.619 569.843C382.772 570.595 382.467 571.348 381.79 571.708C373.468 576.129 351.841 573.958 322.921 533.258C322.428 532.564 322.441 531.617 322.913 530.909C330.243 519.92 336.088 490.774 330.347 455.365C330.008 453.274 332.787 452.104 333.944 453.879Z" fill="#699CFF"/>
<path d="M97.9322 479.746C79.1976 529.612 75.1437 581.588 75.5301 603.5C75.5437 604.266 76.0041 604.936 76.743 605.141C85.8251 607.654 106.469 600.85 125.887 554.852C126.218 554.068 126 553.146 125.386 552.557C115.849 543.417 103.831 516.229 101.765 480.417C101.643 478.302 98.6774 477.762 97.9322 479.746Z" fill="#699CFF"/>
<path d="M236.911 654.723C228.64 655.63 221.032 653.914 215.434 650.601C209.838 647.29 206.466 642.551 205.892 637.318C205.319 632.085 207.584 626.729 212.33 622.284C217.078 617.838 224.134 614.514 232.405 613.608C240.677 612.701 248.285 614.417 253.883 617.73C259.479 621.042 262.851 625.78 263.424 631.013C263.998 636.246 261.732 641.602 256.986 646.047C252.239 650.494 245.183 653.817 236.911 654.723Z" stroke="#D9E3F7" stroke-width="8.18203"/>
<path d="M136.214 540.298C211.769 587.834 249.703 583.354 309.675 521.287C303.979 541.816 276.849 579.079 228.998 584.367C181.014 589.669 145.961 559.522 136.214 540.298Z" fill="#2268EF"/>
<path d="M118.947 544.165C114.331 565.957 81.3167 605.673 75.5293 603.695C75.7515 604.713 76.1729 605.109 77.7725 605.379C82.316 606.289 94.3272 604.379 106.024 589.466C109.728 584.757 118.859 571.307 125.75 555.178C126.012 554.422 126.653 553.411 124.603 551.795C123.216 550.677 120.255 546.242 118.947 544.165Z" fill="#2268EF"/>
<path d="M327.372 521.364C336.598 541.639 377.431 573.262 382.653 570.077C382.656 571.119 382.331 571.597 380.828 572.207C376.589 574.079 364.449 574.816 349.8 562.791C345.164 558.996 333.336 547.842 323.116 533.589C322.696 532.907 321.851 532.06 323.502 530.038C324.614 528.646 326.545 523.675 327.372 521.364Z" fill="#2268EF"/>
</svg>
