<svg width="143" height="41" viewBox="0 0 143 41" fill="none" xmlns="http://www.w3.org/2000/svg">
<path d="M142.206 36.2715C142.206 38.4564 140.385 40.2263 138.133 40.2263H4.87186C2.62126 40.2263 0.794434 38.4564 0.794434 36.2715V4.73338C0.794434 2.54948 2.62126 0.773438 4.87186 0.773438H138.132C140.385 0.773438 142.204 2.54948 142.204 4.73338L142.206 36.2715Z" fill="#2268EF"/>
<path d="M31.9132 20.2782C31.8825 16.9747 34.7086 15.3675 34.8378 15.2926C33.2373 13.0346 30.7565 12.726 29.8847 12.7014C27.8012 12.4893 25.7801 13.9079 24.7187 13.9079C23.6362 13.9079 22.0017 12.7219 20.2402 12.7568C17.9734 12.7906 15.8527 14.0606 14.6897 16.0327C12.2894 20.0538 14.0795 25.9629 16.3792 29.2132C17.5295 30.805 18.8737 32.5823 20.6332 32.5198C22.3545 32.4511 22.9974 31.4579 25.0746 31.4579C27.1328 31.4579 27.7366 32.5198 29.531 32.4798C31.3783 32.4511 32.5414 30.8808 33.6515 29.2747C34.9808 27.4502 35.5147 25.6533 35.5359 25.5611C35.4925 25.5467 31.9482 24.2378 31.9132 20.2782Z" fill="white"/>
<path d="M28.5236 10.5633C29.4494 9.44297 30.0828 7.91879 29.907 6.37207C28.567 6.42947 26.8913 7.26895 25.9263 8.36467C25.0725 9.33022 24.3099 10.9128 24.5069 12.4011C26.0121 12.5098 27.5576 11.6662 28.5236 10.5633Z" fill="white"/>
<path d="M51.9566 10.2587C51.9566 11.4651 51.5827 12.3733 50.8359 12.9831C50.1442 13.5459 49.1612 13.8277 47.888 13.8277C47.2567 13.8277 46.7165 13.8011 46.2642 13.7478V7.156C46.8542 7.06375 47.4897 7.0166 48.1761 7.0166C49.389 7.0166 50.3031 7.27183 50.9196 7.78228C51.6102 8.35935 51.9566 9.18448 51.9566 10.2587ZM50.7861 10.2884C50.7861 9.50633 50.5722 8.9067 50.1442 8.4885C49.7163 8.07133 49.0913 7.86223 48.2683 7.86223C47.9187 7.86223 47.6211 7.88478 47.3743 7.93193V12.9432C47.5109 12.9637 47.7609 12.9729 48.1242 12.9729C48.9737 12.9729 49.6294 12.7443 50.0913 12.2872C50.5531 11.83 50.7861 11.1638 50.7861 10.2884Z" fill="white"/>
<path d="M58.1631 11.3132C58.1631 12.0563 57.9438 12.6652 57.5053 13.1428C57.0455 13.6338 56.4365 13.8788 55.6759 13.8788C54.9429 13.8788 54.3593 13.6441 53.9239 13.1726C53.4896 12.7021 53.2725 12.1086 53.2725 11.3932C53.2725 10.6449 53.496 10.0309 53.9451 9.55432C54.3942 9.07769 54.998 8.83887 55.7585 8.83887C56.4916 8.83887 57.0805 9.07359 57.5264 9.54407C57.9502 10.0012 58.1631 10.5916 58.1631 11.3132ZM57.0116 11.3481C57.0116 10.9022 56.9121 10.5199 56.714 10.2011C56.481 9.81569 56.1494 9.62299 55.7183 9.62299C55.2723 9.62299 54.9334 9.81569 54.7003 10.2011C54.5012 10.5199 54.4027 10.9083 54.4027 11.3675C54.4027 11.8134 54.5023 12.1957 54.7003 12.5145C54.9408 12.8999 55.2755 13.0926 55.7077 13.0926C56.1314 13.0926 56.464 12.8968 56.7034 12.5043C56.9089 12.1793 57.0116 11.7939 57.0116 11.3481Z" fill="white"/>
<path d="M66.4842 8.93652L64.9218 13.7684H63.905L63.2577 11.6702C63.0936 11.1464 62.9601 10.6257 62.8563 10.1091H62.8362C62.7398 10.6401 62.6063 11.1597 62.4347 11.6702L61.7472 13.7684H60.7187L59.2495 8.93652H60.3903L60.9549 11.2335C61.0916 11.7768 61.2038 12.2944 61.2939 12.7844H61.314C61.3966 12.3805 61.5333 11.866 61.7261 11.2438L62.4347 8.93755H63.3393L64.0183 11.1946C64.1825 11.745 64.3159 12.2749 64.4187 12.7854H64.4494C64.5246 12.2883 64.638 11.7583 64.7884 11.1946L65.3943 8.93755H66.4842V8.93652Z" fill="white"/>
<path d="M72.2391 13.7683H71.1291V11.0008C71.1291 10.148 70.7943 9.72159 70.1228 9.72159C69.7933 9.72159 69.5275 9.83844 69.3209 10.0732C69.1165 10.3079 69.0127 10.5846 69.0127 10.9014V13.7673H67.9026V10.3171C67.9026 9.89276 67.8888 9.43254 67.8623 8.93439H68.8379L68.8898 9.68981H68.9205C69.0497 9.45509 69.2425 9.26136 69.4957 9.10659C69.7965 8.92619 70.1333 8.83496 70.502 8.83496C70.968 8.83496 71.3557 8.98051 71.664 9.27264C72.0474 9.63036 72.2391 10.1644 72.2391 10.8737V13.7683Z" fill="white"/>
<path d="M75.3004 13.7687H74.1914V6.71973H75.3004V13.7687Z" fill="white"/>
<path d="M81.8364 11.3132C81.8364 12.0563 81.6171 12.6652 81.1786 13.1428C80.7189 13.6338 80.1088 13.8788 79.3493 13.8788C78.6152 13.8788 78.0315 13.6441 77.5972 13.1726C77.1629 12.7021 76.9458 12.1086 76.9458 11.3932C76.9458 10.6449 77.1693 10.0309 77.6184 9.55432C78.0676 9.07769 78.6713 8.83887 79.4308 8.83887C80.1649 8.83887 80.7528 9.07359 81.1998 9.54407C81.6235 10.0012 81.8364 10.5916 81.8364 11.3132ZM80.6839 11.3481C80.6839 10.9022 80.5844 10.5199 80.3863 10.2011C80.1543 9.81569 79.8217 9.62299 79.3916 9.62299C78.9446 9.62299 78.6057 9.81569 78.3737 10.2011C78.1745 10.5199 78.076 10.9083 78.076 11.3675C78.076 11.8134 78.1756 12.1957 78.3737 12.5145C78.6141 12.8999 78.9489 13.0926 79.381 13.0926C79.8047 13.0926 80.1363 12.8968 80.3757 12.5043C80.5822 12.1793 80.6839 11.7939 80.6839 11.3481Z" fill="white"/>
<path d="M87.2087 13.7691H86.2119L86.1293 13.2125H86.0986C85.7575 13.6564 85.2713 13.8788 84.64 13.8788C84.1686 13.8788 83.7873 13.7322 83.5002 13.4411C83.2397 13.1767 83.1094 12.8476 83.1094 12.4571C83.1094 11.8667 83.3636 11.4167 83.8752 11.1051C84.3858 10.7935 85.104 10.6408 86.0287 10.648V10.5578C86.0287 9.92127 85.6834 9.60352 84.9917 9.60352C84.4991 9.60352 84.0648 9.72344 83.6899 9.96124L83.4642 9.25604C83.9282 8.97827 84.5012 8.83887 85.177 8.83887C86.4821 8.83887 87.1367 9.50512 87.1367 10.8376V12.617C87.1367 13.0998 87.161 13.4842 87.2087 13.7691ZM86.0562 12.1086V11.3634C84.8317 11.3429 84.2195 11.6679 84.2195 12.3372C84.2195 12.5893 84.2894 12.7779 84.4324 12.904C84.5754 13.0301 84.7576 13.0926 84.9747 13.0926C85.2184 13.0926 85.4461 13.0178 85.6537 12.8692C85.8624 12.7195 85.9906 12.5299 86.0382 12.2972C86.0499 12.2449 86.0562 12.1814 86.0562 12.1086Z" fill="white"/>
<path d="M93.5167 13.7687H92.5316L92.4796 12.9927H92.4489C92.1343 13.5831 91.5983 13.8783 90.8452 13.8783C90.2436 13.8783 89.7425 13.6498 89.3453 13.1926C88.9481 12.7355 88.75 12.142 88.75 11.4132C88.75 10.6311 88.965 9.99768 89.3972 9.51388C89.8156 9.06288 90.3283 8.83738 90.9384 8.83738C91.6089 8.83738 92.0782 9.0557 92.3451 9.49338H92.3663V6.71973H93.4775V12.4669C93.4775 12.9374 93.4902 13.371 93.5167 13.7687ZM92.3663 11.731V10.9253C92.3663 10.7859 92.3557 10.6732 92.3356 10.5871C92.2731 10.3288 92.1386 10.1115 91.9341 9.93618C91.7276 9.7609 91.4786 9.67275 91.1916 9.67275C90.7774 9.67275 90.4533 9.83163 90.2149 10.1504C89.9787 10.4692 89.859 10.8761 89.859 11.3732C89.859 11.8509 89.9724 12.2383 90.2001 12.5366C90.4406 12.8544 90.7647 13.0132 91.1704 13.0132C91.5348 13.0132 91.8261 12.881 92.0475 12.6155C92.2614 12.3706 92.3663 12.0754 92.3663 11.731Z" fill="white"/>
<path d="M103.011 11.3132C103.011 12.0563 102.791 12.6652 102.353 13.1428C101.893 13.6338 101.285 13.8788 100.524 13.8788C99.7916 13.8788 99.208 13.6441 98.7716 13.1726C98.3373 12.7021 98.1201 12.1086 98.1201 11.3932C98.1201 10.6449 98.3436 10.0309 98.7927 9.55432C99.2419 9.07769 99.8456 8.83887 100.607 8.83887C101.339 8.83887 101.929 9.07359 102.374 9.54407C102.798 10.0012 103.011 10.5916 103.011 11.3132ZM101.86 11.3481C101.86 10.9022 101.761 10.5199 101.563 10.2011C101.329 9.81569 100.998 9.62299 100.566 9.62299C100.121 9.62299 99.7821 9.81569 99.548 10.2011C99.3489 10.5199 99.2503 10.9083 99.2503 11.3675C99.2503 11.8134 99.3499 12.1957 99.548 12.5145C99.7884 12.8999 100.123 13.0926 100.555 13.0926C100.979 13.0926 101.313 12.8968 101.552 12.5043C101.757 12.1793 101.86 11.7939 101.86 11.3481Z" fill="white"/>
<path d="M108.98 13.7683H107.871V11.0008C107.871 10.148 107.536 9.72159 106.863 9.72159C106.534 9.72159 106.268 9.83844 106.063 10.0732C105.857 10.3079 105.754 10.5846 105.754 10.9014V13.7673H104.643V10.3171C104.643 9.89276 104.63 9.43254 104.604 8.93439H105.579L105.63 9.68981H105.661C105.791 9.45509 105.984 9.26136 106.236 9.10659C106.538 8.92619 106.874 8.83496 107.244 8.83496C107.709 8.83496 108.096 8.98051 108.405 9.27264C108.789 9.63036 108.98 10.1644 108.98 10.8737V13.7683Z" fill="white"/>
<path d="M116.451 9.74137H115.228V12.0886C115.228 12.6852 115.446 12.9834 115.876 12.9834C116.075 12.9834 116.24 12.967 116.37 12.9332L116.399 13.7481C116.18 13.828 115.892 13.868 115.537 13.868C115.098 13.868 114.757 13.7389 114.51 13.4806C114.262 13.2223 114.139 12.7877 114.139 12.1778V9.74137H113.41V8.93675H114.139V8.05115L115.227 7.7334V8.93572H116.45V9.74137H116.451Z" fill="white"/>
<path d="M122.327 13.7687H121.216V11.0217C121.216 10.1555 120.881 9.72195 120.211 9.72195C119.696 9.72195 119.344 9.97308 119.152 10.4753C119.119 10.5809 119.1 10.7101 119.1 10.8618V13.7676H117.991V6.71973H119.1V9.63175H119.121C119.471 9.10183 119.972 8.83738 120.621 8.83738C121.081 8.83738 121.461 8.98293 121.763 9.27505C122.139 9.63893 122.327 10.1801 122.327 10.8956V13.7687Z" fill="white"/>
<path d="M128.39 11.1241C128.39 11.3168 128.375 11.4787 128.348 11.611H125.019C125.034 12.0886 125.193 12.4525 125.501 12.7046C125.783 12.9301 126.146 13.0429 126.591 13.0429C127.083 13.0429 127.533 12.967 127.937 12.8143L128.111 13.5605C127.637 13.7594 127.08 13.8588 126.435 13.8588C125.662 13.8588 125.053 13.6384 124.612 13.1977C124.169 12.7569 123.95 12.1655 123.95 11.4234C123.95 10.6946 124.155 10.0878 124.567 9.604C124.997 9.0874 125.578 8.8291 126.312 8.8291C127.031 8.8291 127.576 9.0874 127.945 9.604C128.242 10.014 128.39 10.5214 128.39 11.1241ZM127.33 10.8463C127.339 10.5275 127.266 10.2528 127.115 10.0212C126.922 9.7229 126.629 9.57325 126.232 9.57325C125.87 9.57325 125.574 9.7188 125.348 10.0109C125.164 10.2436 125.055 10.5214 125.019 10.8463H127.33Z" fill="white"/>
<path d="M56.8241 32.2921H54.4185L53.1008 28.2853H48.5206L47.2654 32.2921H44.9233L49.4612 18.6514H52.264L56.8241 32.2921ZM52.7036 26.6043L51.5119 23.0425C51.3859 22.6786 51.1497 21.8217 50.8012 20.4728H50.7588C50.62 21.0529 50.3965 21.9098 50.0893 23.0425L48.9189 26.6043H52.7036Z" fill="white"/>
<path d="M68.4942 27.2528C68.4942 28.9256 68.027 30.2479 67.0928 31.2186C66.256 32.0826 65.2168 32.5142 63.9764 32.5142C62.6375 32.5142 61.6757 32.0488 61.09 31.1181H61.0476V36.2995H58.7892V25.6938C58.7892 24.6422 58.7606 23.5628 58.7056 22.4558H60.6917L60.8177 24.0149H60.8601C61.6132 22.8402 62.7562 22.2539 64.29 22.2539C65.4891 22.2539 66.4901 22.7121 67.2909 23.6295C68.0938 24.5479 68.4942 25.7553 68.4942 27.2528ZM66.1935 27.3328C66.1935 26.3754 65.971 25.5862 65.524 24.965C65.0357 24.3172 64.38 23.9933 63.558 23.9933C63.0009 23.9933 62.4945 24.1737 62.0422 24.5294C61.5889 24.8882 61.2923 25.3566 61.1535 25.9367C61.0836 26.2073 61.0486 26.4287 61.0486 26.603V28.243C61.0486 28.9584 61.2753 29.5622 61.7287 30.0552C62.1821 30.5482 62.771 30.7942 63.4955 30.7942C64.3461 30.7942 65.0082 30.4765 65.4816 29.843C65.9562 29.2085 66.1935 28.3721 66.1935 27.3328Z" fill="white"/>
<path d="M80.185 27.2528C80.185 28.9256 79.7179 30.2479 78.7826 31.2186C77.9468 32.0826 76.9077 32.5142 75.6673 32.5142C74.3284 32.5142 73.3666 32.0488 72.7819 31.1181H72.7395V36.2995H70.4811V25.6938C70.4811 24.6422 70.4525 23.5628 70.3975 22.4558H72.3836L72.5096 24.0149H72.552C73.3041 22.8402 74.447 22.2539 75.9819 22.2539C77.1799 22.2539 78.1809 22.7121 78.9838 23.6295C79.7836 24.5479 80.185 25.7553 80.185 27.2528ZM77.8843 27.3328C77.8843 26.3754 77.6608 25.5862 77.2138 24.965C76.7255 24.3172 76.0719 23.9933 75.2489 23.9933C74.6906 23.9933 74.1854 24.1737 73.732 24.5294C73.2786 24.8882 72.9831 25.3566 72.8443 25.9367C72.7755 26.2073 72.7395 26.4287 72.7395 26.603V28.243C72.7395 28.9584 72.9662 29.5622 73.4174 30.0552C73.8708 30.5472 74.4597 30.7942 75.1864 30.7942C76.037 30.7942 76.699 30.4765 77.1725 29.843C77.647 29.2085 77.8843 28.3721 77.8843 27.3328Z" fill="white"/>
<path d="M93.2565 28.4664C93.2565 29.6267 92.8402 30.5708 92.0044 31.2995C91.0861 32.096 89.8075 32.4937 88.1646 32.4937C86.6478 32.4937 85.4317 32.2108 84.5112 31.6439L85.0345 29.8225C86.026 30.4027 87.1138 30.6938 88.2991 30.6938C89.1497 30.6938 89.8118 30.5072 90.2874 30.1362C90.7609 29.7651 90.9971 29.267 90.9971 28.6458C90.9971 28.0923 90.8022 27.6259 90.4113 27.2477C90.0226 26.8695 89.3732 26.5179 88.4665 26.193C85.9984 25.3023 84.7655 23.9974 84.7655 22.2816C84.7655 21.1602 85.1976 20.2408 86.063 19.5254C86.9253 18.8089 88.0756 18.4512 89.5141 18.4512C90.7969 18.4512 91.8625 18.6674 92.7131 19.099L92.1485 20.8804C91.354 20.4622 90.4558 20.2531 89.4506 20.2531C88.6561 20.2531 88.0354 20.4427 87.5905 20.8199C87.2145 21.1572 87.0259 21.5682 87.0259 22.0551C87.0259 22.5942 87.2409 23.0401 87.6731 23.3906C88.0492 23.7145 88.7324 24.0651 89.7238 24.4433C90.9367 24.9158 91.8275 25.4683 92.4006 26.1018C92.9715 26.7332 93.2565 27.5234 93.2565 28.4664Z" fill="white"/>
<path d="M100.723 24.0957H98.2338V28.8711C98.2338 30.0858 98.6723 30.6926 99.5515 30.6926C99.9551 30.6926 100.29 30.6587 100.555 30.5911L100.617 32.2506C100.172 32.4115 99.5864 32.4925 98.8608 32.4925C97.969 32.4925 97.272 32.229 96.7688 31.7032C96.2678 31.1764 96.0157 30.2928 96.0157 29.0515V24.0936H94.5327V22.4536H96.0157V20.6527L98.2338 20.0049V22.4536H100.723V24.0957Z" fill="white"/>
<path d="M111.955 27.2928C111.955 28.8046 111.508 30.0459 110.616 31.0166C109.68 32.016 108.439 32.5141 106.891 32.5141C105.4 32.5141 104.212 32.0354 103.327 31.0781C102.441 30.1207 101.999 28.9123 101.999 27.4557C101.999 25.9316 102.454 24.6831 103.368 23.7124C104.28 22.7407 105.511 22.2549 107.059 22.2549C108.55 22.2549 109.75 22.7336 110.656 23.6919C111.522 24.6216 111.955 25.8219 111.955 27.2928ZM109.611 27.3635C109.611 26.4564 109.411 25.6784 109.006 25.0296C108.532 24.2444 107.855 23.8529 106.978 23.8529C106.07 23.8529 105.381 24.2454 104.907 25.0296C104.502 25.6794 104.301 26.4697 104.301 27.4045C104.301 28.3116 104.502 29.0896 104.907 29.7374C105.396 30.5225 106.078 30.9141 106.958 30.9141C107.82 30.9141 108.497 30.5143 108.985 29.7169C109.402 29.0558 109.611 28.2696 109.611 27.3635Z" fill="white"/>
<path d="M119.295 24.3777C119.072 24.3377 118.833 24.3172 118.583 24.3172C117.789 24.3172 117.175 24.6073 116.742 25.1885C116.366 25.701 116.178 26.3488 116.178 27.1309V32.2917H113.92L113.942 25.5534C113.942 24.4197 113.913 23.3876 113.857 22.4569H115.824L115.907 24.3388H115.969C116.207 23.692 116.583 23.1713 117.098 22.7808C117.601 22.4292 118.145 22.2539 118.731 22.2539C118.939 22.2539 119.128 22.2683 119.295 22.2939V24.3777Z" fill="white"/>
<path d="M129.395 26.9083C129.395 27.2999 129.369 27.6299 129.313 27.8995H122.538C122.564 28.8712 122.891 29.6143 123.521 30.1268C124.091 30.585 124.83 30.8146 125.736 30.8146C126.74 30.8146 127.655 30.6598 128.478 30.3492L128.832 31.8663C127.87 32.2722 126.734 32.4741 125.424 32.4741C123.848 32.4741 122.611 32.0251 121.71 31.1283C120.812 30.2314 120.362 29.027 120.362 27.5161C120.362 26.033 120.78 24.7979 121.618 23.8128C122.495 22.7612 123.68 22.2354 125.172 22.2354C126.637 22.2354 127.746 22.7612 128.499 23.8128C129.095 24.6482 129.395 25.6814 129.395 26.9083ZM127.242 26.3415C127.257 25.6937 127.109 25.1341 126.803 24.6615C126.412 24.0537 125.812 23.7503 125.003 23.7503C124.265 23.7503 123.665 24.0465 123.206 24.641C122.83 25.1136 122.606 25.6804 122.538 26.3405H127.242V26.3415Z" fill="white"/>
</svg>
