<svg width="143" height="41" viewBox="0 0 143 41" fill="none" xmlns="http://www.w3.org/2000/svg">
<path d="M142.206 36.2715C142.206 38.4564 140.385 40.2263 138.133 40.2263H4.87186C2.62126 40.2263 0.794434 38.4564 0.794434 36.2715V4.73338C0.794434 2.54948 2.62126 0.773438 4.87186 0.773438H138.132C140.385 0.773438 142.204 2.54948 142.204 4.73338L142.206 36.2715Z" fill="#EBF2F9"/>
<path d="M31.9133 20.2782C31.8826 16.9747 34.7087 15.3675 34.838 15.2926C33.2374 13.0346 30.7566 12.726 29.8849 12.7014C27.8013 12.4893 25.7802 13.9079 24.7189 13.9079C23.6363 13.9079 22.0019 12.7219 20.2403 12.7568C17.9735 12.7906 15.8529 14.0606 14.6898 16.0327C12.2895 20.0538 14.0797 25.9629 16.3793 29.2132C17.5297 30.805 18.8739 32.5823 20.6333 32.5198C22.3546 32.4511 22.9976 31.4579 25.0748 31.4579C27.1329 31.4579 27.7367 32.5198 29.5311 32.4798C31.3784 32.4511 32.5415 30.8808 33.6516 29.2747C34.981 27.4502 35.5148 25.6533 35.536 25.5611C35.4926 25.5467 31.9483 24.2378 31.9133 20.2782Z" fill="#989FAA"/>
<path d="M28.5237 10.5633C29.4495 9.44297 30.0829 7.91879 29.9071 6.37207C28.5671 6.42947 26.8914 7.26895 25.9264 8.36467C25.0726 9.33022 24.31 10.9128 24.507 12.4011C26.0122 12.5098 27.5577 11.6662 28.5237 10.5633Z" fill="#989FAA"/>
<path d="M51.9567 10.2587C51.9567 11.4651 51.5828 12.3733 50.836 12.9831C50.1443 13.5459 49.1613 13.8277 47.8881 13.8277C47.2567 13.8277 46.7165 13.8011 46.2642 13.7478V7.156C46.8542 7.06375 47.4898 7.0166 48.1762 7.0166C49.389 7.0166 50.3032 7.27183 50.9197 7.78228C51.6103 8.35935 51.9567 9.18448 51.9567 10.2587ZM50.7862 10.2884C50.7862 9.50633 50.5722 8.9067 50.1443 8.4885C49.7164 8.07133 49.0914 7.86223 48.2683 7.86223C47.9188 7.86223 47.6211 7.88478 47.3743 7.93193V12.9432C47.511 12.9637 47.761 12.9729 48.1243 12.9729C48.9738 12.9729 49.6295 12.7443 50.0913 12.2872C50.5532 11.83 50.7862 11.1638 50.7862 10.2884Z" fill="#989FAA"/>
<path d="M58.1629 11.3132C58.1629 12.0563 57.9436 12.6652 57.5051 13.1428C57.0454 13.6338 56.4363 13.8788 55.6757 13.8788C54.9427 13.8788 54.3591 13.6441 53.9237 13.1726C53.4894 12.7021 53.2723 12.1086 53.2723 11.3932C53.2723 10.6449 53.4958 10.0309 53.9449 9.55432C54.394 9.07769 54.9978 8.83887 55.7584 8.83887C56.4914 8.83887 57.0803 9.07359 57.5263 9.54407C57.95 10.0012 58.1629 10.5916 58.1629 11.3132ZM57.0115 11.3481C57.0115 10.9022 56.9119 10.5199 56.7138 10.2011C56.4808 9.81569 56.1492 9.62299 55.7181 9.62299C55.2722 9.62299 54.9332 9.81569 54.7002 10.2011C54.501 10.5199 54.4025 10.9083 54.4025 11.3675C54.4025 11.8134 54.5021 12.1957 54.7002 12.5145C54.9406 12.8999 55.2753 13.0926 55.7075 13.0926C56.1312 13.0926 56.4638 12.8968 56.7032 12.5043C56.9087 12.1793 57.0115 11.7939 57.0115 11.3481Z" fill="#989FAA"/>
<path d="M66.4844 8.93652L64.922 13.7684H63.9051L63.2579 11.6702C63.0937 11.1464 62.9603 10.6257 62.8565 10.1091H62.8363C62.7399 10.6401 62.6065 11.1597 62.4349 11.6702L61.7474 13.7684H60.7189L59.2497 8.93652H60.3905L60.9551 11.2335C61.0917 11.7768 61.204 12.2944 61.2941 12.7844H61.3142C61.3968 12.3805 61.5335 11.866 61.7262 11.2438L62.4349 8.93755H63.3395L64.0185 11.1946C64.1827 11.745 64.3161 12.2749 64.4189 12.7854H64.4496C64.5248 12.2883 64.6381 11.7583 64.7886 11.1946L65.3945 8.93755H66.4844V8.93652Z" fill="#989FAA"/>
<path d="M72.2394 13.7683H71.1293V11.0008C71.1293 10.148 70.7945 9.72159 70.123 9.72159C69.7935 9.72159 69.5277 9.83844 69.3211 10.0732C69.1167 10.3079 69.0129 10.5846 69.0129 10.9014V13.7673H67.9028V10.3171C67.9028 9.89276 67.889 9.43254 67.8625 8.93439H68.8381L68.89 9.68981H68.9207C69.0499 9.45509 69.2427 9.26136 69.4959 9.10659C69.7967 8.92619 70.1336 8.83496 70.5022 8.83496C70.9683 8.83496 71.3559 8.98051 71.6642 9.27264C72.0476 9.63036 72.2394 10.1644 72.2394 10.8737V13.7683Z" fill="#989FAA"/>
<path d="M75.3006 13.7687H74.1916V6.71973H75.3006V13.7687Z" fill="#989FAA"/>
<path d="M81.8363 11.3132C81.8363 12.0563 81.617 12.6652 81.1785 13.1428C80.7188 13.6338 80.1086 13.8788 79.3491 13.8788C78.6151 13.8788 78.0314 13.6441 77.5971 13.1726C77.1628 12.7021 76.9457 12.1086 76.9457 11.3932C76.9457 10.6449 77.1692 10.0309 77.6183 9.55432C78.0674 9.07769 78.6712 8.83887 79.4307 8.83887C80.1648 8.83887 80.7527 9.07359 81.1997 9.54407C81.6234 10.0012 81.8363 10.5916 81.8363 11.3132ZM80.6838 11.3481C80.6838 10.9022 80.5842 10.5199 80.3862 10.2011C80.1542 9.81569 79.8216 9.62299 79.3915 9.62299C78.9445 9.62299 78.6055 9.81569 78.3736 10.2011C78.1744 10.5199 78.0759 10.9083 78.0759 11.3675C78.0759 11.8134 78.1755 12.1957 78.3736 12.5145C78.614 12.8999 78.9487 13.0926 79.3809 13.0926C79.8046 13.0926 80.1362 12.8968 80.3756 12.5043C80.5821 12.1793 80.6838 11.7939 80.6838 11.3481Z" fill="#989FAA"/>
<path d="M87.2088 13.7691H86.2121L86.1294 13.2125H86.0987C85.7576 13.6564 85.2714 13.8788 84.6401 13.8788C84.1688 13.8788 83.7874 13.7322 83.5004 13.4411C83.2398 13.1767 83.1095 12.8476 83.1095 12.4571C83.1095 11.8667 83.3637 11.4167 83.8753 11.1051C84.3859 10.7935 85.1041 10.6408 86.0288 10.648V10.5578C86.0288 9.92127 85.6835 9.60352 84.9918 9.60352C84.4992 9.60352 84.065 9.72344 83.69 9.96124L83.4643 9.25604C83.9283 8.97827 84.5014 8.83887 85.1772 8.83887C86.4822 8.83887 87.1368 9.50512 87.1368 10.8376V12.617C87.1368 13.0998 87.1612 13.4842 87.2088 13.7691ZM86.0563 12.1086V11.3634C84.8318 11.3429 84.2196 11.6679 84.2196 12.3372C84.2196 12.5893 84.2895 12.7779 84.4325 12.904C84.5755 13.0301 84.7577 13.0926 84.9749 13.0926C85.2185 13.0926 85.4462 13.0178 85.6538 12.8692C85.8625 12.7195 85.9907 12.5299 86.0383 12.2972C86.05 12.2449 86.0563 12.1814 86.0563 12.1086Z" fill="#989FAA"/>
<path d="M93.5167 13.7687H92.5316L92.4797 12.9927H92.449C92.1344 13.5831 91.5984 13.8783 90.8453 13.8783C90.2436 13.8783 89.7426 13.6498 89.3454 13.1926C88.9481 12.7355 88.7501 12.142 88.7501 11.4132C88.7501 10.6311 88.9651 9.99768 89.3973 9.51388C89.8157 9.06288 90.3283 8.83738 90.9385 8.83738C91.609 8.83738 92.0782 9.0557 92.3452 9.49338H92.3664V6.71973H93.4775V12.4669C93.4775 12.9374 93.4902 13.371 93.5167 13.7687ZM92.3664 11.731V10.9253C92.3664 10.7859 92.3558 10.6732 92.3356 10.5871C92.2731 10.3288 92.1386 10.1115 91.9342 9.93618C91.7276 9.7609 91.4787 9.67275 91.1916 9.67275C90.7775 9.67275 90.4533 9.83163 90.215 10.1504C89.9788 10.4692 89.8591 10.8761 89.8591 11.3732C89.8591 11.8509 89.9724 12.2383 90.2002 12.5366C90.4406 12.8544 90.7648 13.0132 91.1705 13.0132C91.5348 13.0132 91.8261 12.881 92.0475 12.6155C92.2615 12.3706 92.3664 12.0754 92.3664 11.731Z" fill="#989FAA"/>
<path d="M103.011 11.3132C103.011 12.0563 102.792 12.6652 102.353 13.1428C101.893 13.6338 101.285 13.8788 100.524 13.8788C99.7918 13.8788 99.2081 13.6441 98.7717 13.1726C98.3374 12.7021 98.1203 12.1086 98.1203 11.3932C98.1203 10.6449 98.3438 10.0309 98.7929 9.55432C99.242 9.07769 99.8458 8.83887 100.607 8.83887C101.339 8.83887 101.929 9.07359 102.374 9.54407C102.798 10.0012 103.011 10.5916 103.011 11.3132ZM101.861 11.3481C101.861 10.9022 101.761 10.5199 101.563 10.2011C101.329 9.81569 100.998 9.62299 100.566 9.62299C100.121 9.62299 99.7822 9.81569 99.5481 10.2011C99.349 10.5199 99.2505 10.9083 99.2505 11.3675C99.2505 11.8134 99.3501 12.1957 99.5481 12.5145C99.7886 12.8999 100.123 13.0926 100.556 13.0926C100.979 13.0926 101.313 12.8968 101.552 12.5043C101.757 12.1793 101.861 11.7939 101.861 11.3481Z" fill="#989FAA"/>
<path d="M108.98 13.7683H107.871V11.0008C107.871 10.148 107.536 9.72159 106.863 9.72159C106.534 9.72159 106.268 9.83844 106.063 10.0732C105.857 10.3079 105.754 10.5846 105.754 10.9014V13.7673H104.643V10.3171C104.643 9.89276 104.63 9.43254 104.604 8.93439H105.579L105.63 9.68981H105.661C105.791 9.45509 105.984 9.26136 106.236 9.10659C106.538 8.92619 106.874 8.83496 107.244 8.83496C107.709 8.83496 108.096 8.98051 108.405 9.27264C108.789 9.63036 108.98 10.1644 108.98 10.8737V13.7683Z" fill="#989FAA"/>
<path d="M116.451 9.74137H115.228V12.0886C115.228 12.6852 115.446 12.9834 115.876 12.9834C116.075 12.9834 116.24 12.967 116.37 12.9332L116.399 13.7481C116.18 13.828 115.891 13.868 115.537 13.868C115.098 13.868 114.757 13.7389 114.51 13.4806C114.262 13.2223 114.139 12.7877 114.139 12.1778V9.74137H113.41V8.93675H114.139V8.05115L115.227 7.7334V8.93572H116.45V9.74137H116.451Z" fill="#989FAA"/>
<path d="M122.328 13.7687H121.216V11.0217C121.216 10.1555 120.882 9.72195 120.211 9.72195C119.696 9.72195 119.345 9.97308 119.152 10.4753C119.119 10.5809 119.1 10.7101 119.1 10.8618V13.7676H117.991V6.71973H119.1V9.63175H119.121C119.471 9.10183 119.972 8.83738 120.621 8.83738C121.081 8.83738 121.461 8.98293 121.763 9.27505C122.139 9.63893 122.328 10.1801 122.328 10.8956V13.7687Z" fill="#989FAA"/>
<path d="M128.39 11.1241C128.39 11.3168 128.375 11.4787 128.348 11.611H125.019C125.034 12.0886 125.193 12.4525 125.501 12.7046C125.783 12.9301 126.146 13.0429 126.591 13.0429C127.084 13.0429 127.533 12.967 127.937 12.8143L128.111 13.5605C127.638 13.7594 127.08 13.8588 126.435 13.8588C125.662 13.8588 125.053 13.6384 124.612 13.1977C124.17 12.7569 123.95 12.1655 123.95 11.4234C123.95 10.6946 124.155 10.0878 124.567 9.604C124.997 9.0874 125.578 8.8291 126.312 8.8291C127.031 8.8291 127.576 9.0874 127.945 9.604C128.242 10.014 128.39 10.5214 128.39 11.1241ZM127.33 10.8463C127.339 10.5275 127.266 10.2528 127.115 10.0212C126.923 9.7229 126.629 9.57325 126.232 9.57325C125.87 9.57325 125.574 9.7188 125.349 10.0109C125.164 10.2436 125.055 10.5214 125.019 10.8463H127.33Z" fill="#989FAA"/>
<path d="M56.8239 32.2921H54.4184L53.1006 28.2853H48.5204L47.2652 32.2921H44.9232L49.461 18.6514H52.2638L56.8239 32.2921ZM52.7034 26.6043L51.5117 23.0425C51.3857 22.6786 51.1495 21.8217 50.801 20.4728H50.7586C50.6198 21.0529 50.3963 21.9098 50.0892 23.0425L48.9187 26.6043H52.7034Z" fill="#989FAA"/>
<path d="M68.4938 27.2528C68.4938 28.9256 68.0267 30.2479 67.0924 31.2186C66.2556 32.0826 65.2164 32.5142 63.976 32.5142C62.6371 32.5142 61.6753 32.0488 61.0896 31.1181H61.0472V36.2995H58.7888V25.6938C58.7888 24.6422 58.7603 23.5628 58.7052 22.4558H60.6913L60.8173 24.0149H60.8597C61.6128 22.8402 62.7558 22.2539 64.2896 22.2539C65.4887 22.2539 66.4897 22.7121 67.2905 23.6295C68.0934 24.5479 68.4938 25.7553 68.4938 27.2528ZM66.1931 27.3328C66.1931 26.3754 65.9706 25.5862 65.5236 24.965C65.0353 24.3172 64.3796 23.9933 63.5576 23.9933C63.0005 23.9933 62.4941 24.1737 62.0418 24.5294C61.5885 24.8882 61.2919 25.3566 61.1531 25.9367C61.0832 26.2073 61.0482 26.4287 61.0482 26.603V28.243C61.0482 28.9584 61.2749 29.5622 61.7283 30.0552C62.1817 30.5482 62.7706 30.7942 63.4951 30.7942C64.3457 30.7942 65.0078 30.4765 65.4813 29.843C65.9558 29.2085 66.1931 28.3721 66.1931 27.3328Z" fill="#989FAA"/>
<path d="M80.1848 27.2528C80.1848 28.9256 79.7177 30.2479 78.7824 31.2186C77.9466 32.0826 76.9075 32.5142 75.6671 32.5142C74.3282 32.5142 73.3664 32.0488 72.7817 31.1181H72.7393V36.2995H70.481V25.6938C70.481 24.6422 70.4524 23.5628 70.3973 22.4558H72.3834L72.5094 24.0149H72.5518C73.3039 22.8402 74.4468 22.2539 75.9817 22.2539C77.1797 22.2539 78.1807 22.7121 78.9836 23.6295C79.7834 24.5479 80.1848 25.7553 80.1848 27.2528ZM77.8841 27.3328C77.8841 26.3754 77.6606 25.5862 77.2136 24.965C76.7253 24.3172 76.0717 23.9933 75.2487 23.9933C74.6905 23.9933 74.1852 24.1737 73.7318 24.5294C73.2785 24.8882 72.9829 25.3566 72.8442 25.9367C72.7753 26.2073 72.7393 26.4287 72.7393 26.603V28.243C72.7393 28.9584 72.966 29.5622 73.4172 30.0552C73.8706 30.5472 74.4595 30.7942 75.1862 30.7942C76.0368 30.7942 76.6988 30.4765 77.1723 29.843C77.6469 29.2085 77.8841 28.3721 77.8841 27.3328Z" fill="#989FAA"/>
<path d="M93.2561 28.4664C93.2561 29.6267 92.8398 30.5708 92.0041 31.2995C91.0857 32.096 89.8072 32.4937 88.1643 32.4937C86.6474 32.4937 85.4314 32.2108 84.5109 31.6439L85.0341 29.8225C86.0256 30.4027 87.1135 30.6938 88.2988 30.6938C89.1494 30.6938 89.8114 30.5072 90.287 30.1362C90.7605 29.7651 90.9967 29.267 90.9967 28.6458C90.9967 28.0923 90.8018 27.6259 90.4109 27.2477C90.0222 26.8695 89.3729 26.5179 88.4661 26.193C85.9981 25.3023 84.7651 23.9974 84.7651 22.2816C84.7651 21.1602 85.1973 20.2408 86.0627 19.5254C86.9249 18.8089 88.0753 18.4512 89.5137 18.4512C90.7965 18.4512 91.8621 18.6674 92.7127 19.099L92.1481 20.8804C91.3537 20.4622 90.4554 20.2531 89.4502 20.2531C88.6557 20.2531 88.035 20.4427 87.5901 20.8199C87.2141 21.1572 87.0255 21.5682 87.0255 22.0551C87.0255 22.5942 87.2406 23.0401 87.6728 23.3906C88.0488 23.7145 88.732 24.0651 89.7235 24.4433C90.9363 24.9158 91.8272 25.4683 92.4002 26.1018C92.9712 26.7332 93.2561 27.5234 93.2561 28.4664Z" fill="#989FAA"/>
<path d="M100.723 24.0957H98.2335V28.8711C98.2335 30.0858 98.6721 30.6926 99.5513 30.6926C99.9548 30.6926 100.29 30.6587 100.554 30.5911L100.617 32.2506C100.172 32.4115 99.5862 32.4925 98.8606 32.4925C97.9687 32.4925 97.2717 32.229 96.7686 31.7032C96.2676 31.1764 96.0155 30.2928 96.0155 29.0515V24.0936H94.5325V22.4536H96.0155V20.6527L98.2335 20.0049V22.4536H100.723V24.0957Z" fill="#989FAA"/>
<path d="M111.954 27.2928C111.954 28.8046 111.507 30.0459 110.615 31.0166C109.68 32.016 108.438 32.5141 106.891 32.5141C105.399 32.5141 104.212 32.0354 103.326 31.0781C102.441 30.1207 101.998 28.9123 101.998 27.4557C101.998 25.9316 102.454 24.6831 103.368 23.7124C104.28 22.7407 105.511 22.2549 107.058 22.2549C108.55 22.2549 109.75 22.7336 110.655 23.6919C111.522 24.6216 111.954 25.8219 111.954 27.2928ZM109.611 27.3635C109.611 26.4564 109.411 25.6784 109.005 25.0296C108.532 24.2444 107.855 23.8529 106.978 23.8529C106.07 23.8529 105.38 24.2454 104.907 25.0296C104.501 25.6794 104.301 26.4697 104.301 27.4045C104.301 28.3116 104.501 29.0896 104.907 29.7374C105.395 30.5225 106.077 30.9141 106.958 30.9141C107.82 30.9141 108.497 30.5143 108.985 29.7169C109.401 29.0558 109.611 28.2696 109.611 27.3635Z" fill="#989FAA"/>
<path d="M119.295 24.3777C119.071 24.3377 118.833 24.3172 118.583 24.3172C117.789 24.3172 117.174 24.6073 116.742 25.1885C116.366 25.701 116.177 26.3488 116.177 27.1309V32.2917H113.92L113.941 25.5534C113.941 24.4197 113.913 23.3876 113.857 22.4569H115.824L115.906 24.3388H115.969C116.207 23.692 116.583 23.1713 117.098 22.7808C117.601 22.4292 118.144 22.2539 118.73 22.2539C118.939 22.2539 119.127 22.2683 119.295 22.2939V24.3777Z" fill="#989FAA"/>
<path d="M129.395 26.9083C129.395 27.2999 129.368 27.6299 129.312 27.8995H122.537C122.564 28.8712 122.891 29.6143 123.52 30.1268C124.091 30.585 124.829 30.8146 125.736 30.8146C126.739 30.8146 127.654 30.6598 128.478 30.3492L128.831 31.8663C127.87 32.2722 126.734 32.4741 125.424 32.4741C123.847 32.4741 122.61 32.0251 121.71 31.1283C120.812 30.2314 120.361 29.027 120.361 27.5161C120.361 26.033 120.78 24.7979 121.618 23.8128C122.495 22.7612 123.68 22.2354 125.172 22.2354C126.637 22.2354 127.746 22.7612 128.499 23.8128C129.095 24.6482 129.395 25.6814 129.395 26.9083ZM127.241 26.3415C127.256 25.6937 127.109 25.1341 126.803 24.6615C126.412 24.0537 125.811 23.7503 125.003 23.7503C124.265 23.7503 123.664 24.0465 123.206 24.641C122.83 25.1136 122.606 25.6804 122.537 26.3405H127.241V26.3415Z" fill="#989FAA"/>
</svg>
