<svg width="123" height="122" viewBox="0 0 123 122" fill="none" xmlns="http://www.w3.org/2000/svg">
<circle cx="61.5" cy="61" r="60.25" fill="white" stroke="#296DF1" stroke-width="1.5"/>
<path d="M85.2175 55.5529C85.9781 55.5529 86.7116 55.662 87.4179 55.7711L94.7257 46.0048C85.6521 39.1575 74.351 35.0928 62.1261 35.0928C49.9013 35.0928 38.6001 39.1575 29.5266 46.0048L62.1261 89.6531L71.6343 76.9132V69.193C71.6343 61.6636 77.7196 55.5529 85.2175 55.5529ZM92.009 73.285V69.193C92.009 65.4283 88.9664 62.3729 85.2175 62.3729C81.4685 62.3729 78.4259 65.4283 78.4259 69.193V73.285C76.9318 73.285 75.7093 74.5126 75.7093 76.013V86.9251C75.7093 88.4255 76.9318 89.6531 78.4259 89.6531H92.009C93.5032 89.6531 94.7257 88.4255 94.7257 86.9251V76.013C94.7257 74.5126 93.5032 73.285 92.009 73.285ZM89.2924 73.285H81.1425V69.193C81.1425 66.9287 82.9627 65.1009 85.2175 65.1009C87.4723 65.1009 89.2924 66.9287 89.2924 69.193V73.285Z" fill="url(#paint0_linear_22_10733)"/>
<defs>
<linearGradient id="paint0_linear_22_10733" x1="47.103" y1="35.0928" x2="75.7699" y2="89.6533" gradientUnits="userSpaceOnUse">
<stop stop-color="#286CF0"/>
<stop offset="1" stop-color="#6297FE"/>
</linearGradient>
</defs>
</svg>
