<svg width="122" height="122" viewBox="0 0 122 122" fill="none" xmlns="http://www.w3.org/2000/svg">
<circle cx="61" cy="61" r="60.25" fill="white" stroke="#296DF1" stroke-width="1.5"/>
<path fill-rule="evenodd" clip-rule="evenodd" d="M55.3679 33.9265C49.5624 40.1871 47.6862 47.0163 49.089 56.783C49.6106 60.4139 49.5768 60.5138 47.5776 61.215C42.0555 63.1535 38.4542 66.8623 37.3572 71.7411C36.7622 74.3843 36.8586 75.0061 38.042 76.1724C39.3362 77.4479 40.7038 77.5287 61 77.5287C81.2962 77.5287 82.6638 77.4479 83.958 76.1724C85.1414 75.0061 85.2378 74.3843 84.6428 71.7411C83.5458 66.8623 79.9445 63.1535 74.4224 61.215C72.4232 60.5138 72.3894 60.4139 72.911 56.783C74.3138 47.0163 72.4376 40.1871 66.6321 33.9265C61.7769 28.6912 60.2231 28.6912 55.3679 33.9265ZM64.1862 44.6099C65.6401 46.0429 65.6401 49.4575 64.1862 50.8904C63.5639 51.503 62.1302 52.0042 61 52.0042C58.3785 52.0042 56.6836 50.3338 56.6836 47.7502C56.6836 45.1665 58.3785 43.4961 61 43.4961C62.1302 43.4961 63.5639 43.9973 64.1862 44.6099ZM51.4839 69.0206L52.2141 71.8566H47.615C44.8086 71.8566 43.0152 71.5588 43.0152 71.093C43.0152 69.6388 47.2172 66.1845 48.9869 66.1845C50.4465 66.1845 50.8803 66.6773 51.4839 69.0206ZM76.882 68.257C79.9776 71.3079 79.5977 71.8566 74.385 71.8566H69.7859L70.5161 69.0206C71.1197 66.6773 71.5535 66.1845 73.0131 66.1845C74.0059 66.1845 75.7001 67.0921 76.882 68.257ZM57.403 84.3452C57.403 85.637 60.3015 91 61 91C61.6985 91 64.597 85.637 64.597 84.3452C64.597 83.4447 63.8308 83.2008 61 83.2008C58.1692 83.2008 57.403 83.4447 57.403 84.3452Z" fill="url(#paint0_linear_22_10741)"/>
<defs>
<linearGradient id="paint0_linear_22_10741" x1="49.9398" y1="30" x2="87.8887" y2="77.5602" gradientUnits="userSpaceOnUse">
<stop stop-color="#286CF0"/>
<stop offset="1" stop-color="#6297FE"/>
</linearGradient>
</defs>
</svg>
