<svg width="122" height="122" viewBox="0 0 122 122" fill="none" xmlns="http://www.w3.org/2000/svg">
<circle cx="61" cy="61" r="61" fill="url(#paint0_linear_22_10587)"/>
<path d="M33.7046 41.0308C33.7046 35.3111 39.5271 31.4348 44.804 33.6415L61.1982 40.4972L77.5924 33.6415C82.8693 31.4348 88.6918 35.3111 88.6918 41.0308V56.6476C88.6918 71.8319 76.3825 84.2953 61.1982 84.2953C46.0139 84.2953 33.7046 71.8319 33.7046 56.6476V41.0308Z" fill="white"/>
<path fill-rule="evenodd" clip-rule="evenodd" d="M61.1982 93.2287C46.0139 93.2287 33.7046 80.9194 33.7046 65.7351V56.6476C33.7046 51.2642 39.2033 40.4972 61.1982 40.4972C83.193 40.4972 88.6918 51.2642 88.6918 56.6476V65.7351C88.6918 80.9194 76.3825 93.2287 61.1982 93.2287Z" fill="white"/>
<path d="M60.6337 48.7043L61.1983 48.9404L61.7629 48.7043L74.2997 43.4609C77.3706 42.1766 80.7596 44.4326 80.7596 47.7624V59.7064V66.6566C80.7596 77.4618 72.0015 86.2208 61.1983 86.2208C50.3951 86.2208 41.6371 77.4618 41.6371 66.6566V59.7064V47.7624C41.6371 44.4326 45.0261 42.1766 48.097 43.4609L60.6337 48.7043Z" stroke="url(#paint1_linear_22_10587)" stroke-width="2.92649"/>
<defs>
<linearGradient id="paint0_linear_22_10587" x1="17.6205" y1="7.90156" x2="106.75" y2="118.207" gradientUnits="userSpaceOnUse">
<stop stop-color="#2268EF"/>
<stop offset="1" stop-color="#699CFF"/>
</linearGradient>
<linearGradient id="paint1_linear_22_10587" x1="36.5542" y1="39.474" x2="82.2228" y2="92.8439" gradientUnits="userSpaceOnUse">
<stop stop-color="#6397FE"/>
<stop offset="1" stop-color="#276CF0"/>
</linearGradient>
</defs>
</svg>
