<svg width="32" height="32" viewBox="0 0 32 32" fill="none" xmlns="http://www.w3.org/2000/svg">
<path d="M0 16C0 7.16344 7.16344 0 16 0C24.8366 0 32 7.16344 32 16C32 24.8366 24.8366 32 16 32C7.16344 32 0 24.8366 0 16Z" fill="#6B7685"/>
<path d="M23.7625 8.65914C22.3348 7.98386 20.8038 7.48634 19.2031 7.20139C19.1739 7.19589 19.1448 7.20963 19.1298 7.23712C18.9329 7.59812 18.7148 8.06906 18.5621 8.43923C16.8404 8.17352 15.1275 8.17352 13.4411 8.43923C13.2883 8.06084 13.0623 7.59812 12.8645 7.23712C12.8495 7.21055 12.8204 7.19681 12.7912 7.20139C11.1914 7.48543 9.66038 7.98295 8.23179 8.65914C8.21943 8.66464 8.20883 8.67381 8.20179 8.68571C5.29782 13.1579 4.5023 17.5202 4.89256 21.8284C4.89432 21.8494 4.9058 21.8696 4.92169 21.8824C6.83765 23.3328 8.69358 24.2134 10.515 24.797C10.5442 24.8062 10.5751 24.7952 10.5936 24.7704C11.0245 24.1639 11.4086 23.5243 11.7379 22.8518C11.7573 22.8124 11.7388 22.7657 11.6991 22.7501C11.0898 22.5119 10.5097 22.2214 9.95174 21.8916C9.9076 21.865 9.90407 21.7999 9.94467 21.7688C10.0621 21.6781 10.1796 21.5837 10.2917 21.4884C10.312 21.471 10.3402 21.4673 10.3641 21.4783C14.03 23.2036 17.9988 23.2036 21.6214 21.4783C21.6453 21.4664 21.6735 21.4701 21.6947 21.4875C21.8069 21.5828 21.9243 21.6781 22.0426 21.7688C22.0832 21.7999 22.0805 21.865 22.0364 21.8916C21.4784 22.2278 20.8983 22.5119 20.2882 22.7492C20.2485 22.7648 20.2308 22.8124 20.2502 22.8518C20.5866 23.5234 20.9707 24.1629 21.3936 24.7695C21.4113 24.7952 21.4431 24.8062 21.4722 24.797C23.3025 24.2134 25.1584 23.3328 27.0744 21.8824C27.0912 21.8696 27.1018 21.8504 27.1035 21.8293C27.5706 16.8485 26.3212 12.522 23.7917 8.68662C23.7855 8.67381 23.7749 8.66464 23.7625 8.65914ZM12.2853 19.2051C11.1817 19.2051 10.2722 18.1606 10.2722 16.8779C10.2722 15.5951 11.164 14.5506 12.2853 14.5506C13.4155 14.5506 14.3161 15.6043 14.2984 16.8779C14.2984 18.1606 13.4066 19.2051 12.2853 19.2051ZM19.7284 19.2051C18.6248 19.2051 17.7154 18.1606 17.7154 16.8779C17.7154 15.5951 18.6071 14.5506 19.7284 14.5506C20.8586 14.5506 21.7592 15.6043 21.7415 16.8779C21.7415 18.1606 20.8586 19.2051 19.7284 19.2051Z" fill="white"/>
</svg>
