<svg width="141" height="41" viewBox="0 0 141 41" fill="none" xmlns="http://www.w3.org/2000/svg">
<path d="M135.778 41H5.22222C2.35131 41 0 38.6925 0 35.875V5.125C0 2.30753 2.35131 -1.95259e-07 5.22222 -1.95259e-07H135.778C138.649 -1.95259e-07 141 2.30753 141 5.125V35.875C141 38.6925 138.649 41 135.778 41Z" fill="#EBF2F9"/>
<path d="M10.2589 7.7268C9.94777 8.04199 9.7677 8.53271 9.7677 9.16821V31.8361C9.7677 32.4716 9.94777 32.9623 10.2589 33.2775L10.3357 33.3467L23.4626 20.6495V20.3497L10.3357 7.65249L10.2589 7.7268Z" fill="#989FAA"/>
<path d="M29.4222 24.8848L25.0515 20.6502V20.3504L29.4275 16.1159L29.5255 16.171L34.7079 19.0243C36.1869 19.8341 36.1869 21.1666 34.7079 21.9815L29.5255 24.8297L29.4222 24.8848Z" fill="#989FAA"/>
<path d="M28.7311 25.6179L24.257 21.2885L11.0534 34.0664C11.5446 34.5661 12.3457 34.6263 13.2566 34.1266L28.7311 25.6179Z" fill="#989FAA"/>
<path d="M28.7311 15.3826L13.2566 6.87379C12.3457 6.37923 11.5446 6.43945 11.0534 6.93913L24.257 19.7119L28.7311 15.3826Z" fill="#989FAA"/>
<path d="M50.2274 10.4994C50.2274 11.3552 49.9626 12.0407 49.4409 12.5519C48.8411 13.1579 48.0599 13.4629 47.1026 13.4629C46.1877 13.4629 45.4065 13.1528 44.7656 12.5417C44.1234 11.9215 43.803 11.1605 43.803 10.2495C43.803 9.33854 44.1234 8.57748 44.7656 7.96248C45.4065 7.3462 46.1877 7.03613 47.1026 7.03613C47.5581 7.03613 47.9924 7.1271 48.4068 7.29623C48.8199 7.46663 49.1562 7.69726 49.3999 7.98169L48.8464 8.52238C48.4214 8.03679 47.8428 7.7972 47.1026 7.7972C46.4353 7.7972 45.8566 8.0227 45.3654 8.47754C44.8795 8.93366 44.6358 9.52432 44.6358 10.2495C44.6358 10.9747 44.8795 11.5705 45.3654 12.0266C45.8566 12.4763 46.4353 12.7069 47.1026 12.7069C47.811 12.7069 48.4068 12.4763 48.8769 12.0215C49.1867 11.7204 49.3628 11.3053 49.4091 10.7748H47.1026V10.0343H50.1797C50.2168 10.1944 50.2274 10.3494 50.2274 10.4994Z" fill="#989FAA" stroke="#989FAA" stroke-width="0.16" stroke-miterlimit="10"/>
<path d="M55.1093 7.93141H52.2188V9.87891H54.8246V10.6195H52.2188V12.567H55.1093V13.3216H51.4005V7.17676H55.1093V7.93141Z" fill="#989FAA" stroke="#989FAA" stroke-width="0.16" stroke-miterlimit="10"/>
<path d="M58.5545 13.3216H57.7362V7.93141H55.9633V7.17676H60.3288V7.93141H58.5545V13.3216Z" fill="#989FAA" stroke="#989FAA" stroke-width="0.16" stroke-miterlimit="10"/>
<path d="M63.488 13.3216V7.17676H64.305V13.3216H63.488Z" fill="#989FAA" stroke="#989FAA" stroke-width="0.16" stroke-miterlimit="10"/>
<path d="M67.9263 13.3216H67.1146V7.93141H65.3351V7.17676H69.7058V7.93141H67.9263V13.3216Z" fill="#989FAA" stroke="#989FAA" stroke-width="0.16" stroke-miterlimit="10"/>
<path d="M77.9707 12.5314C77.3444 13.1528 76.5685 13.4629 75.643 13.4629C74.7122 13.4629 73.9363 13.1528 73.31 12.5314C72.685 11.9113 72.3739 11.1502 72.3739 10.2495C72.3739 9.34879 72.685 8.58773 73.31 7.9676C73.9363 7.3462 74.7122 7.03613 75.643 7.03613C76.5632 7.03613 77.3392 7.3462 77.9654 7.97273C78.5957 8.59798 78.9069 9.35391 78.9069 10.2495C78.9069 11.1502 78.5957 11.9113 77.9707 12.5314ZM73.9151 12.0164C74.3865 12.4763 74.9598 12.7069 75.643 12.7069C76.3209 12.7069 76.8996 12.4763 77.3656 12.0164C77.8357 11.5564 78.074 10.9657 78.074 10.2495C78.074 9.53329 77.8357 8.94263 77.3656 8.48266C76.8996 8.0227 76.3209 7.79207 75.643 7.79207C74.9598 7.79207 74.3865 8.0227 73.9151 8.48266C73.445 8.94263 73.2067 9.53329 73.2067 10.2495C73.2067 10.9657 73.445 11.5564 73.9151 12.0164Z" fill="#989FAA" stroke="#989FAA" stroke-width="0.16" stroke-miterlimit="10"/>
<path d="M80.0548 13.3216V7.17676H81.0479L84.1356 11.9558H84.1714L84.1356 10.7745V7.17676H84.9526V13.3216H84.0999L80.8665 8.30682H80.8307L80.8665 9.49326V13.3216H80.0548Z" fill="#989FAA" stroke="#989FAA" stroke-width="0.16" stroke-miterlimit="10"/>
<path d="M72.1726 22.2966C69.6847 22.2966 67.6522 24.1288 67.6522 26.6567C67.6522 29.1641 69.6847 31.0155 72.1726 31.0155C74.6659 31.0155 76.6983 29.1641 76.6983 26.6567C76.6983 24.1288 74.6659 22.2966 72.1726 22.2966ZM72.1726 29.2986C70.8075 29.2986 69.6331 28.2083 69.6331 26.6567C69.6331 25.0846 70.8075 24.0134 72.1726 24.0134C73.5378 24.0134 74.7175 25.0846 74.7175 26.6567C74.7175 28.2083 73.5378 29.2986 72.1726 29.2986ZM62.3096 22.2966C59.8164 22.2966 57.7892 24.1288 57.7892 26.6567C57.7892 29.1641 59.8164 31.0155 62.3096 31.0155C64.8015 31.0155 66.83 29.1641 66.83 26.6567C66.83 24.1288 64.8015 22.2966 62.3096 22.2966ZM62.3096 29.2986C60.9432 29.2986 59.7647 28.2083 59.7647 26.6567C59.7647 25.0846 60.9432 24.0134 62.3096 24.0134C63.6747 24.0134 64.8492 25.0846 64.8492 26.6567C64.8492 28.2083 63.6747 29.2986 62.3096 29.2986ZM50.573 23.6329V25.4856H55.145C55.0113 26.5208 54.6538 27.2819 54.1056 27.8123C53.4383 28.453 52.3989 29.1641 50.573 29.1641C47.7594 29.1641 45.5561 26.9667 45.5561 24.2441C45.5561 21.5214 47.7594 19.3241 50.573 19.3241C52.0944 19.3241 53.2013 19.8993 54.0183 20.645L55.3675 19.3394C54.2248 18.2837 52.7048 17.4727 50.573 17.4727C46.7147 17.4727 43.472 20.5105 43.472 24.2441C43.472 27.9776 46.7147 31.0155 50.573 31.0155C52.6584 31.0155 54.2248 30.3543 55.4562 29.1141C56.718 27.8931 57.1113 26.1762 57.1113 24.7899C57.1113 24.3594 57.0742 23.9635 57.008 23.6329H50.573ZM98.5654 25.0692C98.1933 24.0942 97.0454 22.2966 94.707 22.2966C92.3899 22.2966 90.4607 24.0634 90.4607 26.6567C90.4607 29.0987 92.3701 31.0155 94.9295 31.0155C96.999 31.0155 98.1933 29.7944 98.6846 29.0833L97.1486 28.0929C96.6362 28.8181 95.9384 29.2986 94.9295 29.2986C93.9272 29.2986 93.2082 28.854 92.7474 27.9776L98.7733 25.565L98.5654 25.0692ZM92.4217 26.5208C92.3701 24.8398 93.7709 23.9788 94.7746 23.9788C95.5611 23.9788 96.2284 24.3594 96.4509 24.9039L92.4217 26.5208ZM87.5239 30.7503H89.5048V17.9378H87.5239V30.7503ZM84.28 23.2678H84.2138C83.7689 22.7578 82.9201 22.2966 81.845 22.2966C79.5888 22.2966 77.5259 24.2133 77.5259 26.6708C77.5259 29.1141 79.5888 31.0155 81.845 31.0155C82.9201 31.0155 83.7689 30.5504 84.2138 30.0251H84.28V30.6503C84.28 32.3172 83.3597 33.2128 81.8754 33.2128C80.6652 33.2128 79.9145 32.3672 79.6047 31.6561L77.882 32.3518C78.3786 33.5075 79.6934 34.9297 81.8754 34.9297C84.1979 34.9297 86.1575 33.6074 86.1575 30.3902V22.5618H84.28V23.2678ZM82.0145 29.2986C80.6494 29.2986 79.5067 28.1929 79.5067 26.6708C79.5067 25.1345 80.6494 24.0134 82.0145 24.0134C83.3597 24.0134 84.4203 25.1345 84.4203 26.6708C84.4203 28.1929 83.3597 29.2986 82.0145 29.2986ZM107.839 17.9378H103.102V30.7503H105.077V25.8956H107.839C110.033 25.8956 112.185 24.3594 112.185 21.916C112.185 19.474 110.028 17.9378 107.839 17.9378ZM107.891 24.1134H105.077V19.72H107.891C109.366 19.72 110.208 20.9051 110.208 21.916C110.208 22.9077 109.366 24.1134 107.891 24.1134ZM120.103 22.2722C118.675 22.2722 117.191 22.8821 116.581 24.2338L118.334 24.9449C118.711 24.2338 119.405 24.0032 120.139 24.0032C121.163 24.0032 122.203 24.599 122.219 25.6509V25.7854C121.861 25.5855 121.096 25.2896 120.154 25.2896C118.266 25.2896 116.342 26.2953 116.342 28.1724C116.342 29.8893 117.889 30.995 119.627 30.995C120.957 30.995 121.69 30.4146 122.151 29.7393H122.219V30.7298H124.127V25.8149C124.127 23.5432 122.374 22.2722 120.103 22.2722ZM119.864 29.2935C119.218 29.2935 118.318 28.9834 118.318 28.2083C118.318 27.2166 119.441 26.836 120.413 26.836C121.283 26.836 121.69 27.0218 122.219 27.2665C122.064 28.453 121.008 29.2935 119.864 29.2935ZM131.078 22.5528L128.807 28.107H128.74L126.392 22.5528H124.262L127.789 30.3146L125.776 34.6337H127.841L133.276 22.5528H131.078ZM113.271 30.7503H115.251V17.9378H113.271V30.7503Z" fill="#989FAA"/>
</svg>
