<svg width="32" height="32" viewBox="0 0 32 32" fill="none" xmlns="http://www.w3.org/2000/svg">
<path d="M0 16C0 7.16344 7.16344 0 16 0C24.8366 0 32 7.16344 32 16C32 24.8366 24.8366 32 16 32C7.16344 32 0 24.8366 0 16Z" fill="#6B7685"/>
<path d="M23.5008 7.2002H8.49923C8.15466 7.2002 7.8242 7.33708 7.58055 7.58073C7.33689 7.82438 7.20001 8.15484 7.20001 8.49942V23.501C7.20001 23.8455 7.33689 24.176 7.58055 24.4197C7.8242 24.6633 8.15466 24.8002 8.49923 24.8002H23.5008C23.8454 24.8002 24.1758 24.6633 24.4195 24.4197C24.6631 24.176 24.8 23.8455 24.8 23.501V8.49942C24.8 8.15484 24.6631 7.82438 24.4195 7.58073C24.1758 7.33708 23.8454 7.2002 23.5008 7.2002ZM12.4458 22.1932H9.79968V13.788H12.4458V22.1932ZM11.1209 12.6232C10.8207 12.6215 10.5278 12.5309 10.2791 12.3629C10.0304 12.1949 9.83696 11.957 9.72332 11.6792C9.60968 11.4013 9.58089 11.0961 9.64057 10.8019C9.70025 10.5078 9.84573 10.2379 10.0587 10.0263C10.2716 9.81474 10.5424 9.67099 10.837 9.6132C11.1315 9.55541 11.4366 9.58616 11.7136 9.70158C11.9907 9.81701 12.2274 10.0119 12.3938 10.2617C12.5602 10.5115 12.6489 10.805 12.6487 11.1052C12.6515 11.3062 12.6139 11.5056 12.538 11.6917C12.4621 11.8778 12.3495 12.0467 12.2069 12.1884C12.0643 12.33 11.8947 12.4415 11.7081 12.5162C11.5215 12.5909 11.3218 12.6273 11.1209 12.6232ZM22.1991 22.2005H19.5542V17.6086C19.5542 16.2544 18.9786 15.8364 18.2355 15.8364C17.4508 15.8364 16.6808 16.428 16.6808 17.6429V22.2005H14.0347V13.7941H16.5793V14.9589H16.6136C16.869 14.4419 17.7637 13.5582 19.1289 13.5582C20.6053 13.5582 22.2003 14.4345 22.2003 17.0012L22.1991 22.2005Z" fill="white"/>
</svg>
