<svg width="32" height="32" viewBox="0 0 32 32" fill="none" xmlns="http://www.w3.org/2000/svg">
<path d="M0 16C0 7.16344 7.16344 0 16 0C24.8366 0 32 7.16344 32 16C32 24.8366 24.8366 32 16 32C7.16344 32 0 24.8366 0 16Z" fill="#2268EF"/>
<path fill-rule="evenodd" clip-rule="evenodd" d="M7.24285 15.8309C11.9072 13.7988 15.0175 12.459 16.5737 11.8117C21.0171 9.96359 21.9404 9.64255 22.5422 9.63195C22.6745 9.62962 22.9705 9.66242 23.1622 9.81797C23.324 9.94931 23.3686 10.1267 23.3899 10.2513C23.4112 10.3758 23.4377 10.6595 23.4166 10.8811C23.1758 13.4111 22.1339 19.5507 21.6039 22.3843C21.3796 23.5833 20.938 23.9853 20.5104 24.0247C19.5813 24.1102 18.8757 23.4106 17.9758 22.8207C16.5676 21.8976 15.7721 21.323 14.4051 20.4222C12.8254 19.3812 13.8495 18.8091 14.7498 17.874C14.9854 17.6293 19.0792 13.9056 19.1585 13.5678C19.1684 13.5256 19.1776 13.3681 19.084 13.285C18.9905 13.2018 18.8524 13.2302 18.7527 13.2529C18.6115 13.2849 16.3619 14.7718 12.0038 17.7136C11.3653 18.1521 10.7869 18.3657 10.2687 18.3545C9.69743 18.3422 8.59851 18.0315 7.78158 17.766C6.77957 17.4403 5.9832 17.2681 6.05255 16.7149C6.08867 16.4268 6.48544 16.1321 7.24285 15.8309Z" fill="white"/>
</svg>
