<svg width="32" height="32" viewBox="0 0 32 32" fill="none" xmlns="http://www.w3.org/2000/svg">
<path d="M0 16C0 7.16344 7.16344 0 16 0C24.8366 0 32 7.16344 32 16C32 24.8366 24.8366 32 16 32C7.16344 32 0 24.8366 0 16Z" fill="#6B7685"/>
<path fill-rule="evenodd" clip-rule="evenodd" d="M7.24273 15.8309C11.9071 13.7988 15.0173 12.459 16.5736 11.8117C21.0169 9.96359 21.9402 9.64255 22.542 9.63195C22.6744 9.62962 22.9703 9.66242 23.162 9.81797C23.3239 9.94931 23.3684 10.1267 23.3897 10.2513C23.4111 10.3758 23.4376 10.6595 23.4165 10.8811C23.1757 13.4111 22.1338 19.5507 21.6038 22.3843C21.3795 23.5833 20.9379 23.9853 20.5103 24.0247C19.5812 24.1102 18.8756 23.4106 17.9757 22.8207C16.5675 21.8976 15.7719 21.323 14.405 20.4222C12.8253 19.3812 13.8494 18.8091 14.7496 17.874C14.9852 17.6293 19.0791 13.9056 19.1583 13.5678C19.1683 13.5256 19.1775 13.3681 19.0839 13.285C18.9903 13.2018 18.8523 13.2302 18.7526 13.2529C18.6114 13.2849 16.3618 14.7718 12.0037 17.7136C11.3652 18.1521 10.7868 18.3657 10.2686 18.3545C9.69731 18.3422 8.59839 18.0315 7.78145 17.766C6.77945 17.4403 5.98308 17.2681 6.05243 16.7149C6.08855 16.4268 6.48531 16.1321 7.24273 15.8309Z" fill="white"/>
</svg>
