<svg width="47" height="34" viewBox="0 0 47 34" fill="none" xmlns="http://www.w3.org/2000/svg">
<rect x="0.477478" width="46.4925" height="33.2089" rx="6.64179" fill="#249F58"/>
<path fill-rule="evenodd" clip-rule="evenodd" d="M35.9009 22.1387V19.9247H11.5477L15.9755 22.1387H29.2591C29.2591 23.3607 30.7468 24.3526 32.58 24.3526C34.4131 24.3526 35.9009 23.3607 35.9009 22.1387ZM19.8056 8.64697C19.779 8.64697 19.7392 8.66026 19.6883 8.69125C19.5687 8.77095 19.334 9.0167 19.3252 9.30008C19.3185 9.4617 19.2875 9.4617 19.3916 9.56575C19.4669 9.67202 19.5466 9.66317 19.6971 9.58125C19.7857 9.51483 19.8145 9.4772 19.8455 9.36871C19.8809 9.1916 19.6528 9.45727 19.6241 9.25359C19.5731 9.06762 19.7193 8.98792 19.8565 8.8108C19.861 8.72225 19.861 8.65583 19.8056 8.6514V8.64697ZM22.0262 8.65804C21.9819 8.6669 21.931 8.72446 21.8579 8.85287C21.807 8.99013 21.5834 9.19824 21.7472 9.62774C21.8756 9.90006 21.931 10.3406 21.8712 10.8343C21.7782 10.9738 21.7605 11.0225 21.6387 11.162C21.4705 11.3458 21.2845 11.2993 21.1472 11.2284C21.0144 11.1399 20.9126 11.0956 20.8528 10.8166C20.8639 10.3738 20.8904 9.63881 20.8085 9.48384C20.689 9.24473 20.4897 9.32886 20.4056 9.40192C20.0004 9.77829 19.799 10.4048 19.675 10.9074C19.5643 11.2705 19.4425 11.1642 19.3584 11.0181C19.1525 10.8233 19.137 9.31337 18.889 9.56354C18.4905 10.7015 19.1171 11.9479 19.5532 11.8262C19.8632 11.959 20.0624 11.3612 20.1908 10.7081C20.2794 10.5244 20.3458 10.5022 20.3901 10.5974C20.379 11.4653 20.4565 11.6601 20.6779 11.9214C21.1738 12.3066 21.5856 11.9701 21.6188 11.9391L22.0062 11.5539C22.0948 11.4653 22.2055 11.4564 22.3273 11.5361C22.4468 11.6468 22.4313 11.8306 22.6815 11.9568C22.8985 12.0454 23.3523 11.9789 23.4564 11.7952C23.6003 11.5516 23.6335 11.4675 23.6999 11.3745C23.8017 11.2417 23.9766 11.3015 23.9766 11.3435C23.9611 11.421 23.8593 11.4985 23.9279 11.6313C24.0497 11.7199 24.0785 11.6623 24.1493 11.6424C24.4017 11.5229 24.5921 10.9738 24.5921 10.9738C24.6032 10.7701 24.4881 10.7856 24.415 10.8277C24.3154 10.8875 24.3109 10.9074 24.2157 10.9672C24.0896 10.9849 23.8505 11.0668 23.7331 10.883C23.6113 10.6616 23.6113 10.3561 23.5184 10.1303C23.5184 10.117 23.3567 9.78272 23.5051 9.76279C23.5781 9.77608 23.742 9.81814 23.7663 9.68309C23.846 9.55026 23.5958 9.17389 23.4254 8.98792C23.2793 8.8263 23.0756 8.80638 22.8785 8.97021C22.7391 9.09861 22.7612 9.24031 22.7324 9.37536C22.6992 9.53033 22.7059 9.72294 22.8653 9.92884C23.0025 10.1989 23.2527 10.5487 23.1686 11.0402C23.1686 11.0402 23.0247 11.2749 22.7701 11.2439C22.6594 11.2218 22.4867 11.1775 22.3937 10.4912C22.3273 9.97533 22.4114 9.25138 22.1944 8.91264C22.1435 8.78645 22.1014 8.66247 22.0306 8.66911L22.0262 8.65804ZM21.3221 8.7156C21.2557 8.72225 21.1827 8.79973 21.1229 8.94807C21.072 9.06319 21.0078 9.65652 21.0188 9.65652C20.9746 9.83364 21.2026 9.90891 21.3066 9.68309C21.4616 9.26245 21.4616 9.08533 21.4705 8.91264C21.4483 8.77981 21.3886 8.71339 21.3221 8.71782V8.7156ZM23.9191 8.75988C23.8527 8.76874 23.7973 8.80859 23.7774 8.91043C23.7486 9.14511 23.7641 9.27573 23.804 9.47277C23.8327 9.6056 24.0254 9.82257 24.1183 9.95098C24.5678 10.5554 25.0039 11.162 25.4201 11.7885C25.4865 12.2579 25.5308 12.714 25.564 13.17C25.6349 14.1663 25.6526 15.4061 25.5928 16.4577C25.7788 16.4644 26.0799 16.1544 26.1839 15.705C26.2503 15.0762 26.1618 13.801 26.1529 13.4291L26.1308 12.9021C26.6179 13.6992 27.0872 14.5405 27.5477 15.4614C27.7182 15.3817 27.6805 14.432 27.5831 14.2991C27.2112 13.5021 26.6976 12.714 26.5359 12.4107C26.4762 12.3 26.2747 11.9966 26.0378 11.6446C25.9935 11.1399 25.9448 10.7148 25.9138 10.5864C25.8363 10.055 26.1308 10.6462 26.0909 10.3384C25.9935 9.80707 25.7013 9.44841 25.3559 8.96135C25.2452 8.80638 25.2452 8.77095 25.0748 9.0012C24.9751 9.23366 24.9751 9.42849 25.0083 9.61003C24.9596 9.54361 24.9043 9.46834 24.8246 9.37093L24.26 8.89272C24.1825 8.83737 24.032 8.75324 23.9191 8.75988ZM31.6147 8.8418C31.5815 8.83737 31.5483 8.85287 31.504 8.91264C31.4265 8.97906 31.3446 9.10526 31.349 9.26687C31.3645 9.54361 31.4154 9.82921 31.4332 10.1082L31.4553 10.2189C31.4243 10.1834 31.3977 10.1524 31.3822 10.1392C30.8354 9.56354 31.6324 10.0417 31.276 9.60118C30.9771 9.26909 30.8885 9.16725 30.6339 8.96799C30.5011 8.88829 30.4258 8.72889 30.3838 8.99899C30.366 9.23588 30.3483 9.51262 30.3616 9.71187C30.3616 9.82257 30.479 10.0329 30.5786 10.1547C30.9417 10.6041 31.3136 11.0801 31.6855 11.576C31.7652 12.5878 31.7852 13.5154 31.8627 14.5294C31.8538 14.9633 31.721 15.5389 31.597 15.5921C31.597 15.5921 31.4022 15.7028 31.2738 15.581C31.1786 15.5434 30.8044 14.9545 30.8044 14.9545C30.6118 14.7773 30.4834 14.8283 30.3483 14.9545C29.972 15.3175 29.7993 15.9994 29.5447 16.4688C29.4783 16.5728 29.2945 16.6636 29.0886 16.4599C28.5639 15.7426 28.8672 14.722 28.8052 14.9854C28.3403 15.5124 28.544 16.3847 28.6502 16.5728C28.8052 16.8828 28.9292 17.082 29.2259 17.2304C29.5026 17.4296 29.7129 17.3079 29.8325 17.164C30.107 16.8806 30.1114 16.1522 30.2398 16.0083C30.3284 15.7426 30.5564 15.7869 30.6671 15.9064C30.7778 16.0614 30.9018 16.161 31.059 16.2452C31.3158 16.471 31.6213 16.5108 31.9224 16.305C32.1283 16.1898 32.2634 16.0393 32.3829 15.7426C32.5158 15.3972 32.4493 13.5818 32.4206 12.5723L32.9962 13.4047C33.0759 14.2903 33.1135 15.1648 33.0847 16.0016C33.067 16.1677 33.667 15.5057 33.6604 15.1913C33.6604 14.919 33.6648 14.6689 33.6604 14.4386C33.9548 14.9035 34.236 15.3751 34.5017 15.8555C34.6677 15.767 34.6124 14.8305 34.5083 14.7043C34.2293 14.2349 33.8707 13.7302 33.5939 13.3361C33.5386 12.8424 33.4655 12.2601 33.4301 12.0808C33.3792 11.8018 33.3261 11.3834 33.2464 11.0535C33.2242 10.9273 33.1578 10.5155 33.1799 10.4779C33.2109 10.3827 33.3349 10.4779 33.3947 10.3716C33.4833 10.272 33.0803 9.22038 32.8744 8.92371C32.8014 8.79088 32.6663 8.83516 32.5025 9.05655C32.3475 9.19824 32.4051 9.5259 32.4626 9.83807C32.6132 10.6351 32.7504 11.441 32.8567 12.2512C32.6575 11.9524 32.4139 11.5937 32.1748 11.2506L32.1438 11.0956C32.1438 11.0779 32.1128 10.4425 32.084 10.2919C32.0774 10.2299 32.0619 10.2122 32.1283 10.2211C32.1947 10.2786 32.2036 10.2809 32.2457 10.3008C32.3165 10.3096 32.3785 10.1945 32.3342 10.086L31.6922 8.90379C31.67 8.87501 31.639 8.84844 31.6036 8.84401L31.6147 8.8418ZM11.7558 8.86394C11.634 8.85951 11.5056 8.93036 11.5565 9.07426C11.5255 9.15175 11.7868 9.41299 11.8332 9.5569C11.8709 9.66095 11.789 9.98861 11.8775 10.0218C11.955 10.055 12.0635 9.79157 12.1033 9.55026C12.1255 9.41742 12.11 8.96135 11.8 8.86837C11.7845 8.86394 11.769 8.86394 11.7513 8.86172L11.7558 8.86394ZM34.3821 8.86394C34.3533 8.86837 34.3201 8.90822 34.2714 9.01891C34.1496 9.21817 34.1076 9.5724 34.1563 9.88235C34.4441 11.8527 34.6655 13.7611 34.7098 15.5057C34.6832 15.674 34.6743 15.7625 34.5991 15.9706C34.4264 16.192 34.236 16.4666 34.0567 16.5994C33.8795 16.7322 33.4988 16.8606 33.3748 16.9581C32.9763 17.1839 32.9763 17.4451 33.2951 17.4562C33.8441 17.3898 34.495 17.3455 34.9422 16.6702C35.0618 16.4821 35.2035 15.9684 35.2079 15.6518C35.2522 13.8143 35.1858 12.0099 34.909 10.6794C34.8913 10.5465 34.8337 10.2521 34.8559 10.2144C34.8891 10.1214 35.0684 10.2211 35.1326 10.117C35.2278 10.0196 34.6677 9.30451 34.4729 8.99899C34.433 8.92371 34.4065 8.85951 34.3755 8.86615L34.3821 8.86394ZM28.6193 8.89493C28.5971 8.89936 28.5661 8.93478 28.5041 9.0167C28.3492 9.51705 28.296 9.92441 28.3558 10.2388C28.7543 12.2977 29.1528 14.1685 29.0908 16.1278C29.2768 16.1278 29.4938 15.7005 29.5867 15.2755C29.6377 14.6888 29.5513 14.3323 29.538 13.9914C29.5225 13.646 29.1484 10.8565 29.0731 10.5974C28.9801 10.106 29.4362 10.531 29.3875 10.2476C29.2281 9.88456 28.834 9.36207 28.7145 9.04548C28.6702 8.96135 28.6613 8.88386 28.6259 8.8905L28.6193 8.89493ZM14.5962 8.93478C14.552 8.94364 14.501 8.98349 14.4855 9.04548C14.4745 9.08976 14.5032 9.16282 14.4634 9.18496C14.4413 9.2071 14.3571 9.1916 14.3616 9.07426C14.3616 9.03441 14.3328 8.99456 14.3173 8.97021C14.2996 8.96135 14.2885 8.95914 14.2575 8.95914C14.2199 8.95914 14.2199 8.97021 14.1999 9.00342C14.1911 9.03441 14.1778 9.06541 14.1778 9.10083C14.1734 9.14511 14.1557 9.15618 14.1269 9.16282C14.0915 9.16282 14.0981 9.16725 14.0715 9.14732C14.0494 9.13182 14.0317 9.12518 14.0317 9.09419C14.0317 9.06098 14.0228 9.00563 14.014 8.98792C13.9985 8.96578 13.9741 8.95692 13.9476 8.95028C13.8014 8.95028 13.7926 9.12297 13.7992 9.18496C13.7881 9.19824 13.7837 9.49491 13.983 9.57904C14.2486 9.70744 14.7534 9.6521 14.7357 9.22038C14.7357 9.18274 14.7246 9.05434 14.7202 9.02113C14.6936 8.95471 14.6427 8.93257 14.594 8.93921L14.5962 8.93478ZM18.1961 8.93921C18.1031 8.94364 18.019 8.97021 17.9525 9.00563C17.7754 9.1761 17.7312 9.44841 17.8728 9.61889C18.0057 9.6853 18.1452 9.81814 18.0544 9.89563C17.6692 10.3052 16.6663 10.9937 16.6153 11.1199V11.1332H16.6242V11.1376C16.6751 11.1709 17.3039 11.1709 17.3725 11.1376H17.3769C17.5939 11.0557 18.6167 9.88677 18.6167 9.88677C18.5636 9.84249 18.5149 9.80707 18.4618 9.76058C18.4042 9.71187 18.4108 9.66317 18.4618 9.61446C18.7141 9.46834 18.6344 9.14289 18.5016 8.99456C18.3909 8.94585 18.2891 8.92814 18.1961 8.93478V8.93921ZM27.6053 8.93921C27.5787 8.94585 27.5455 8.98349 27.4946 9.09419C27.3728 9.29344 27.2909 9.6366 27.302 9.95762C27.5632 11.773 27.6429 13.3604 27.8156 15.1758C27.8289 15.353 27.8023 15.6053 27.6872 15.7072C27.2533 16.1588 26.6311 16.7123 25.9537 16.9691C25.8806 17.051 26.1352 17.3986 26.4629 17.3986C27.0119 17.3322 27.4946 17.0267 27.9462 16.2142C28.0636 16.026 28.2739 15.6208 28.2783 15.3065C28.3226 13.4645 28.1897 12.0299 27.9108 10.7015C27.8953 10.5687 27.9064 10.4137 27.9285 10.3783C27.9639 10.334 28.0835 10.3783 28.1499 10.2742C28.2429 10.1768 27.8975 9.382 27.7027 9.07869C27.6628 9.0012 27.6407 8.93921 27.6053 8.94143V8.93921ZM13.0288 8.99899C12.9535 9.00784 12.8826 9.06541 12.8472 9.15396C12.8362 9.44177 12.8339 9.72958 12.8694 9.99968C13.0022 10.4713 13.0398 10.8853 13.104 11.3657C13.1262 12.0121 12.7321 11.6446 12.7498 11.3258C12.8384 10.9096 12.8162 10.2565 12.7365 10.0905C12.6701 9.92441 12.5993 9.88456 12.4443 9.91334C12.3225 9.90448 12.0059 10.2454 11.9174 10.8211C11.9174 10.8211 11.8421 11.1133 11.8111 11.3745C11.7668 11.669 11.572 11.8793 11.4347 11.3347C11.3174 10.9362 11.2466 9.96205 11.0495 10.1879C10.992 10.9495 10.9255 12.2911 11.572 12.4284C12.3557 12.5036 11.9218 11.1044 12.2052 10.8498C12.2605 10.7281 12.3602 10.7259 12.3668 10.883V12.0719C12.3579 12.4571 12.6103 12.5723 12.8096 12.652C13.0155 12.6365 13.1505 12.6431 13.2302 12.8424L13.3299 14.9013C13.3299 14.9013 13.8036 15.0342 13.8258 13.7434C13.8479 12.9841 13.6708 12.3487 13.7749 12.2003C13.7793 12.0542 13.9653 12.0454 14.0937 12.1184C14.2996 12.2623 14.3903 12.4394 14.7091 12.3686C15.1962 12.2358 15.484 12.0011 15.4907 11.6291C15.4685 11.2749 15.4242 10.9207 15.2693 10.5664C15.2914 10.5045 15.1807 10.3384 15.2028 10.2742C15.287 10.407 15.4198 10.3982 15.4464 10.2742C15.3667 10.0019 15.2383 9.74287 15.0302 9.63217C14.8597 9.4772 14.6095 9.51041 14.5165 9.82478C14.4723 10.1879 14.6494 10.6174 14.915 10.9694C14.9682 11.1066 15.0479 11.3347 15.0124 11.5406C14.873 11.6203 14.7335 11.5849 14.6139 11.4631C14.6139 11.4631 14.2309 11.1753 14.2309 11.1089C14.335 10.4558 14.2531 10.3783 14.1977 10.2012C14.1579 9.94876 14.0383 9.86906 13.9431 9.69638C13.8457 9.59232 13.7151 9.59232 13.6553 9.69638C13.4826 9.99083 13.5623 10.6262 13.6863 10.9074C13.7749 11.1686 13.9121 11.3325 13.8479 11.3325C13.7948 11.4764 13.6841 11.4432 13.6044 11.2727C13.4937 10.9185 13.4671 10.396 13.4671 10.1591C13.4339 9.86685 13.3963 9.24031 13.2015 9.0809C13.1505 9.01006 13.0908 8.9857 13.031 8.99235L13.0288 8.99899ZM15.7785 8.99899C15.7408 9.00784 15.6966 9.02998 15.6456 9.04327C15.4796 9.09419 15.3246 9.23809 15.3733 9.51705C15.5726 10.7126 15.6988 11.6269 15.8958 12.8224C15.9246 12.9641 15.8072 13.1479 15.6567 13.1324C15.3999 12.9553 15.3357 12.601 14.8973 12.6188C14.5785 12.6188 14.2154 12.9686 14.1712 13.3006C14.118 13.5663 14.1003 13.8541 14.1712 14.0844C14.3925 14.3501 14.6626 14.3235 14.8973 14.2615C15.0899 14.184 15.2516 13.9958 15.318 14.0401C15.3623 14.1132 15.3135 14.7353 14.4103 15.2135C13.8524 15.4659 13.4096 15.5234 13.1705 15.0718C13.0243 14.7884 13.1837 13.708 12.8207 13.956C11.7447 16.7278 15.3379 17.113 15.7386 14.0711C15.7652 13.9825 15.8427 13.8984 15.9002 13.9206C15.9224 13.9316 15.9445 13.9648 15.9534 14.0268C15.8692 16.7809 13.1727 16.9713 12.7166 16.1035C12.6015 15.8998 12.5683 15.4437 12.5572 15.1736C12.5351 15.0076 12.4952 14.9124 12.4465 14.8748C12.3358 14.7928 12.1897 15.0076 12.1587 15.3773C12.1144 15.6762 12.1255 15.7581 12.1255 16.0459C12.2716 18.2222 15.7408 17.2857 16.3054 15.4924C16.5843 14.5626 16.2987 13.8608 16.3939 13.7744L16.4006 13.77H16.4072L16.4183 13.7656C16.7637 14.1375 17.2463 13.8099 17.3526 13.6837C17.3969 13.6172 17.512 13.573 17.5917 13.6615C17.8573 13.8519 18.3311 13.7611 18.4285 13.418C18.4861 13.0859 18.5348 12.745 18.5459 12.3885C18.3688 12.4439 18.2271 12.4837 18.1695 12.5435C18.1562 12.559 18.1474 12.5767 18.1429 12.5944L18.0987 12.8889C18.0987 12.8999 18.0942 12.9066 18.0898 12.911C18.0832 12.9265 18.0677 12.9376 18.0588 12.9442C17.9968 12.9774 17.8883 12.9597 17.8817 12.8689C17.7998 12.4926 17.4566 12.4439 17.2485 13.0306C17.109 13.1412 16.85 13.1634 16.8279 12.9951C16.8611 12.601 16.7017 12.5479 16.3851 12.7339L16.0796 10.4314C16.2124 10.4248 16.332 10.52 16.4559 10.3694C16.3231 9.96205 16.0464 9.13404 15.8892 9.05434H15.8847L15.8626 9.0322C15.8626 9.02777 15.856 9.02556 15.8515 9.02334L15.8427 9.01006C15.8338 9.01006 15.825 9.00563 15.8205 9.00342C15.805 8.99899 15.7918 8.99899 15.7763 8.99899H15.7785ZM26.4983 9.00784C26.361 9.00341 26.2105 9.08976 26.2681 9.26244C26.2326 9.35764 26.5625 9.67645 26.6156 9.84914C26.7108 10.1148 26.5426 10.3738 26.6422 10.4115C26.7352 10.4513 26.8636 10.1347 26.9079 9.84028C26.9654 9.60118 26.7972 9.11411 26.5537 9.01449L26.4983 9.01006V9.00784ZM18.1452 9.29787C18.2071 9.29344 18.2824 9.351 18.3223 9.4307C18.3599 9.51926 18.34 9.60118 18.278 9.61667C18.2116 9.63217 18.1274 9.57682 18.0876 9.48827C18.0477 9.39971 18.0655 9.31779 18.1319 9.3023H18.1452V9.29787ZM33.636 9.7008C33.5098 9.69637 33.3703 9.78936 33.4279 9.97754C33.3969 10.0794 33.6936 10.4248 33.7445 10.6152C33.7888 10.748 33.6781 11.1819 33.7666 11.2218C33.8508 11.266 33.9659 10.9207 34.0102 10.6019C34.0367 10.4248 33.9083 9.81593 33.6891 9.70745C33.6737 9.70302 33.6559 9.69859 33.6382 9.69859L33.636 9.7008ZM25.0681 9.91334C25.0836 9.96426 25.0947 10.0152 25.1013 10.0683C25.1279 10.179 25.15 10.2897 25.1722 10.4048C25.0748 10.2676 24.9951 10.1569 24.9574 10.117C24.736 9.85135 24.9618 9.94434 25.0681 9.91334ZM27.0451 10.883C26.9964 10.8919 26.9499 10.934 26.9345 11.0004C26.9212 11.0402 26.9522 11.1111 26.9123 11.1332C26.8902 11.1554 26.8016 11.1421 26.8083 11.0225C26.8083 10.9827 26.7795 10.9406 26.764 10.9185C26.7463 10.9074 26.7352 10.903 26.7042 10.903C26.6666 10.903 26.6666 10.914 26.6466 10.9472C26.6378 10.9782 26.6245 11.0092 26.6245 11.0469C26.6245 11.0911 26.6068 11.1044 26.5758 11.1133C26.5404 11.1133 26.547 11.1133 26.5182 11.0978C26.5005 11.0757 26.4806 11.0712 26.4806 11.0402C26.4806 11.007 26.474 10.9561 26.4629 10.934C26.4474 10.9118 26.4252 10.9052 26.3965 10.8963C26.2526 10.8963 26.2415 11.0646 26.2503 11.1266C26.2415 11.1399 26.2349 11.4409 26.4341 11.5251C26.7042 11.6513 27.209 11.5915 27.1868 11.162C27.1868 11.1244 27.1758 10.996 27.1736 10.9627C27.1448 10.8963 27.0939 10.8742 27.0474 10.8808L27.0451 10.883ZM18.0345 10.9716C18.0035 10.9716 17.9592 10.9805 17.9083 11.0114C17.6714 11.1399 17.5806 11.5207 17.7312 11.742C17.864 11.9413 18.0854 11.8682 18.1142 11.8682C18.3466 11.8992 18.4839 11.4343 18.4839 11.4343C18.4839 11.4343 18.4905 11.3015 18.2182 11.5494C18.0987 11.5716 18.0854 11.5273 18.0544 11.4609C18.0278 11.3435 18.0322 11.2173 18.0876 11.1C18.1142 11.0269 18.0876 10.9805 18.0345 10.976V10.9716ZM30.7712 11.0314C30.6384 11.0247 30.4989 11.1111 30.4612 11.2904C30.4612 11.3967 30.5099 11.4542 30.5011 11.5516C30.49 11.607 30.4347 11.6402 30.2974 11.5782C30.3195 11.5561 30.2089 11.4055 30.2089 11.4055C30.1048 11.3391 29.9653 11.4055 29.8723 11.4675C29.8214 11.5605 29.7838 11.7177 29.8413 11.8771C29.9919 12.1583 30.5122 12.6365 30.7601 12.6409C30.7645 12.3885 30.7889 12.052 30.8044 11.8439C30.8088 11.7642 30.8265 11.6778 30.904 11.6579C30.9793 11.6358 31.1099 11.7332 31.1099 11.6513C31.0966 11.4919 31.0656 11.2528 30.9771 11.1421C30.9284 11.0757 30.8509 11.0358 30.7734 11.0314H30.7712ZM20.2263 11.9103L20.2196 11.9169C20.2196 11.9169 20.2152 11.9169 20.213 11.9214C20.1864 11.9435 20.1554 11.9878 20.0868 12.0321C19.9694 12.1649 19.9495 12.2601 19.9539 12.5258C19.9628 12.5546 20.1753 13.1523 20.3591 13.5707C20.4831 14.0069 20.596 14.5072 20.5141 14.9788C20.2263 15.6031 19.6506 16.1633 19.0905 16.4688C18.8027 16.5573 18.5592 16.5263 18.4927 16.4644C18.3289 16.3537 18.3267 16.1544 18.3378 16.1234V16.1168C18.8071 15.7891 19.3451 15.5234 19.7658 14.6401C19.8897 14.3013 19.9296 14.0977 19.8056 13.5774C19.7569 13.3781 19.6949 13.2232 19.5621 13.0815H19.5665C19.6462 13.0438 19.8543 13.1966 19.8875 13.1036C19.8366 12.8512 19.6661 12.5169 19.4779 12.3442C19.3097 12.1893 19.1237 12.1738 18.9732 12.3132C18.8005 12.4107 18.7651 12.756 18.847 13.0571C18.94 13.2829 19.1901 13.3228 19.3672 13.7811C19.3717 13.8121 19.427 14.1242 19.3385 14.2526C19.2632 14.4785 18.3311 15.2135 18.2647 15.2578L18.2581 15.2622L18.2536 15.2666H18.2492H18.2448V15.26C18.2404 15.2423 18.2448 15.1936 18.2448 15.1205C18.2381 14.9832 18.2957 14.6711 18.2891 14.6157V14.6113C17.9791 14.8105 17.8751 15.4194 17.8197 15.6009C17.0382 16.1389 16.1526 16.5396 15.6412 17.0843C15.3755 17.5049 17.4743 16.6105 17.7179 16.502L17.7245 16.5086C17.7732 16.5596 17.7754 16.7367 17.9149 16.8983C18.1363 17.1927 18.5968 17.3743 19.0484 17.2614C19.8056 16.9891 20.244 16.4732 20.6867 15.8998C20.7487 15.8112 20.8484 15.736 20.9413 15.8068C21.2447 16.4887 22.1258 16.9758 23.2615 17.0245C23.5272 16.7057 23.401 16.5485 23.2948 16.4821C23.2615 16.4599 22.7302 16.2518 22.6461 16.0459C22.5952 15.8555 22.7213 15.6851 22.9737 15.5589C23.7043 15.4703 24.4216 15.3707 25.1168 15.1471C25.1235 14.9124 25.2607 14.5648 25.3537 14.412C25.4201 14.308 25.4578 14.2969 25.4733 14.2836V14.2792H25.4777V14.2726V14.2504L25.3581 14.1796L23.0269 14.1707C22.9981 14.1597 22.9782 14.1486 22.9649 14.1375L22.9605 14.1309C22.9605 14.1309 22.956 14.1309 22.956 14.1264C22.956 14.122 22.9516 14.122 22.9516 14.122V14.1242V14.1198V14.1154V14.1109L22.956 14.1043C22.9671 14.091 22.9959 14.0755 23.0291 14.06C23.587 13.987 24.5744 13.8254 24.6408 12.8756C24.6298 12.3797 24.4283 12.0564 23.8217 11.9679C23.3745 12.0011 23.0556 12.4328 23.1066 12.9066C23.0844 13.0328 23.1508 13.2829 23.018 13.3117C22.1634 13.3914 21.2292 13.9272 21.1982 14.3124H21.1937H21.1893H21.1849C21.1849 14.3168 21.1805 14.3168 21.1782 14.3168H21.1694H21.165H21.1561C21.1008 14.2991 21.0299 14.2061 21.041 14.08C21.0078 13.4158 20.7908 12.663 20.4543 12.0874C20.3325 11.9657 20.2772 11.9169 20.2462 11.9103H20.2395H20.2329H20.2285H20.2263ZM22.4579 12.2601C22.4136 12.269 22.3627 12.3088 22.3472 12.3752C22.3361 12.4195 22.3693 12.4904 22.3295 12.5125C22.3073 12.5346 22.2188 12.5213 22.2232 12.4018C22.2232 12.3642 22.1944 12.3221 22.1789 12.2977C22.1612 12.2867 22.1502 12.2845 22.1214 12.2845C22.0837 12.2845 22.0815 12.2933 22.0616 12.3243C22.0505 12.3553 22.0395 12.3907 22.0395 12.4239C22.035 12.4682 22.0173 12.4815 21.9885 12.4859C21.9531 12.4859 21.962 12.4926 21.9332 12.4749C21.9155 12.4571 21.8933 12.4483 21.8933 12.4173C21.8933 12.3841 21.8867 12.3287 21.8778 12.3066C21.8623 12.2911 21.838 12.2845 21.8114 12.2756C21.6631 12.2756 21.6564 12.4416 21.6631 12.5059C21.652 12.5169 21.6454 12.8158 21.8446 12.8999C22.1103 13.0283 22.7523 12.9531 22.5974 12.5391C22.5974 12.5014 22.5863 12.373 22.5841 12.3398C22.5553 12.2734 22.5044 12.2512 22.4557 12.2579L22.4579 12.2601ZM31.4575 12.6298H31.4354C31.4354 12.6298 30.1911 13.5154 30.1624 13.5464C30.0384 13.6571 30.1004 14.0401 30.1624 13.9958C30.2509 14.029 31.5018 13.1811 31.4774 13.0815C31.5328 13.0859 31.5593 12.6453 31.4553 12.6276L31.4575 12.6298ZM23.6335 12.7627C23.6822 12.756 23.7486 12.7737 23.8106 12.8069C23.9058 12.8645 23.9656 12.9442 23.9545 13.0062V13.0151C23.9501 13.0151 23.9501 13.0151 23.9501 13.0195V13.0239C23.9501 13.0239 23.9457 13.0239 23.9457 13.0283C23.9457 13.0328 23.939 13.0372 23.9346 13.0416C23.8903 13.0859 23.7885 13.077 23.691 13.0195C23.5981 12.9686 23.5427 12.8866 23.5471 12.8291V12.8224L23.5582 12.8003C23.5582 12.8003 23.5582 12.7959 23.5626 12.7937L23.5737 12.7804C23.5892 12.7693 23.6091 12.7582 23.6335 12.7582V12.7627ZM12.7454 12.9841C12.1033 12.9973 11.158 13.8298 11.1336 14.2903L13.1705 13.3161C13.0598 13.1479 13.1638 12.9973 12.7454 12.9841ZM14.8331 13.2719C14.8951 13.2763 14.9615 13.3073 14.997 13.3958C15.0279 13.4778 14.997 13.5619 14.9593 13.604V13.6106C14.9283 13.646 14.8353 13.6327 14.7667 13.6327C14.6848 13.6283 14.6449 13.615 14.5962 13.5486C14.5697 13.4711 14.6405 13.3981 14.6737 13.3449L14.6892 13.3228C14.7114 13.3007 14.7556 13.2829 14.7999 13.2785L14.8287 13.2741L14.8331 13.2719ZM31.2162 13.5309C31.0989 13.5442 30.9904 13.6527 31.0391 13.8254C31.0081 13.9272 31.1941 14.2836 31.245 14.4718C31.2892 14.6047 31.1874 14.9877 31.2782 15.0253C31.3623 15.0696 31.5815 14.8039 31.5748 14.463C31.597 14.2858 31.5129 13.6438 31.2937 13.5375C31.2671 13.5309 31.2405 13.5287 31.214 13.5309H31.2162ZM17.3039 14.1597C17.202 14.1663 17.1113 14.2194 17.1533 14.3633C17.1467 14.4652 17.4411 14.5914 17.4566 14.8283C17.4965 14.9301 17.3902 15.2489 17.4788 15.2755C17.5585 15.3087 17.6692 15.0541 17.7112 14.8238C17.7334 14.6954 17.6094 14.2482 17.4013 14.1663C17.3681 14.1574 17.3349 14.1552 17.3017 14.1574L17.3039 14.1597ZM21.466 14.7264H21.4926C21.7539 14.7973 22.1347 14.8061 22.4667 14.8371C22.7391 14.8593 22.8719 15.0674 22.6217 15.1581C22.3693 15.2423 22.128 15.3131 22.128 15.6718C22.159 15.8489 22.1502 15.9419 22.1236 15.9817C22.1236 15.9884 22.1169 15.9928 22.1147 15.995C22.1147 15.995 22.1147 15.9994 22.1103 15.9994V16.0039H22.1037L22.0882 16.0105H22.0771C22.0173 16.0216 21.931 15.9662 21.8668 15.9308C21.7118 15.8201 21.2801 15.5544 21.2181 14.9788C21.2092 14.846 21.3066 14.7353 21.4616 14.7242L21.466 14.7264ZM11.2953 15.1692C11.2798 15.1692 11.251 15.2179 11.2067 15.2733C10.8215 15.8821 10.7861 16.792 10.9986 17.0665C11.1093 17.1927 11.2953 17.2503 11.4325 17.2104C11.6761 17.1064 11.7801 16.6171 11.7203 16.44C11.6429 16.3138 11.5786 16.2939 11.4989 16.4001C11.3285 16.7433 11.2554 16.5064 11.2443 16.3116C11.2178 15.9507 11.2532 15.6142 11.2931 15.3485C11.3152 15.2157 11.3152 15.1648 11.2931 15.1648L11.2953 15.1692ZM24.3508 15.9706C24.322 15.9706 24.2932 15.9751 24.2622 15.9928C24.2556 15.9928 23.9877 16.1699 23.9014 16.2983C23.8482 16.3382 23.8571 16.3714 23.8704 16.4422C23.9102 16.5374 23.9811 16.5086 24.0652 16.4644C24.1759 16.4466 24.2268 16.5197 24.2202 16.6503C24.1693 16.8164 24.2423 16.8761 24.2423 16.8872C24.2423 16.8961 24.3464 16.9868 24.4704 16.916C24.7294 16.8164 24.891 16.7167 25.2563 16.6393C25.3515 16.6393 25.3449 16.3824 25.1943 16.3736C24.9951 16.3824 24.8179 16.3957 24.6187 16.5507C24.4969 16.5773 24.477 16.502 24.4482 16.4356C24.4172 16.2717 24.5191 16.1566 24.4969 16.0326C24.5013 16.0393 24.4349 15.9795 24.3486 15.9751L24.3508 15.9706ZM32.7106 16.2806L32.5335 16.2983C32.4538 16.3138 32.4272 16.3492 32.4117 16.4466C32.4184 16.5905 32.5069 16.5839 32.5999 16.6415C32.653 16.7079 32.6885 16.7699 32.5955 16.885C32.5069 16.9625 32.4471 17.0068 32.3586 17.0843C32.3209 17.1551 32.2922 17.2614 32.4206 17.2968C32.653 17.3632 33.191 17.0134 33.191 17.009C33.2796 16.9426 33.2486 16.8164 33.2419 16.8164C33.1888 16.7588 33.0737 16.7942 32.9984 16.7832C32.9608 16.7832 32.8434 16.7654 32.8966 16.6592C32.9453 16.5928 32.963 16.5551 32.9962 16.4732C33.0294 16.3935 32.9962 16.3404 32.8678 16.2961C32.8014 16.2828 32.7571 16.2784 32.7062 16.2806H32.7106ZM29.4938 24.8264C30.0915 24.8551 30.6494 24.833 31.2428 24.8618C31.3402 24.9415 31.2937 25.1275 31.2317 25.1584L31.2206 25.1629H31.214H31.2051L30.7048 25.1496V25.1208C30.6561 24.9835 30.324 24.9924 30.2443 25.0987V25.1053C30.2398 25.1053 30.2376 25.112 30.2376 25.1142L30.2332 25.1252V25.1518C29.9675 25.185 29.7351 25.143 29.4738 25.1341C29.3963 25.0389 29.4074 24.8684 29.496 24.8241L29.4938 24.8264Z" fill="white"/>
</svg>
