<svg width="48" height="34" viewBox="0 0 48 34" fill="none" xmlns="http://www.w3.org/2000/svg">
<rect x="0.984985" width="46.4925" height="33.2089" rx="6.64179" fill="#F93939"/>
<path fill-rule="evenodd" clip-rule="evenodd" d="M31.9841 19.1549L29.4115 20.5054L29.903 17.6428L27.8219 15.6126L30.7 15.192L31.9841 12.5884L33.2682 15.1942L36.1463 15.6148L34.0652 17.6406L34.5567 20.5032" fill="white"/>
<path fill-rule="evenodd" clip-rule="evenodd" d="M22.0169 24.353C26.2965 24.353 29.7657 20.8837 29.7657 16.6042C29.7657 12.3247 26.2965 8.85547 22.0169 8.85547C17.7374 8.85547 14.2682 12.3247 14.2682 16.6042C14.2682 20.8837 17.7374 24.353 22.0169 24.353ZM24.2309 22.139C27.2861 22.139 29.7657 19.6594 29.7657 16.6042C29.7657 13.549 27.2861 11.0694 24.2309 11.0694C21.1756 11.0694 18.696 13.549 18.696 16.6042C18.696 19.6594 21.1756 22.139 24.2309 22.139Z" fill="white"/>
</svg>
