<svg width="47" height="34" viewBox="0 0 47 34" fill="none" xmlns="http://www.w3.org/2000/svg">
<g clip-path="url(#clip0_22_7797)">
<rect x="0.433212" y="0.208984" width="46.4926" height="33.209" rx="6.6418" fill="#F93939"/>
<path fill-rule="evenodd" clip-rule="evenodd" d="M0.433212 0.208984H15.9307V33.418H0.433212V0.208984Z" fill="#249F58"/>
<path d="M15.9307 22.3485C19.5989 22.3485 22.5725 19.3749 22.5725 15.7067C22.5725 12.0386 19.5989 9.06494 15.9307 9.06494C12.2626 9.06494 9.28894 12.0386 9.28894 15.7067C9.28894 19.3749 12.2626 22.3485 15.9307 22.3485Z" fill="#FFDA2C"/>
<path fill-rule="evenodd" clip-rule="evenodd" d="M20.3586 17.9206V11.2788H11.5029V17.9206C11.5029 19.1427 13.4843 20.1345 15.9307 20.1345C18.3771 20.1345 20.3586 19.1427 20.3586 17.9206Z" fill="#F93939"/>
<path fill-rule="evenodd" clip-rule="evenodd" d="M13.7168 13.4927H18.1447V17.9205H13.7168V13.4927Z" fill="white"/>
<path fill-rule="evenodd" clip-rule="evenodd" d="M13.7168 13.4927H15.9307V15.7066H13.7168V13.4927ZM15.9307 15.7066H18.1447V17.9205H15.9307V15.7066Z" fill="#1A47B8"/>
</g>
<defs>
<clipPath id="clip0_22_7797">
<rect x="0.433212" y="0.208984" width="46.4926" height="33.209" rx="6.6418" fill="white"/>
</clipPath>
</defs>
</svg>
