<svg width="48" height="34" viewBox="0 0 48 34" fill="none" xmlns="http://www.w3.org/2000/svg">
<g clip-path="url(#clip0_22_7789)">
<rect x="0.985168" y="0.208984" width="46.4926" height="33.209" rx="6.6418" fill="#1A47B8"/>
<path fill-rule="evenodd" clip-rule="evenodd" d="M0.985168 22.3481H47.4777V33.4178H0.985168V22.3481Z" fill="#F93939"/>
<path fill-rule="evenodd" clip-rule="evenodd" d="M0.985168 0.208984H47.4777V11.2786H0.985168V0.208984ZM22.9695 22.3483H23.1245V11.2786H7.62697V22.3483H7.78194C7.6801 22.707 7.62697 23.0789 7.62697 23.4553C7.62697 26.5105 15.3757 28.9901 15.3757 28.9901C15.3757 28.9901 23.1245 26.5105 23.1245 23.4553C23.1245 23.0789 23.0714 22.707 22.9695 22.3483Z" fill="white"/>
<path fill-rule="evenodd" clip-rule="evenodd" d="M20.9103 22.348V9.06445H9.84064V22.348C9.84064 24.7944 15.3755 26.7759 15.3755 26.7759C15.3755 26.7759 20.9103 24.7944 20.9103 22.348Z" fill="#F93939"/>
<path fill-rule="evenodd" clip-rule="evenodd" d="M14.2688 17.9206V15.7067H12.0548V13.4927H14.2688V11.2788H16.4827V13.4927H18.6966V15.7067H16.4827V17.9206H19.8036V20.1345H16.4827V22.3485H14.2688V20.1345H10.9479V17.9206H14.2688Z" fill="white"/>
<path fill-rule="evenodd" clip-rule="evenodd" d="M15.3755 26.7757C15.3755 26.7757 20.9103 24.7942 20.9103 22.3478C20.9103 19.9014 18.6964 20.1339 15.3755 22.3478C12.0546 20.1339 9.84064 19.9014 9.84064 22.3478C9.84064 24.7942 15.3755 26.7757 15.3755 26.7757Z" fill="#1A47B8"/>
</g>
<defs>
<clipPath id="clip0_22_7789">
<rect x="0.985168" y="0.208984" width="46.4926" height="33.209" rx="6.6418" fill="white"/>
</clipPath>
</defs>
</svg>
