<svg width="47" height="34" viewBox="0 0 47 34" fill="none" xmlns="http://www.w3.org/2000/svg">
<g clip-path="url(#clip0_22_7792)">
<rect x="0.462891" y="0.208984" width="46.4926" height="33.209" rx="6.6418" fill="white"/>
<path fill-rule="evenodd" clip-rule="evenodd" d="M0.462891 0.208984H9.31862V9.06471H0.462891V0.208984ZM13.7465 0.208984H22.6022V9.06471H13.7465V0.208984ZM0.462891 13.4926H9.31862V22.3483H0.462891V13.4926ZM13.7465 13.4926H22.6022V22.3483H13.7465V13.4926ZM22.6022 0.208984H46.9555V4.63685H22.6022V0.208984ZM22.6022 9.06471H46.9555V13.4926H22.6022V9.06471Z" fill="#1A47B8"/>
<path fill-rule="evenodd" clip-rule="evenodd" d="M0.462891 17.9204H46.9555V22.3483H0.462891V17.9204ZM9.31862 17.9204H13.7465V22.3483H9.31862V17.9204ZM0.462891 26.7761H46.9555V31.204H0.462891V26.7761Z" fill="#1A47B8"/>
</g>
<defs>
<clipPath id="clip0_22_7792">
<rect x="0.462891" y="0.208984" width="46.4926" height="33.209" rx="6.6418" fill="white"/>
</clipPath>
</defs>
</svg>
