<svg width="47" height="34" viewBox="0 0 47 34" fill="none" xmlns="http://www.w3.org/2000/svg">
<g clip-path="url(#clip0_22_7761)">
<rect x="0.492584" width="46.4926" height="33.209" rx="6.6418" fill="#F93939"/>
<path d="M42.5573 0H4.92045C2.47501 0 0.492584 1.98242 0.492584 4.42786V28.7811C0.492584 31.2266 2.47501 33.209 4.92045 33.209H42.5573C45.0027 33.209 46.9852 31.2266 46.9852 28.7811V4.42786C46.9852 1.98242 45.0027 0 42.5573 0Z" fill="#F93939"/>
<path fill-rule="evenodd" clip-rule="evenodd" d="M11.5619 24.3535H46.9848V33.2092H11.5619V24.3535Z" fill="#249F58"/>
<path fill-rule="evenodd" clip-rule="evenodd" d="M7.13438 0L11.5622 3.3209L7.13438 6.6418V0ZM7.13438 6.6418L11.5622 9.9627L7.13438 13.2836V6.6418ZM7.13438 13.2836L11.5622 16.6045L7.13438 19.9254V13.2836ZM7.13438 19.9254L11.5622 23.2463L7.13438 26.5672V19.9254ZM7.13438 26.5672L11.5622 29.8881L7.13438 33.209V26.5672ZM4.92045 0L0.492584 3.3209L4.92045 6.6418V0ZM4.92045 6.6418L0.492584 9.9627L4.92045 13.2836V6.6418ZM4.92045 13.2836L0.492584 16.6045L4.92045 19.9254V13.2836ZM4.92045 19.9254L0.492584 23.2463L4.92045 26.5672V19.9254ZM4.92045 26.5672L0.492584 29.8881L4.92045 33.209V26.5672ZM4.92045 0H7.13438V4.42786H4.92045V0ZM4.92045 28.7811H7.13438V33.209H4.92045V28.7811ZM4.92045 11.0697H7.13438V15.4975H4.92045V11.0697ZM4.92045 6.6418H7.13438V8.85573H4.92045V6.6418ZM4.92045 24.3533H7.13438V26.5672H4.92045V24.3533ZM4.92045 17.7115H7.13438V22.1393H4.92045V17.7115Z" fill="white"/>
</g>
<defs>
<clipPath id="clip0_22_7761">
<rect x="0.492584" width="46.4926" height="33.209" rx="6.6418" fill="white"/>
</clipPath>
</defs>
</svg>
