<svg width="48" height="34" viewBox="0 0 48 34" fill="none" xmlns="http://www.w3.org/2000/svg">
<g clip-path="url(#clip0_22_7785)">
<rect x="0.866333" width="46.4926" height="33.209" rx="6.6418" fill="#1A47B8"/>
<path fill-rule="evenodd" clip-rule="evenodd" d="M0.866333 22.1392H47.3589V33.2088H0.866333V22.1392Z" fill="#F93939"/>
<path fill-rule="evenodd" clip-rule="evenodd" d="M0.866333 0H47.3589V11.0697H0.866333V0Z" fill="white"/>
<path d="M15.2572 6.6416H10.8293C9.60657 6.6416 8.61536 7.63281 8.61536 8.85553V14.3904C8.61536 15.6131 9.60657 16.6043 10.8293 16.6043H15.2572C16.4799 16.6043 17.4711 15.6131 17.4711 14.3904V8.85553C17.4711 7.63281 16.4799 6.6416 15.2572 6.6416Z" fill="#F93939"/>
<path d="M14.1497 6.6416H11.9357C10.713 6.6416 9.7218 7.63281 9.7218 8.85553V13.2834C9.7218 14.5061 10.713 15.4973 11.9357 15.4973H14.1497C15.3724 15.4973 16.3636 14.5061 16.3636 13.2834V8.85553C16.3636 7.63281 15.3724 6.6416 14.1497 6.6416Z" fill="#1A47B8"/>
<path fill-rule="evenodd" clip-rule="evenodd" d="M9.7218 13.2837L13.0427 12.1768L16.3636 13.2837L14.1497 15.4977H11.9357L9.7218 13.2837Z" fill="white"/>
<path fill-rule="evenodd" clip-rule="evenodd" d="M11.9357 8.85547H14.1496V11.0694H11.9357V8.85547Z" fill="#FFDA2C"/>
</g>
<defs>
<clipPath id="clip0_22_7785">
<rect x="0.866333" width="46.4926" height="33.209" rx="6.6418" fill="white"/>
</clipPath>
</defs>
</svg>
