<svg width="48" height="34" viewBox="0 0 48 34" fill="none" xmlns="http://www.w3.org/2000/svg">
<g clip-path="url(#clip0_22_7764)">
<rect x="0.970306" width="46.4926" height="33.209" rx="6.6418" fill="white"/>
<path fill-rule="evenodd" clip-rule="evenodd" d="M0.970306 22.1392H47.4629V33.2088H0.970306V22.1392Z" fill="#1A47B8"/>
<path fill-rule="evenodd" clip-rule="evenodd" d="M0.970306 0H47.4629V11.0697H0.970306V0Z" fill="#DE1818"/>
<mask id="mask0_22_7764" style="mask-type:alpha" maskUnits="userSpaceOnUse" x="18" y="11" width="12" height="14">
<path d="M29.7519 18.8181C29.7519 21.8733 27.2723 24.3529 24.2171 24.3529C21.1618 24.3529 18.6822 21.8733 18.6822 18.8181V11.0693H29.7519V18.8181Z" fill="white"/>
</mask>
<g mask="url(#mask0_22_7764)">
<path d="M29.7519 18.8181C29.7519 21.8733 27.2723 24.3529 24.2171 24.3529C21.1618 24.3529 18.6822 21.8733 18.6822 18.8181V11.0693H29.7519V18.8181Z" fill="#F93939"/>
<path fill-rule="evenodd" clip-rule="evenodd" d="M20.8962 22.139H23.1101V24.3529H20.8962V22.139ZM25.324 22.139H27.5379V24.3529H25.324V22.139ZM23.1101 19.9251H25.324V22.139H23.1101V19.9251ZM20.8962 17.7111H23.1101V19.9251H20.8962V17.7111ZM25.324 17.7111H27.5379V19.9251H25.324V17.7111ZM23.1101 15.4972H25.324V17.7111H23.1101V15.4972ZM20.8962 13.2833H23.1101V15.4972H20.8962V13.2833ZM25.324 13.2833H27.5379V15.4972H25.324V13.2833ZM23.1101 11.0693H25.324V13.2833H23.1101V11.0693ZM27.5379 11.0693H29.7519V13.2833H27.5379V11.0693ZM27.5379 15.4972H29.7519V17.7111H27.5379V15.4972ZM27.5379 19.9251H29.7519V22.139H27.5379V19.9251ZM18.6822 19.9251H20.8962V22.139H18.6822V19.9251ZM18.6822 15.4972H20.8962V17.7111H18.6822V15.4972ZM18.6822 11.0693H20.8962V13.2833H18.6822V11.0693Z" fill="white"/>
<path fill-rule="evenodd" clip-rule="evenodd" d="M0.970306 0H47.4629V11.0697H0.970306V0Z" fill="#F93939"/>
</g>
</g>
<defs>
<clipPath id="clip0_22_7764">
<rect x="0.970306" width="46.4926" height="33.209" rx="6.6418" fill="white"/>
</clipPath>
</defs>
</svg>
