<svg width="48" height="34" viewBox="0 0 48 34" fill="none" xmlns="http://www.w3.org/2000/svg">
<g clip-path="url(#clip0_22_7858)">
<rect x="0.89447" width="46.4925" height="33.2089" rx="6.64178" fill="white"/>
<path fill-rule="evenodd" clip-rule="evenodd" d="M0.89447 22.1392H47.387V33.2088H0.89447V22.1392Z" fill="#1A47B8"/>
<path fill-rule="evenodd" clip-rule="evenodd" d="M27.3952 15.9409C27.4395 16.1557 27.4616 16.3771 27.4616 16.6051C27.4616 18.4382 25.9738 19.926 24.1407 19.926C22.3076 19.926 20.8198 18.4382 20.8198 16.6051C20.8198 16.3771 20.842 16.1557 20.8862 15.9409C21.1962 16.9505 22.5334 17.7121 24.1407 17.7121C25.748 17.7121 27.0852 16.9505 27.3952 15.9409Z" fill="#249F58"/>
<path d="M24.1407 15.4976C24.7521 15.4976 25.2477 15.002 25.2477 14.3907C25.2477 13.7793 24.7521 13.2837 24.1407 13.2837C23.5294 13.2837 23.0338 13.7793 23.0338 14.3907C23.0338 15.002 23.5294 15.4976 24.1407 15.4976Z" fill="#FFDA2C"/>
<path fill-rule="evenodd" clip-rule="evenodd" d="M0.89447 0H47.387V11.0696H0.89447V0Z" fill="#F93939"/>
</g>
<defs>
<clipPath id="clip0_22_7858">
<rect x="0.89447" width="46.4925" height="33.2089" rx="6.64178" fill="white"/>
</clipPath>
</defs>
</svg>
