<svg width="48" height="34" viewBox="0 0 48 34" fill="none" xmlns="http://www.w3.org/2000/svg">
<g clip-path="url(#clip0_22_7849)">
<path d="M43.0042 0H5.36737C2.92193 0 0.939514 1.98242 0.939514 4.42786V28.7811C0.939514 31.2265 2.92193 33.2089 5.36737 33.2089H43.0042C45.4496 33.2089 47.432 31.2265 47.432 28.7811V4.42786C47.432 1.98242 45.4496 0 43.0042 0Z" fill="white"/>
<path fill-rule="evenodd" clip-rule="evenodd" d="M0.939514 22.1393H47.432V33.2089H0.939514V22.1393ZM0.939514 0H47.432V11.0696H0.939514V0Z" fill="#3ECBF8"/>
<path d="M24.1862 19.9255C26.0203 19.9255 27.5071 18.4387 27.5071 16.6046C27.5071 14.7705 26.0203 13.2837 24.1862 13.2837C22.3521 13.2837 20.8653 14.7705 20.8653 16.6046C20.8653 18.4387 22.3521 19.9255 24.1862 19.9255Z" fill="#FFDA2C"/>
</g>
<defs>
<clipPath id="clip0_22_7849">
<rect x="0.939514" width="46.4925" height="33.2089" rx="6.64178" fill="white"/>
</clipPath>
</defs>
</svg>
