<svg width="47" height="34" viewBox="0 0 47 34" fill="none" xmlns="http://www.w3.org/2000/svg">
<g clip-path="url(#clip0_22_7851)">
<rect x="0.416992" width="46.4925" height="33.2089" rx="6.64178" fill="white"/>
<path fill-rule="evenodd" clip-rule="evenodd" d="M22.5563 6.6416H46.9095V11.0695H22.5563V6.6416ZM22.5563 15.4973H46.9095V19.9252H22.5563V15.4973ZM0.416992 24.353H46.9095V28.7809H0.416992V24.353Z" fill="#3A99FF"/>
<path fill-rule="evenodd" clip-rule="evenodd" d="M15.6488 15.2317C15.1396 17.988 13.9662 19.9252 12.5936 19.9252C11.221 19.9252 10.0476 17.9903 9.53838 15.2317C6.78204 14.7225 4.84485 13.5491 4.84485 12.1765C4.84485 10.8038 6.77982 9.63047 9.53838 9.12126C10.0476 6.36492 11.221 4.42773 12.5936 4.42773C13.9662 4.42773 15.1396 6.36271 15.6488 9.12126C18.4052 9.63047 20.3423 10.8038 20.3423 12.1765C20.3423 13.5491 18.4074 14.7225 15.6488 15.2317Z" fill="#D4AF2C"/>
<path fill-rule="evenodd" clip-rule="evenodd" d="M14.1146 13.6975C13.9729 17.2464 13.3463 19.9252 12.5936 19.9252C11.8409 19.9252 11.2143 17.2464 11.0726 13.6975C7.5237 13.5558 4.84485 12.9292 4.84485 12.1765C4.84485 11.4237 7.5237 10.7972 11.0726 10.6555C11.2143 7.10659 11.8409 4.42773 12.5936 4.42773C13.3463 4.42773 13.9729 7.10659 14.1146 10.6555C17.6635 10.7972 20.3423 11.4237 20.3423 12.1765C20.3423 12.9292 17.6635 13.5558 14.1146 13.6975Z" fill="#FFDA2C"/>
<path d="M12.5936 15.4973C14.4277 15.4973 15.9145 14.0104 15.9145 12.1764C15.9145 10.3423 14.4277 8.85547 12.5936 8.85547C10.7595 8.85547 9.27271 10.3423 9.27271 12.1764C9.27271 14.0104 10.7595 15.4973 12.5936 15.4973Z" fill="#FFDA2C"/>
</g>
<defs>
<clipPath id="clip0_22_7851">
<rect x="0.416992" width="46.4925" height="33.2089" rx="6.64178" fill="white"/>
</clipPath>
</defs>
</svg>
