<svg width="47" height="34" viewBox="0 0 47 34" fill="none" xmlns="http://www.w3.org/2000/svg">
<g clip-path="url(#clip0_22_7859)">
<path d="M42.4516 0H4.81482C2.36938 0 0.386963 1.98242 0.386963 4.42786V28.7811C0.386963 31.2265 2.36938 33.2089 4.81482 33.2089H42.4516C44.897 33.2089 46.8795 31.2265 46.8795 28.7811V4.42786C46.8795 1.98242 44.897 0 42.4516 0Z" fill="#1A47B8"/>
<path fill-rule="evenodd" clip-rule="evenodd" d="M0.386963 24.353H46.8795V33.2087H0.386963V24.353Z" fill="#F93939"/>
<path fill-rule="evenodd" clip-rule="evenodd" d="M0.386963 0H46.8795V17.7114H0.386963V0Z" fill="#FFDA2C"/>
<path d="M23.6332 22.1394C25.4673 22.1394 26.9541 20.157 26.9541 17.7115C26.9541 15.2661 25.4673 13.2837 23.6332 13.2837C21.7991 13.2837 20.3123 15.2661 20.3123 17.7115C20.3123 20.157 21.7991 22.1394 23.6332 22.1394Z" fill="#3ECBF8"/>
<path fill-rule="evenodd" clip-rule="evenodd" d="M18.0984 15.4976V19.9254L22.5262 22.1393H24.7402L29.168 19.9254V15.4976L31.382 19.9254L29.168 22.1393L24.7402 24.3533H22.5262L18.0984 22.1393L15.8845 19.9254L18.0984 15.4976Z" fill="#FFDA2C"/>
<path fill-rule="evenodd" clip-rule="evenodd" d="M13.6705 8.85547H20.3123L23.6332 11.0694L26.9541 8.85547H33.5959L26.9541 11.0694L24.7402 13.2833H22.5262L20.3123 11.0694L13.6705 8.85547Z" fill="#151515"/>
</g>
<defs>
<clipPath id="clip0_22_7859">
<rect x="0.386963" width="46.4925" height="33.2089" rx="6.64178" fill="white"/>
</clipPath>
</defs>
</svg>
