<svg width="47" height="34" viewBox="0 0 47 34" fill="none" xmlns="http://www.w3.org/2000/svg">
<rect x="0.371948" width="46.4925" height="33.2089" rx="6.64178" fill="#249F58"/>
<path fill-rule="evenodd" clip-rule="evenodd" d="M23.6182 4.42773L40.2227 16.6043L23.6182 28.7809L7.01373 16.6043" fill="#FFDA2C"/>
<path d="M23.6182 24.353C27.8977 24.353 31.3669 20.8837 31.3669 16.6042C31.3669 12.3247 27.8977 8.85547 23.6182 8.85547C19.3387 8.85547 15.8694 12.3247 15.8694 16.6042C15.8694 20.8837 19.3387 24.353 23.6182 24.353Z" fill="#1A47B8"/>
<path fill-rule="evenodd" clip-rule="evenodd" d="M20.2973 19.9253V22.1392H22.5112V19.9253H20.2973ZM24.7252 19.9253V22.1392H26.9391V19.9253H24.7252Z" fill="white"/>
<path fill-rule="evenodd" clip-rule="evenodd" d="M18.0834 13.2837C18.0834 13.2837 23.0957 14.1693 26.7088 15.7146L31.3669 17.7115" fill="white"/>
<path d="M18.0834 13.2837C18.0834 13.2837 23.0957 14.1693 26.7088 15.7146L31.3669 17.7115" stroke="white" stroke-width="2.21393"/>
</svg>
