<svg width="153" height="37" viewBox="0 0 153 37" fill="none" xmlns="http://www.w3.org/2000/svg">
<path d="M60.2968 26.1761C59.1235 26.1761 58.0308 25.9781 57.0188 25.5821C56.0215 25.1861 55.1562 24.6361 54.4228 23.9321C53.6895 23.2134 53.1175 22.3774 52.7068 21.4241C52.2962 20.4707 52.0908 19.4294 52.0908 18.3001C52.0908 17.1707 52.2962 16.1294 52.7068 15.1761C53.1175 14.2227 53.6895 13.3941 54.4228 12.6901C55.1562 11.9714 56.0215 11.4141 57.0188 11.0181C58.0162 10.6221 59.1088 10.4241 60.2968 10.4241C61.4702 10.4241 62.5482 10.6221 63.5308 11.0181C64.5282 11.3994 65.3935 11.9494 66.1268 12.6681C66.8748 13.3721 67.4468 14.2007 67.8428 15.1541C68.2535 16.1074 68.4588 17.1561 68.4588 18.3001C68.4588 19.4441 68.2535 20.4927 67.8428 21.4461C67.4468 22.3994 66.8748 23.2354 66.1268 23.9541C65.3935 24.6581 64.5282 25.2081 63.5308 25.6041C62.5482 25.9854 61.4702 26.1761 60.2968 26.1761ZM60.2968 24.2181C61.1475 24.2181 61.9322 24.0714 62.6508 23.7781C63.3842 23.4847 64.0148 23.0741 64.5428 22.5461C65.0855 22.0034 65.5035 21.3727 65.7968 20.6541C66.1048 19.9354 66.2588 19.1507 66.2588 18.3001C66.2588 17.4494 66.1048 16.6647 65.7968 15.9461C65.5035 15.2274 65.0855 14.6041 64.5428 14.0761C64.0148 13.5334 63.3842 13.1154 62.6508 12.8221C61.9322 12.5287 61.1475 12.3821 60.2968 12.3821C59.4315 12.3821 58.6322 12.5287 57.8988 12.8221C57.1802 13.1154 56.5495 13.5334 56.0068 14.0761C55.4642 14.6041 55.0388 15.2274 54.7308 15.9461C54.4375 16.6647 54.2908 17.4494 54.2908 18.3001C54.2908 19.1507 54.4375 19.9354 54.7308 20.6541C55.0388 21.3727 55.4642 22.0034 56.0068 22.5461C56.5495 23.0741 57.1802 23.4847 57.8988 23.7781C58.6322 24.0714 59.4315 24.2181 60.2968 24.2181Z" fill="#2268EF"/>
<path d="M94.0273 26.1761C92.854 26.1761 91.7613 25.9781 90.7493 25.5821C89.752 25.1861 88.8866 24.6361 88.1533 23.9321C87.42 23.2134 86.848 22.3774 86.4373 21.4241C86.0266 20.4707 85.8213 19.4294 85.8213 18.3001C85.8213 17.1707 86.0266 16.1294 86.4373 15.1761C86.848 14.2227 87.42 13.3941 88.1533 12.6901C88.8866 11.9714 89.752 11.4141 90.7493 11.0181C91.7466 10.6221 92.8393 10.4241 94.0273 10.4241C95.2006 10.4241 96.2786 10.6221 97.2613 11.0181C98.2586 11.3994 99.124 11.9494 99.8573 12.6681C100.605 13.3721 101.177 14.2007 101.573 15.1541C101.984 16.1074 102.189 17.1561 102.189 18.3001C102.189 19.4441 101.984 20.4927 101.573 21.4461C101.177 22.3994 100.605 23.2354 99.8573 23.9541C99.124 24.6581 98.2586 25.2081 97.2613 25.6041C96.2786 25.9854 95.2006 26.1761 94.0273 26.1761ZM94.0273 24.2181C94.878 24.2181 95.6626 24.0714 96.3813 23.7781C97.1146 23.4847 97.7453 23.0741 98.2733 22.5461C98.816 22.0034 99.234 21.3727 99.5273 20.6541C99.8353 19.9354 99.9893 19.1507 99.9893 18.3001C99.9893 17.4494 99.8353 16.6647 99.5273 15.9461C99.234 15.2274 98.816 14.6041 98.2733 14.0761C97.7453 13.5334 97.1146 13.1154 96.3813 12.8221C95.6626 12.5287 94.878 12.3821 94.0273 12.3821C93.162 12.3821 92.3626 12.5287 91.6293 12.8221C90.9106 13.1154 90.28 13.5334 89.7373 14.0761C89.1946 14.6041 88.7693 15.2274 88.4613 15.9461C88.168 16.6647 88.0213 17.4494 88.0213 18.3001C88.0213 19.1507 88.168 19.9354 88.4613 20.6541C88.7693 21.3727 89.1946 22.0034 89.7373 22.5461C90.28 23.0741 90.9106 23.4847 91.6293 23.7781C92.3626 24.0714 93.162 24.2181 94.0273 24.2181Z" fill="#2268EF"/>
<path fill-rule="evenodd" clip-rule="evenodd" d="M103.044 10.6001L109.688 26.0001H113.208L119.874 10.6001H116.332L111.577 21.5992L106.894 10.6001H103.044ZM112.702 24.2401L111.577 21.5992L110.436 24.2401H112.702Z" fill="#353535"/>
<path d="M110.436 24.2401H112.702L111.577 21.5992L110.436 24.2401Z" fill="#353535"/>
<path fill-rule="evenodd" clip-rule="evenodd" d="M121.16 10.6001V26.0001H124.724V21.7541H127.826C129.204 21.7541 130.392 21.5341 131.39 21.0941C132.387 20.6394 133.157 19.9941 133.7 19.1581C134.242 18.3221 134.514 17.3321 134.514 16.1881C134.514 15.0294 134.242 14.0321 133.7 13.1961C133.157 12.3601 132.387 11.7221 131.39 11.2821C130.392 10.8274 129.204 10.6001 127.826 10.6001H121.16ZM123.14 21.7541H124.724V20.5441L124.534 20.3408L123.14 21.7541ZM124.724 18.8501V13.5041H127.628C128.728 13.5041 129.549 13.7387 130.092 14.2081C130.634 14.6774 130.906 15.3374 130.906 16.1881C130.906 17.0241 130.634 17.6767 130.092 18.1461C129.549 18.6154 128.728 18.8501 127.628 18.8501H124.724Z" fill="#353535"/>
<path d="M123.14 21.7541H124.724V20.5441L124.534 20.3408L123.14 21.7541Z" fill="#353535"/>
<path fill-rule="evenodd" clip-rule="evenodd" d="M137.058 10.6001V26.0001H140.578V16.6529L148.256 26.0001H151.182V10.6001H147.662V19.943L140.006 10.6001H137.058ZM139.148 14.9121L140.578 16.6529V14.9121H139.148Z" fill="#353535"/>
<path d="M140.578 14.9121H139.148L140.578 16.6529V14.9121Z" fill="#353535"/>
<path fill-rule="evenodd" clip-rule="evenodd" d="M73.6474 19.5981L73.7574 22.2821L74.0214 22.0144V26.0001H71.8214V10.6001H74.0214V19.2128L73.6474 19.5981ZM78.3168 17.5366L84.8894 10.6001H82.3814L74.0214 19.2128V22.0144L76.8468 19.1495L82.7334 26.0001H85.3074L78.3168 17.5366Z" fill="#2268EF"/>
<path d="M73.6474 19.5981L73.7574 22.2821L74.0214 22.0144V19.2128L73.6474 19.5981Z" fill="#2268EF"/>
<path d="M0 7.87653C0 4.13184 3.81196 1.59408 7.26673 3.03879L18 7.52721L28.7333 3.03879C32.188 1.59408 36 4.13184 36 7.87653V18.1009C36 28.042 27.9411 36.2017 18 36.2017C8.05888 36.2017 0 28.042 0 18.1009V7.87653Z" fill="#2268EF"/>
<path fill-rule="evenodd" clip-rule="evenodd" d="M18 36.2017C8.05888 36.2017 0 28.042 0 18.1009C0 14.5763 3.6 7.52721 18 7.52721C32.4 7.52721 36 14.5763 36 18.1009C36 28.042 27.9411 36.2017 18 36.2017Z" fill="#699CFF"/>
<circle cx="18.0501" cy="21.681" r="10.1849" fill="white"/>
<circle cx="18.0505" cy="21.6808" r="6.45378" fill="#1A1A1A"/>
<circle cx="23.4957" cy="18.3529" r="1.0084" fill="white"/>
<circle cx="22.4367" cy="21.0251" r="0.655462" fill="white"/>
<circle cx="20.1172" cy="18.7058" r="1.36134" fill="white"/>
</svg>
