<svg width="48" height="34" viewBox="0 0 48 34" fill="none" xmlns="http://www.w3.org/2000/svg">
<g clip-path="url(#clip0_22_7744)">
<rect x="0.970306" width="46.4926" height="33.209" rx="6.6418" fill="white"/>
<path fill-rule="evenodd" clip-rule="evenodd" d="M0.970306 0H47.4629V19.9254H0.970306V0Z" fill="#F93939"/>
<path fill-rule="evenodd" clip-rule="evenodd" d="M14.2539 17.408C13.6119 17.6073 12.9255 17.7113 12.2104 17.7113C8.44676 17.7113 5.39818 14.738 5.39818 11.0695C5.39818 7.40105 8.44898 4.42773 12.2104 4.42773C12.9233 4.42773 13.6097 4.534 14.2539 4.73104C11.4909 5.57898 9.4851 8.09622 9.4851 11.0695C9.4851 14.0428 11.4909 16.5601 14.2539 17.408ZM18.6818 6.64167H20.8957V8.8556H18.6818V6.64167ZM23.1096 8.8556H25.3236V11.0695H23.1096V8.8556ZM20.8957 13.2835H23.1096V15.4974H20.8957V13.2835ZM14.2539 8.8556H16.4678V11.0695H14.2539V8.8556ZM16.4678 13.2835H18.6818V15.4974H16.4678V13.2835Z" fill="white"/>
</g>
<defs>
<clipPath id="clip0_22_7744">
<rect x="0.970306" width="46.4926" height="33.209" rx="6.6418" fill="white"/>
</clipPath>
</defs>
</svg>
