<svg width="47" height="34" viewBox="0 0 47 34" fill="none" xmlns="http://www.w3.org/2000/svg">
<rect x="0.477722" width="46.4926" height="33.209" rx="6.6418" fill="white"/>
<path fill-rule="evenodd" clip-rule="evenodd" d="M31.4723 16.6046C31.4723 20.8841 28.0031 24.3534 23.7236 24.3534C19.444 24.3534 15.9748 20.8841 15.9748 16.6046C15.9748 14.125 21.1775 13.0844 25.5567 13.4763C26.0216 13.3523 26.522 13.2837 27.0445 13.2837C29.4908 13.2837 31.4723 14.7715 31.4723 16.6046Z" fill="#232C80"/>
<path fill-rule="evenodd" clip-rule="evenodd" d="M22.6166 15.4973C22.6166 15.4973 24.5981 13.2833 27.0445 13.2833C29.4908 13.2833 31.4723 14.7711 31.4723 16.6042C31.4723 12.3247 28.0031 8.85547 23.7236 8.85547C20.6307 8.85547 17.9607 10.6665 16.7187 13.2878C15.9748 15.4973 15.9748 16.1437 15.9748 16.6042C17.0818 17.7112 18.3127 17.7112 19.2957 17.7112C20.2787 17.7112 21.162 17.2839 21.7709 16.6042L22.6166 15.4973Z" fill="#F93939"/>
<path fill-rule="evenodd" clip-rule="evenodd" d="M33.6864 11.0695H38.1143L33.6864 6.6416H31.4725L33.6864 11.0695ZM13.7611 11.0695H9.33319L13.7611 6.6416H15.975L13.7611 11.0695ZM33.6864 22.1391H38.1143L33.6864 26.567H31.4725L33.6864 22.1391ZM13.7611 22.1391H9.33319L13.7611 26.567H15.975L13.7611 22.1391Z" fill="#151515"/>
</svg>
