<svg width="47" height="34" viewBox="0 0 47 34" fill="none" xmlns="http://www.w3.org/2000/svg">
<rect x="0.433167" width="46.4926" height="33.209" rx="6.6418" fill="#F93939"/>
<path fill-rule="evenodd" clip-rule="evenodd" d="M23.029 20.9988C23.2438 21.021 23.4607 21.032 23.6799 21.032C23.9013 21.032 24.1161 21.021 24.3308 20.9988L23.6799 19.3716L23.029 20.9988ZM20.0269 19.7922C18.869 18.8757 18.1451 17.5384 18.1451 16.0507C18.1451 14.295 19.1546 12.7519 20.6778 11.8664L22.5729 16.6042L20.0269 19.7922ZM26.682 11.8664C28.2052 12.7519 29.2147 14.295 29.2147 16.0507C29.2147 17.5407 28.4886 18.8779 27.3329 19.7922L24.7869 16.6042L26.682 11.8664ZM26.4606 11.7424C25.6415 11.3129 24.6939 11.0693 23.6799 11.0693C22.6659 11.0693 21.7162 11.3129 20.8992 11.7424L23.6799 15.2182L26.4606 11.7424Z" fill="#FFDA2C"/>
<path fill-rule="evenodd" clip-rule="evenodd" d="M23.6791 26.567C29.1807 26.567 33.6418 22.1059 33.6418 16.6043C33.6418 11.1027 29.1807 6.6416 23.6791 6.6416C18.1774 6.6416 13.7164 11.1027 13.7164 16.6043C13.7164 22.1059 18.1774 26.567 23.6791 26.567ZM23.6791 24.3531C27.9586 24.3531 31.4278 20.8838 31.4278 16.6043C31.4278 12.3248 27.9586 8.85553 23.6791 8.85553C19.3995 8.85553 15.9303 12.3248 15.9303 16.6043C15.9303 20.8838 19.3995 24.3531 23.6791 24.3531Z" fill="#FFDA2C"/>
</svg>
