<svg width="48" height="34" viewBox="0 0 48 34" fill="none" xmlns="http://www.w3.org/2000/svg">
<g clip-path="url(#clip0_22_7748)">
<rect x="0.895996" width="46.4926" height="33.209" rx="6.6418" fill="white"/>
<path fill-rule="evenodd" clip-rule="evenodd" d="M0.895996 22.1392H47.3886V33.2088H0.895996V22.1392Z" fill="#00B731"/>
<path d="M28.2878 16.6042C28.2878 18.8937 26.4318 20.7497 24.1423 20.7497C21.8528 20.7497 19.9968 18.8937 19.9968 16.6042C19.9968 14.3147 21.8528 12.4588 24.1423 12.4588C26.4318 12.4588 28.2878 14.3147 28.2878 16.6042Z" stroke="#4848B0" stroke-width="1.10697"/>
<path d="M24.1423 18.8688C25.3929 18.8688 26.4067 17.8549 26.4067 16.6043C26.4067 15.3537 25.3929 14.3398 24.1423 14.3398C22.8916 14.3398 21.8778 15.3537 21.8778 16.6043C21.8778 17.8549 22.8916 18.8688 24.1423 18.8688Z" fill="#4848B0"/>
<path fill-rule="evenodd" clip-rule="evenodd" d="M0.895996 0H47.3886V11.0697H0.895996V0Z" fill="#FF6C2D"/>
</g>
<defs>
<clipPath id="clip0_22_7748">
<rect x="0.895996" width="46.4926" height="33.209" rx="6.6418" fill="white"/>
</clipPath>
</defs>
</svg>
