<svg width="47" height="34" viewBox="0 0 47 34" fill="none" xmlns="http://www.w3.org/2000/svg">
<g clip-path="url(#clip0_22_7747)">
<rect x="0.448059" width="46.4926" height="33.209" rx="6.6418" fill="#0A6A30"/>
<path d="M42.5128 0H4.87592C2.43048 0 0.448059 1.98242 0.448059 4.42786V28.7811C0.448059 31.2266 2.43048 33.209 4.87592 33.209H42.5128C44.9582 33.209 46.9406 31.2266 46.9406 28.7811V4.42786C46.9406 1.98242 44.9582 0 42.5128 0Z" fill="#0A6A30"/>
<path fill-rule="evenodd" clip-rule="evenodd" d="M35.8134 13.226C35.6673 14.5455 35.2511 15.4975 34.764 15.4975C34.2769 15.4975 33.8607 14.5455 33.7146 13.226C32.3951 13.0799 31.4431 12.6637 31.4431 12.1766C31.4431 11.6896 32.3951 11.2733 33.7146 11.1272C33.8607 9.80772 34.2769 8.85573 34.764 8.85573C35.2511 8.85573 35.6673 9.80772 35.8134 11.1272C37.1329 11.2733 38.0849 11.6896 38.0849 12.1766C38.0849 12.6637 37.1329 13.0799 35.8134 13.226ZM0.448059 0H13.7317V33.209H0.448059V0Z" fill="white"/>
<path fill-rule="evenodd" clip-rule="evenodd" d="M40.2324 15.4265C40.2767 15.8139 40.2988 16.2058 40.2988 16.6043C40.2988 22.1059 35.8378 26.567 30.3361 26.567C24.8345 26.567 20.3734 22.1059 20.3734 16.6043C20.3734 11.1027 24.8345 6.6416 30.3361 6.6416C30.7347 6.6416 31.1265 6.66374 31.514 6.70802C27.7237 7.21722 24.8013 10.4651 24.8013 14.3904C24.8013 18.6699 28.2705 22.1391 32.5501 22.1391C36.4776 22.1391 39.7232 19.2167 40.2324 15.4265Z" fill="white"/>
</g>
<defs>
<clipPath id="clip0_22_7747">
<rect x="0.448059" width="46.4926" height="33.209" rx="6.6418" fill="white"/>
</clipPath>
</defs>
</svg>
