<svg width="47" height="34" viewBox="0 0 47 34" fill="none" xmlns="http://www.w3.org/2000/svg">
<g clip-path="url(#clip0_22_7740)">
<rect width="46.4926" height="33.209" rx="6.6418" fill="white"/>
<path fill-rule="evenodd" clip-rule="evenodd" d="M15.4975 0H46.4926V2.21393H15.4975V0ZM15.4975 4.42786H46.4926V6.6418H15.4975V4.42786ZM15.4975 8.85573H46.4926V11.0697H15.4975V8.85573ZM15.4975 13.2836H46.4926V15.4975H15.4975V13.2836ZM0 17.7115H46.4926V19.9254H0V17.7115ZM0 22.1393H46.4926V24.3533H0V22.1393ZM0 26.5672H46.4926V28.7811H0V26.5672Z" fill="#F93939"/>
<path d="M46.4926 30.9951H0V33.209H46.4926V30.9951Z" fill="#F93939"/>
<path fill-rule="evenodd" clip-rule="evenodd" d="M0 0H15.4975V15.4975H0V0Z" fill="#1A47B8"/>
<path fill-rule="evenodd" clip-rule="evenodd" d="M10.2104 9.21718L8.47542 10.1296L8.80678 8.19664L7.40311 6.83094L9.34293 6.54905L10.2104 4.79102L11.078 6.5479L13.0178 6.82979L11.6141 8.19894L11.9455 10.1296" fill="#FFD100"/>
<path d="M8.58568 3.7054C7.95116 3.49812 7.27677 3.44308 6.61703 3.54472C5.9573 3.64635 5.33074 3.90182 4.78803 4.29045C4.24531 4.67909 3.80167 5.18998 3.49297 5.78183C3.18427 6.37368 3.01918 7.02987 3.01106 7.69733C3.00293 8.3648 3.15199 9.02481 3.44619 9.624C3.74038 10.2232 4.17146 10.7447 4.70455 11.1465C5.23764 11.5482 5.85779 11.8188 6.51486 11.9365C7.17192 12.0542 7.84745 12.0156 8.48683 11.8238L8.21447 10.9157C7.71759 11.0647 7.19261 11.0947 6.68199 11.0033C6.17136 10.9118 5.68942 10.7015 5.27514 10.3893C4.86086 10.0771 4.52586 9.67179 4.29723 9.20615C4.0686 8.7405 3.95276 8.22758 3.95908 7.70888C3.96539 7.19017 4.09369 6.68022 4.33359 6.22028C4.57348 5.76034 4.91825 5.36331 5.34001 5.06129C5.76177 4.75927 6.24869 4.56074 6.76139 4.48175C7.27409 4.40277 7.79818 4.44555 8.29128 4.60662L8.58568 3.7054Z" fill="#FFD100"/>
</g>
<defs>
<clipPath id="clip0_22_7740">
<rect width="46.4926" height="33.209" rx="6.6418" fill="white"/>
</clipPath>
</defs>
</svg>
