<svg width="48" height="34" viewBox="0 0 48 34" fill="none" xmlns="http://www.w3.org/2000/svg">
<rect x="0.92572" width="46.4926" height="33.209" rx="6.6418" fill="#03BCDB"/>
<path d="M26.3863 19.9251C29.4431 19.9251 31.9212 17.4471 31.9212 14.3903C31.9212 11.3335 29.4431 8.85547 26.3863 8.85547C23.3295 8.85547 20.8515 11.3335 20.8515 14.3903C20.8515 17.4471 23.3295 19.9251 26.3863 19.9251Z" fill="#FFDA2C"/>
<path fill-rule="evenodd" clip-rule="evenodd" d="M18.6376 15.4976L20.8516 19.9254L26.3864 22.1394L31.9212 19.9254L34.1352 15.4976V22.1394L26.3864 24.3533L18.6376 22.1394V15.4976Z" fill="#FFDA2C"/>
<path fill-rule="evenodd" clip-rule="evenodd" d="M5.35359 5.52363C5.35359 4.91923 5.86722 4.42773 6.46056 4.42773C7.0716 4.42773 7.56752 4.90594 7.56752 5.52363V9.97364C7.56752 10.578 7.05389 11.0695 6.46056 11.0695C5.84951 11.0695 5.35359 10.5913 5.35359 9.97364V5.52363ZM7.56752 9.9515C7.56752 9.34709 8.08116 8.8556 8.67449 8.8556C9.28554 8.8556 9.78146 9.33381 9.78146 9.9515V14.4015C9.78146 15.0059 9.26782 15.4974 8.67449 15.4974C8.06345 15.4974 7.56752 15.0192 7.56752 14.4015V9.9515ZM7.56752 18.8072C7.56752 18.2028 8.08116 17.7113 8.67449 17.7113C9.28554 17.7113 9.78146 18.1895 9.78146 18.8072V23.2572C9.78146 23.8616 9.26782 24.3531 8.67449 24.3531C8.06345 24.3531 7.56752 23.8749 7.56752 23.2572V18.8072ZM5.35359 23.2351C5.35359 22.6307 5.86722 22.1392 6.46056 22.1392C7.0716 22.1392 7.56752 22.6174 7.56752 23.2351V27.6851C7.56752 28.2895 7.05389 28.781 6.46056 28.781C5.84951 28.781 5.35359 28.3028 5.35359 27.6851V23.2351ZM5.35359 14.3904C5.35359 13.7794 5.86722 13.2835 6.46056 13.2835C7.0716 13.2835 7.56752 13.7971 7.56752 14.3904C7.56752 15.0015 7.05389 15.4974 6.46056 15.4974C5.84951 15.4974 5.35359 14.9838 5.35359 14.3904ZM7.56752 5.5347C7.56752 4.92366 8.08116 4.42773 8.67449 4.42773C9.28554 4.42773 9.78146 4.94137 9.78146 5.5347C9.78146 6.14575 9.26782 6.64167 8.67449 6.64167C8.06345 6.64167 7.56752 6.12803 7.56752 5.5347ZM5.35359 16.6044C5.35359 15.9933 5.86722 15.4974 6.46056 15.4974C7.0716 15.4974 7.56752 16.011 7.56752 16.6044C7.56752 17.2154 7.05389 17.7113 6.46056 17.7113C5.84951 17.7113 5.35359 17.1977 5.35359 16.6044ZM7.56752 27.674C7.56752 27.063 8.08116 26.5671 8.67449 26.5671C9.28554 26.5671 9.78146 27.0807 9.78146 27.674C9.78146 28.2851 9.26782 28.781 8.67449 28.781C8.06345 28.781 7.56752 28.2674 7.56752 27.674ZM5.35359 18.8183C5.35359 18.2072 5.86722 17.7113 6.46056 17.7113C7.0716 17.7113 7.56752 18.225 7.56752 18.8183C7.56752 19.4293 7.05389 19.9253 6.46056 19.9253C5.84951 19.9253 5.35359 19.4116 5.35359 18.8183Z" fill="#FFDA2C"/>
</svg>
