<svg width="48" height="34" viewBox="0 0 48 34" fill="none" xmlns="http://www.w3.org/2000/svg">
<g clip-path="url(#clip0_22_7746)">
<rect x="0.955475" width="46.4926" height="33.209" rx="6.6418" fill="#F93939"/>
<path d="M43.0202 0H5.38334C2.9379 0 0.955475 1.98242 0.955475 4.42786V28.7811C0.955475 31.2266 2.9379 33.209 5.38334 33.209H43.0202C45.4656 33.209 47.4481 31.2266 47.4481 28.7811V4.42786C47.4481 1.98242 45.4656 0 43.0202 0Z" fill="#F93939"/>
<path fill-rule="evenodd" clip-rule="evenodd" d="M0.955475 0H47.4481V17.7115H0.955475V0Z" fill="#1A47B8"/>
<path fill-rule="evenodd" clip-rule="evenodd" d="M0.955475 0V33.282L23.0948 16.6045L0.955475 0Z" fill="white"/>
<path d="M6.49031 24.3531C7.10167 24.3531 7.59727 23.8575 7.59727 23.2461C7.59727 22.6348 7.10167 22.1392 6.49031 22.1392C5.87894 22.1392 5.38334 22.6348 5.38334 23.2461C5.38334 23.8575 5.87894 24.3531 6.49031 24.3531Z" fill="#FFDA2C"/>
<path d="M17.56 17.7115C18.1713 17.7115 18.6669 17.2159 18.6669 16.6045C18.6669 15.9932 18.1713 15.4976 17.56 15.4976C16.9486 15.4976 16.453 15.9932 16.453 16.6045C16.453 17.2159 16.9486 17.7115 17.56 17.7115Z" fill="#FFDA2C"/>
<path fill-rule="evenodd" clip-rule="evenodd" d="M10.885 17.6784C12.8111 17.5566 14.2391 17.1249 14.2391 16.6046C14.2391 16.0866 12.8111 15.6526 10.885 15.5309C10.7632 13.6047 10.3315 12.1768 9.8112 12.1768C9.29314 12.1768 8.85921 13.6047 8.73745 15.5309C6.81133 15.6526 5.38334 16.0843 5.38334 16.6046C5.38334 17.1227 6.81133 17.5566 8.73745 17.6784C8.857 19.6045 9.29093 21.0325 9.8112 21.0325C10.3293 21.0325 10.7632 19.6045 10.885 17.6784Z" fill="#FFDA2C"/>
<path d="M6.49031 11.0699C7.10167 11.0699 7.59727 10.5743 7.59727 9.96292C7.59727 9.35156 7.10167 8.85596 6.49031 8.85596C5.87894 8.85596 5.38334 9.35156 5.38334 9.96292C5.38334 10.5743 5.87894 11.0699 6.49031 11.0699Z" fill="#FFDA2C"/>
</g>
<defs>
<clipPath id="clip0_22_7746">
<rect x="0.955475" width="46.4926" height="33.209" rx="6.6418" fill="white"/>
</clipPath>
</defs>
</svg>
