<svg width="47" height="34" viewBox="0 0 47 34" fill="none" xmlns="http://www.w3.org/2000/svg">
<g clip-path="url(#clip0_22_7745)">
<rect x="0.462891" width="46.4926" height="33.209" rx="6.6418" fill="#F93939"/>
<path d="M42.5276 0H4.89076C2.44531 0 0.462891 1.98242 0.462891 4.42786V28.7811C0.462891 31.2266 2.44531 33.209 4.89076 33.209H42.5276C44.973 33.209 46.9555 31.2266 46.9555 28.7811V4.42786C46.9555 1.98242 44.973 0 42.5276 0Z" fill="#F93939"/>
<path fill-rule="evenodd" clip-rule="evenodd" d="M0.462891 0H24.8161V17.7115H0.462891V0Z" fill="#232C80"/>
<path opacity="0.5" fill-rule="evenodd" clip-rule="evenodd" d="M11.5326 4.42773H13.7465V6.64167H11.5326V4.42773ZM15.9604 6.64167H18.1743V8.8556H15.9604V6.64167ZM13.7465 8.8556H15.9604V11.0695H13.7465V8.8556ZM11.5326 11.0695H13.7465V13.2835H11.5326V11.0695ZM9.31862 6.64167H11.5326V8.8556H9.31862V6.64167Z" fill="white"/>
</g>
<defs>
<clipPath id="clip0_22_7745">
<rect x="0.462891" width="46.4926" height="33.209" rx="6.6418" fill="white"/>
</clipPath>
</defs>
</svg>
