<svg width="48" height="34" viewBox="0 0 48 34" fill="none" xmlns="http://www.w3.org/2000/svg">
<rect x="0.910828" width="46.4926" height="33.209" rx="6.6418" fill="#F93939"/>
<path fill-rule="evenodd" clip-rule="evenodd" d="M23.3938 16.6351C17.3896 14.0935 20.0507 6.26501 25.7959 6.65467C24.6314 7.25243 24.4631 8.36825 25.1273 9.39994C25.8712 10.56 25.0609 12.422 24.0557 12.8758C22.4041 13.6175 22.0743 15.599 23.3916 16.6351H23.3938ZM23.8963 16.365C24.4565 9.87151 32.7299 9.98221 34.1247 15.5635C33.1993 14.6447 32.0879 14.8285 31.3086 15.7805C30.4385 16.8432 28.4172 16.6439 27.6777 15.8314C26.4601 14.4942 24.4675 14.7909 23.8963 16.3672V16.365ZM24.1 17.0137C30.4761 15.6521 32.7875 23.5935 27.8571 26.5646C28.4681 25.4067 27.9678 24.3949 26.8298 23.93C25.559 23.4075 25.1561 21.4172 25.7184 20.4718C26.6438 18.9154 25.776 17.1 24.1022 17.0114L24.1 17.0137ZM15.8553 24.3086C17.1394 24.53 17.9475 23.7396 18.0383 22.5153C18.1423 21.1426 19.909 20.1464 20.9828 20.3899C22.7495 20.7884 24.2085 19.4025 23.7724 17.7819C27.0401 23.4274 20.2013 28.0767 15.8531 24.3063L15.8553 24.3086ZM14.5336 12.1762C14.7882 13.4559 15.8133 13.9252 16.9911 13.571C18.3084 13.1769 19.8736 14.4698 20.0308 15.5635C20.2921 17.3524 22.1075 18.2158 23.4624 17.2328C19.3666 22.3027 12.5699 17.5871 14.5336 12.174V12.1762Z" fill="white"/>
</svg>
