<svg width="47" height="34" viewBox="0 0 47 34" fill="none" xmlns="http://www.w3.org/2000/svg">
<g clip-path="url(#clip0_22_7755)">
<rect x="0.403381" width="46.4926" height="33.209" rx="6.6418" fill="#F93939"/>
<path d="M42.4681 0H4.83125C2.3858 0 0.403381 1.98242 0.403381 4.42786V28.7811C0.403381 31.2266 2.3858 33.209 4.83125 33.209H42.4681C44.9135 33.209 46.896 31.2266 46.896 28.7811V4.42786C46.896 1.98242 44.9135 0 42.4681 0Z" fill="#F93939"/>
<path fill-rule="evenodd" clip-rule="evenodd" d="M12.5758 16.0065L9.32135 17.7179L9.94125 14.0937L7.3111 11.5255L10.9486 11.0008L12.5758 7.70208L14.2009 11.0008L17.8383 11.5255L15.2038 14.0937L15.8281 17.7157L12.5758 16.0065ZM20.329 6.6416H22.543V8.85553H20.329V6.6416ZM22.543 11.0695H24.7569V13.2834H22.543V11.0695ZM22.543 15.4973H24.7569V17.7113H22.543V15.4973ZM20.329 19.9252H22.543V22.1391H20.329V19.9252Z" fill="#FFDA2C"/>
</g>
<defs>
<clipPath id="clip0_22_7755">
<rect x="0.403381" width="46.4926" height="33.209" rx="6.6418" fill="white"/>
</clipPath>
</defs>
</svg>
