<svg width="48" height="34" viewBox="0 0 48 34" fill="none" xmlns="http://www.w3.org/2000/svg">
<g clip-path="url(#clip0_22_7823)">
<rect x="0.969971" width="46.4925" height="33.2089" rx="6.64178" fill="white"/>
<path d="M24.2166 17.7115C24.8279 17.7115 25.3235 16.7203 25.3235 15.4976C25.3235 14.2749 24.8279 13.2837 24.2166 13.2837C23.6052 13.2837 23.1096 14.2749 23.1096 15.4976C23.1096 16.7203 23.6052 17.7115 24.2166 17.7115Z" fill="#FFDA2C"/>
<path fill-rule="evenodd" clip-rule="evenodd" d="M29.7515 16.6042C29.7515 13.5489 27.2719 11.0693 24.2167 11.0693C21.1615 11.0693 18.6819 13.5489 18.6819 16.6042C18.6819 19.6594 21.1615 22.139 24.2167 22.139C27.2719 22.139 29.7515 19.6594 29.7515 16.6042ZM24.2167 19.925C26.0498 19.925 27.5376 17.9436 27.5376 15.4972C27.5376 13.0508 26.0498 11.0693 24.2167 11.0693C22.3836 11.0693 20.8958 13.0508 20.8958 15.4972C20.8958 17.9436 22.3836 19.925 24.2167 19.925Z" fill="#249F58"/>
<rect x="34.1789" width="13.2836" height="33.2089" fill="#3ECBF8"/>
<rect x="0.969971" width="13.2836" height="33.2089" fill="#3ECBF8"/>
</g>
<defs>
<clipPath id="clip0_22_7823">
<rect x="0.969971" width="46.4925" height="33.2089" rx="6.64178" fill="white"/>
</clipPath>
</defs>
</svg>
