<svg width="47" height="34" viewBox="0 0 47 34" fill="none" xmlns="http://www.w3.org/2000/svg">
<g clip-path="url(#clip0_22_7815)">
<rect x="0.492493" width="46.4925" height="33.2089" rx="6.64178" fill="white"/>
<path d="M42.5571 0H4.92035C2.47491 0 0.492493 1.98242 0.492493 4.42786V28.7811C0.492493 31.2265 2.47491 33.2089 4.92035 33.2089H42.5571C45.0026 33.2089 46.985 31.2265 46.985 28.7811V4.42786C46.985 1.98242 45.0026 0 42.5571 0Z" fill="white"/>
<path fill-rule="evenodd" clip-rule="evenodd" d="M35.8578 26.5095C35.7117 27.829 35.2954 28.7809 34.8084 28.7809C34.3213 28.7809 33.9051 27.829 33.759 26.5095C32.4395 26.3633 31.4875 25.9471 31.4875 25.4601C31.4875 24.973 32.4395 24.5568 33.759 24.4107C33.9051 23.0911 34.3191 22.1392 34.8084 22.1392C35.2954 22.1392 35.7117 23.0911 35.8578 24.4107C37.1773 24.5568 38.1293 24.9708 38.1293 25.4601C38.1293 25.9471 37.1773 26.3633 35.8578 26.5095Z" fill="#F93939"/>
<path fill-rule="evenodd" clip-rule="evenodd" d="M0.492493 17.7114H22.6318V33.2089H0.492493V17.7114Z" fill="#1A47B8"/>
<path fill-rule="evenodd" clip-rule="evenodd" d="M13.7183 11.0119C13.5721 12.3314 13.1559 13.2834 12.6689 13.2834C12.1818 13.2834 11.7656 12.3314 11.6195 11.0119C10.3 10.8658 9.34796 10.4496 9.34796 9.96249C9.34796 9.47543 10.3 9.05921 11.6195 8.91309C11.7656 7.59359 12.1818 6.6416 12.6689 6.6416C13.1559 6.6416 13.5721 7.59359 13.7183 8.91309C15.0378 9.05921 15.9897 9.47543 15.9897 9.96249C15.9897 10.4496 15.0378 10.8658 13.7183 11.0119Z" fill="#1A47B8"/>
<path fill-rule="evenodd" clip-rule="evenodd" d="M22.6321 0H46.9854V17.7114H22.6321V0Z" fill="#F93939"/>
</g>
<defs>
<clipPath id="clip0_22_7815">
<rect x="0.492493" width="46.4925" height="33.2089" rx="6.64178" fill="white"/>
</clipPath>
</defs>
</svg>
