<svg width="47" height="34" viewBox="0 0 47 34" fill="none" xmlns="http://www.w3.org/2000/svg">
<g clip-path="url(#clip0_22_7725)">
<rect width="46.4925" height="33.2089" rx="6.64179" fill="white"/>
<path fill-rule="evenodd" clip-rule="evenodd" d="M0 0H19.9254V15.4975H0V0Z" fill="#1A47B8"/>
<path fill-rule="evenodd" clip-rule="evenodd" d="M19.9254 0V2.21393H46.4925V0H19.9254ZM19.9254 4.42786V6.64179H46.4925V4.42786H19.9254ZM19.9254 8.85572V11.0696H46.4925V8.85572H19.9254ZM19.9254 13.2836V15.4975H46.4925V13.2836H19.9254ZM0 17.7114V19.9254H46.4925V17.7114H0ZM0 22.1393V24.3532H46.4925V22.1393H0ZM0 26.5672V28.7811H46.4925V26.5672H0ZM0 30.995V33.2089H46.4925V30.995H0Z" fill="#F93939"/>
<path fill-rule="evenodd" clip-rule="evenodd" d="M2.21393 2.21387V4.4278H4.42786V2.21387H2.21393ZM6.64179 2.21387V4.4278H8.85572V2.21387H6.64179ZM11.0696 2.21387V4.4278H13.2836V2.21387H11.0696ZM15.4975 2.21387V4.4278H17.7114V2.21387H15.4975ZM13.2836 4.4278V6.64173H15.4975V4.4278H13.2836ZM8.85572 4.4278V6.64173H11.0696V4.4278H8.85572ZM4.42786 4.4278V6.64173H6.64179V4.4278H4.42786ZM2.21393 6.64173V8.85566H4.42786V6.64173H2.21393ZM6.64179 6.64173V8.85566H8.85572V6.64173H6.64179ZM11.0696 6.64173V8.85566H13.2836V6.64173H11.0696ZM15.4975 6.64173V8.85566H17.7114V6.64173H15.4975ZM2.21393 11.0696V13.2835H4.42786V11.0696H2.21393ZM6.64179 11.0696V13.2835H8.85572V11.0696H6.64179ZM11.0696 11.0696V13.2835H13.2836V11.0696H11.0696ZM15.4975 11.0696V13.2835H17.7114V11.0696H15.4975ZM13.2836 8.85566V11.0696H15.4975V8.85566H13.2836ZM8.85572 8.85566V11.0696H11.0696V8.85566H8.85572ZM4.42786 8.85566V11.0696H6.64179V8.85566H4.42786Z" fill="white"/>
</g>
<defs>
<clipPath id="clip0_22_7725">
<rect width="46.4925" height="33.2089" rx="6.64179" fill="white"/>
</clipPath>
</defs>
</svg>
