<svg width="48" height="34" viewBox="0 0 48 34" fill="none" xmlns="http://www.w3.org/2000/svg">
<g clip-path="url(#clip0_22_7727)">
<rect x="0.985046" width="46.4925" height="33.2089" rx="6.64179" fill="white"/>
<path d="M24.6867 25.7204H23.7751L24.003 22.0739C23.9901 21.8819 23.8979 21.8314 23.5472 21.846L19.9007 22.3018C19.9007 22.3018 20.5844 21.3902 20.5844 20.9344C20.5844 20.4786 16.4821 17.5158 16.4821 17.5158C16.4821 17.5158 17.3937 17.2879 17.6216 17.06C17.8495 16.8321 16.71 14.3252 16.71 14.3252C16.71 14.3252 19.026 15.2368 19.217 15.0089C19.4079 14.781 19.6728 13.8694 19.6728 13.8694C19.6728 13.8694 21.496 15.9205 21.9518 15.9205C22.4076 15.9205 21.0402 10.9066 21.0402 10.9066C21.0402 10.9066 22.1797 11.8182 22.6355 11.8182C23.0913 11.8182 24.2309 8.85547 24.2309 8.85547C24.2309 8.85547 25.3704 11.8182 25.5983 11.8182C25.8262 11.8182 27.4215 10.9066 27.4215 10.9066C27.4215 10.9066 26.282 15.6926 26.5099 15.9205C26.7378 16.1484 28.789 13.8694 28.789 13.8694C28.789 13.8694 29.0169 14.781 29.2448 15.0089C29.4727 15.2368 31.7517 14.3252 31.7517 14.3252C31.7517 14.3252 30.6122 16.8321 30.8401 17.06C31.068 17.2879 31.9796 17.5158 31.9796 17.5158C31.9796 17.5158 27.8773 20.4786 27.8773 20.9344C27.8773 21.3902 28.3332 22.3018 28.3332 22.3018L24.9146 21.846C24.6398 21.7672 24.5446 21.827 24.4588 22.0739L24.6867 25.7204Z" fill="#F93939"/>
<rect x="36.4079" width="11.0696" height="33.2089" fill="#F93939"/>
<rect x="0.985046" width="11.0696" height="33.2089" fill="#F93939"/>
</g>
<defs>
<clipPath id="clip0_22_7727">
<rect x="0.985046" width="46.4925" height="33.2089" rx="6.64179" fill="white"/>
</clipPath>
</defs>
</svg>
