<svg width="246" height="156" viewBox="0 0 246 156" fill="none" xmlns="http://www.w3.org/2000/svg">
<g filter="url(#filter0_dddd_770_1207)">
<rect x="53" y="20" width="140" height="50" rx="4" fill="white"/>
<rect x="52" y="19" width="142" height="52" rx="5" stroke="#E8E8E8" stroke-width="2"/>
</g>
<path d="M104.87 41H107.24C109.46 41 111.04 39.57 111.04 37.56C111.04 35.55 109.46 34.13 107.24 34.13H104.87V41ZM105.88 40.08V35.05H107.3C108.89 35.05 110 36.09 110 37.56C110 39.04 108.89 40.08 107.3 40.08H105.88ZM114.787 41.12C116.257 41.12 117.497 39.88 117.497 38.41C117.497 36.94 116.257 35.71 114.787 35.71C113.307 35.71 112.057 36.94 112.057 38.41C112.057 39.88 113.307 41.12 114.787 41.12ZM114.787 40.26C113.837 40.26 113.047 39.42 113.047 38.41C113.047 37.41 113.837 36.57 114.787 36.57C115.717 36.57 116.507 37.41 116.507 38.41C116.507 39.42 115.717 40.26 114.787 40.26ZM119.751 41H120.661L121.911 37.16L123.151 41H124.061L125.801 35.83H124.791L123.611 39.68L122.331 35.83H121.491L120.211 39.68L119.021 35.83H118.011L119.751 41ZM129.43 35.71C128.73 35.71 128.1 36.07 127.79 36.58V35.83H126.8V41H127.79V37.65C127.87 37.04 128.49 36.57 129.21 36.57C129.91 36.57 130.4 37.11 130.4 37.88V41H131.37V37.71C131.37 36.54 130.57 35.71 129.43 35.71ZM132.786 41H133.766V34.01H132.786V41ZM137.658 41.12C139.128 41.12 140.368 39.88 140.368 38.41C140.368 36.94 139.128 35.71 137.658 35.71C136.178 35.71 134.928 36.94 134.928 38.41C134.928 39.88 136.178 41.12 137.658 41.12ZM137.658 40.26C136.708 40.26 135.918 39.42 135.918 38.41C135.918 37.41 136.708 36.57 137.658 36.57C138.588 36.57 139.378 37.41 139.378 38.41C139.378 39.42 138.588 40.26 137.658 40.26ZM143.697 35.71C143.127 35.71 142.477 35.86 141.737 36.23L142.097 36.96C142.547 36.73 143.047 36.53 143.557 36.53C144.587 36.53 144.887 37.22 144.887 37.87V38.03C144.387 37.86 143.837 37.75 143.327 37.75C142.187 37.75 141.257 38.44 141.257 39.47C141.257 40.48 142.067 41.12 143.167 41.12C143.797 41.12 144.507 40.83 144.887 40.29V41H145.857V37.87C145.857 36.59 145.087 35.71 143.697 35.71ZM143.357 40.34C142.707 40.34 142.207 40 142.207 39.44C142.207 38.88 142.787 38.49 143.477 38.49C143.987 38.49 144.467 38.56 144.887 38.69V39.38C144.717 40.02 143.997 40.34 143.357 40.34ZM151.268 34.01V36.72C150.868 36.09 150.228 35.71 149.428 35.71C148.068 35.71 147.048 36.83 147.048 38.41C147.048 40 148.068 41.12 149.428 41.12C150.228 41.12 150.868 40.74 151.268 40.1V41H152.248V34.01H151.268ZM149.668 40.26C148.718 40.26 148.048 39.49 148.048 38.41C148.048 37.33 148.718 36.57 149.668 36.57C150.598 36.57 151.268 37.33 151.268 38.41C151.268 39.49 150.598 40.26 149.668 40.26ZM161.675 35.07V34.13H156.625V41H157.645V38.01H161.285V37.07H157.645V35.07H161.675ZM165.217 41.12C166.687 41.12 167.927 39.88 167.927 38.41C167.927 36.94 166.687 35.71 165.217 35.71C163.737 35.71 162.487 36.94 162.487 38.41C162.487 39.88 163.737 41.12 165.217 41.12ZM165.217 40.26C164.267 40.26 163.477 39.42 163.477 38.41C163.477 37.41 164.267 36.57 165.217 36.57C166.147 36.57 166.937 37.41 166.937 38.41C166.937 39.42 166.147 40.26 165.217 40.26ZM170.125 36.82V35.83H169.135V41H170.125V38.06C170.215 37.16 170.975 36.57 172.045 36.57V35.71C171.155 35.71 170.455 36.14 170.125 36.82Z" fill="#282828"/>
<path d="M107.192 54H109.278L111.56 47.392L113.828 54H115.9L118.812 44.382H116.572L114.794 50.836L112.666 44.382H110.426L108.298 50.836L106.52 44.382H104.28L107.192 54ZM121.012 45.768C121.614 45.768 122.104 45.264 122.104 44.648C122.104 44.074 121.614 43.556 121.012 43.556C120.382 43.556 119.892 44.074 119.892 44.648C119.892 45.264 120.382 45.768 121.012 45.768ZM119.976 54H122.02V46.762H119.976V54ZM127.99 46.594C127.052 46.594 126.24 47.014 125.806 47.672V46.762H123.762V54H125.806V49.674L125.82 49.716C125.82 48.932 126.478 48.316 127.332 48.316C128.144 48.316 128.704 48.932 128.704 49.828V54H130.678V49.394C130.678 47.756 129.558 46.594 127.99 46.594ZM137.808 44.214V47.798C137.234 47.042 136.394 46.594 135.372 46.594C133.44 46.594 132.04 48.162 132.04 50.374C132.04 52.6 133.44 54.168 135.372 54.168C136.394 54.168 137.234 53.72 137.808 52.964V54H139.852V44.214H137.808ZM135.96 52.446C134.826 52.446 134.028 51.592 134.028 50.374C134.028 49.17 134.826 48.316 135.96 48.316C137.038 48.316 137.808 49.17 137.808 50.374C137.808 51.592 137.038 52.446 135.96 52.446ZM145.202 54.168C147.344 54.168 149.136 52.432 149.136 50.374C149.136 48.316 147.344 46.594 145.202 46.594C143.046 46.594 141.24 48.316 141.24 50.374C141.24 52.432 143.046 54.168 145.202 54.168ZM145.202 52.446C144.11 52.446 143.2 51.494 143.2 50.374C143.2 49.254 144.11 48.316 145.202 48.316C146.28 48.316 147.19 49.254 147.19 50.374C147.19 51.494 146.28 52.446 145.202 52.446ZM151.997 54H153.831L155.189 49.45L156.533 54H158.367L160.831 46.762H158.829L157.457 51.27L156.029 46.762H154.335L152.907 51.27L151.535 46.762H149.533L151.997 54ZM164.665 54.168C166.443 54.168 167.605 53.258 167.605 51.83C167.605 50.248 166.219 49.828 164.973 49.506C163.993 49.24 163.699 49.128 163.699 48.736C163.699 48.484 164.049 48.302 164.553 48.302C165.169 48.302 165.925 48.54 166.583 48.946L167.409 47.49C166.611 46.958 165.589 46.594 164.553 46.594C162.845 46.594 161.711 47.574 161.725 48.946C161.739 50.374 162.887 50.78 164.371 51.144C165.113 51.34 165.645 51.48 165.645 51.928C165.645 52.25 165.253 52.474 164.707 52.474C163.741 52.474 162.929 52.124 162.285 51.662L161.403 53.076C162.271 53.776 163.503 54.168 164.665 54.168Z" fill="#282828"/>
<path d="M73 35.6811L83.6255 34.2386L83.63 44.4561L73.0096 44.5164L73 35.6812V35.6811ZM83.6204 45.6333L83.6285 55.8597L73.0082 54.404L73.0076 45.5647L83.6203 45.6333H83.6204ZM84.9084 34.0498L98.9968 32V44.3261L84.9084 44.4375V34.0499V34.0498ZM99 45.7295L98.9966 58L84.9083 56.0177L84.8886 45.7065L99 45.7295Z" fill="#00ADEF"/>
<defs>
<filter id="filter0_dddd_770_1207" x="0" y="0" width="246" height="156" filterUnits="userSpaceOnUse" color-interpolation-filters="sRGB">
<feFlood flood-opacity="0" result="BackgroundImageFix"/>
<feColorMatrix in="SourceAlpha" type="matrix" values="0 0 0 0 0 0 0 0 0 0 0 0 0 0 0 0 0 0 127 0" result="hardAlpha"/>
<feOffset dy="1.4945"/>
<feGaussianBlur stdDeviation="1.15484"/>
<feColorMatrix type="matrix" values="0 0 0 0 0 0 0 0 0 0 0 0 0 0 0 0 0 0 0.0268173 0"/>
<feBlend mode="normal" in2="BackgroundImageFix" result="effect1_dropShadow_770_1207"/>
<feColorMatrix in="SourceAlpha" type="matrix" values="0 0 0 0 0 0 0 0 0 0 0 0 0 0 0 0 0 0 127 0" result="hardAlpha"/>
<feOffset dy="4.13211"/>
<feGaussianBlur stdDeviation="3.193"/>
<feColorMatrix type="matrix" values="0 0 0 0 0 0 0 0 0 0 0 0 0 0 0 0 0 0 0.0399899 0"/>
<feBlend mode="normal" in2="effect1_dropShadow_770_1207" result="effect2_dropShadow_770_1207"/>
<feColorMatrix in="SourceAlpha" type="matrix" values="0 0 0 0 0 0 0 0 0 0 0 0 0 0 0 0 0 0 127 0" result="hardAlpha"/>
<feOffset dy="9.94853"/>
<feGaussianBlur stdDeviation="7.6875"/>
<feColorMatrix type="matrix" values="0 0 0 0 0 0 0 0 0 0 0 0 0 0 0 0 0 0 0.0582218 0"/>
<feBlend mode="normal" in2="effect2_dropShadow_770_1207" result="effect3_dropShadow_770_1207"/>
<feColorMatrix in="SourceAlpha" type="matrix" values="0 0 0 0 0 0 0 0 0 0 0 0 0 0 0 0 0 0 127 0" result="hardAlpha"/>
<feOffset dy="33"/>
<feGaussianBlur stdDeviation="25.5"/>
<feColorMatrix type="matrix" values="0 0 0 0 0 0 0 0 0 0 0 0 0 0 0 0 0 0 0.08 0"/>
<feBlend mode="normal" in2="effect3_dropShadow_770_1207" result="effect4_dropShadow_770_1207"/>
<feBlend mode="normal" in="SourceGraphic" in2="effect4_dropShadow_770_1207" result="shape"/>
</filter>
</defs>
</svg>
