<svg width="806" height="131" viewBox="0 0 806 131" fill="none" xmlns="http://www.w3.org/2000/svg">
<path d="M68.372 130.479C58.4991 130.479 49.4089 128.854 41.1012 125.603C32.7936 122.352 25.5695 117.837 19.4291 112.058C13.2886 106.158 8.53278 99.2955 5.16156 91.4695C1.79033 83.523 0.104722 74.8541 0.104722 65.4629C0.104722 56.0716 1.79033 47.4629 5.16156 39.6369C8.53278 31.6904 13.2886 24.8276 19.4291 19.0483C25.5695 13.1487 32.7936 8.57347 41.1012 5.32264C49.4089 2.07182 58.4389 0.446408 68.1914 0.446408C78.0643 0.446408 87.0944 2.07182 95.2816 5.32264C103.589 8.57347 110.813 13.1487 116.954 19.0483C123.094 24.8276 127.85 31.6904 131.221 39.6369C134.592 47.4629 136.278 56.0716 136.278 65.4629C136.278 74.8541 134.592 83.523 131.221 91.4695C127.85 99.4159 123.094 106.279 116.954 112.058C110.813 117.837 103.589 122.352 95.2816 125.603C87.0944 128.854 78.1245 130.479 68.372 130.479ZM68.1914 109.891C74.5727 109.891 80.4723 108.807 85.8904 106.64C91.3084 104.473 96.004 101.403 99.9772 97.4293C103.95 93.3357 107.021 88.64 109.188 83.3424C111.476 77.9244 112.619 71.9645 112.619 65.4629C112.619 58.9612 111.476 53.0616 109.188 47.764C107.021 42.3459 103.95 37.6503 99.9772 33.6771C96.004 29.5834 91.3084 26.453 85.8904 24.2858C80.4723 22.1186 74.5727 21.035 68.1914 21.035C61.8102 21.035 55.9105 22.1186 50.4925 24.2858C45.1948 26.453 40.4992 29.5834 36.4056 33.6771C32.4324 37.6503 29.3019 42.3459 27.0143 47.764C24.8471 53.0616 23.7635 58.9612 23.7635 65.4629C23.7635 71.8441 24.8471 77.7438 27.0143 83.1618C29.3019 88.5798 32.4324 93.3357 36.4056 97.4293C40.3788 101.403 45.0745 104.473 50.4925 106.64C55.9105 108.807 61.8102 109.891 68.1914 109.891ZM182.114 98.8741L180.85 71.0615L247.131 2.25242H273.498L218.415 60.7672L205.412 75.0347L182.114 98.8741ZM161.164 128.673V2.25242H184.643V128.673H161.164ZM249.298 128.673L200.897 71.0615L216.428 53.9044L276.749 128.673H249.298ZM347.387 130.479C337.514 130.479 328.424 128.854 320.116 125.603C311.808 122.352 304.584 117.837 298.444 112.058C292.304 106.158 287.548 99.2955 284.176 91.4695C280.805 83.523 279.12 74.8541 279.12 65.4629C279.12 56.0716 280.805 47.4629 284.176 39.6369C287.548 31.6904 292.304 24.8276 298.444 19.0483C304.584 13.1487 311.808 8.57347 320.116 5.32264C328.424 2.07182 337.454 0.446408 347.206 0.446408C357.079 0.446408 366.109 2.07182 374.297 5.32264C382.604 8.57347 389.828 13.1487 395.969 19.0483C402.109 24.8276 406.865 31.6904 410.236 39.6369C413.607 47.4629 415.293 56.0716 415.293 65.4629C415.293 74.8541 413.607 83.523 410.236 91.4695C406.865 99.4159 402.109 106.279 395.969 112.058C389.828 117.837 382.604 122.352 374.297 125.603C366.109 128.854 357.139 130.479 347.387 130.479ZM347.206 109.891C353.588 109.891 359.487 108.807 364.905 106.64C370.323 104.473 375.019 101.403 378.992 97.4293C382.965 93.3357 386.036 88.64 388.203 83.3424C390.49 77.9244 391.634 71.9645 391.634 65.4629C391.634 58.9612 390.49 53.0616 388.203 47.764C386.036 42.3459 382.965 37.6503 378.992 33.6771C375.019 29.5834 370.323 26.453 364.905 24.2858C359.487 22.1186 353.588 21.035 347.206 21.035C340.825 21.035 334.925 22.1186 329.507 24.2858C324.21 26.453 319.514 29.5834 315.42 33.6771C311.447 37.6503 308.317 42.3459 306.029 47.764C303.862 53.0616 302.778 58.9612 302.778 65.4629C302.778 71.8441 303.862 77.7438 306.029 83.1618C308.317 88.5798 311.447 93.3357 315.42 97.4293C319.394 101.403 324.089 104.473 329.507 106.64C334.925 108.807 340.825 109.891 347.206 109.891Z" fill="#2268EF"/>
<path d="M478.647 128.673L423.022 2.25242H442.527L493.637 118.921H482.44L533.911 2.25242H551.972L496.527 128.673H478.647ZM568.093 128.673V2.25242H617.397C628.474 2.25242 637.926 3.99823 645.752 7.48986C653.578 10.9815 659.598 16.0383 663.812 22.6604C668.026 29.2824 670.133 37.1687 670.133 46.3191C670.133 55.4696 668.026 63.3559 663.812 69.9779C659.598 76.4796 653.578 81.5364 645.752 85.1484C637.926 88.64 628.474 90.3859 617.397 90.3859H578.026L586.153 81.8976V128.673H568.093ZM586.153 83.7036L578.026 74.6735H616.855C628.414 74.6735 637.143 72.2053 643.043 67.2689C649.063 62.3325 652.073 55.3492 652.073 46.3191C652.073 37.2891 649.063 30.3058 643.043 25.3694C637.143 20.433 628.414 17.9647 616.855 17.9647H578.026L586.153 8.93467V83.7036ZM696.666 128.673V2.25242H711.475L795.093 106.098H787.327V2.25242H805.388V128.673H790.578L706.96 24.8276H714.726V128.673H696.666Z" fill="#353535"/>
</svg>
